STARTFONT 2.1
COMMENT
COMMENT Converted from OpenType font "UbuntuMono-Regular.ttf" by "otf2bdf 3.0".
COMMENT
FONT -FreeType-Ubuntu Mono-Medium-R-Normal--50-360-100-100-P-209-ISO10646-1
SIZE 36 100 100
FONTBOUNDINGBOX 49 51 -16 -9
STARTPROPERTIES 19
FOUNDRY "FreeType"
FAMILY_NAME "Ubuntu Mono"
WEIGHT_NAME "Medium"
SLANT "R"
SETWIDTH_NAME "Normal"
ADD_STYLE_NAME ""
PIXEL_SIZE 50
POINT_SIZE 360
RESOLUTION_X 100
RESOLUTION_Y 100
SPACING "P"
AVERAGE_WIDTH 209
CHARSET_REGISTRY "ISO10646"
CHARSET_ENCODING "1"
FONT_ASCENT 41
FONT_DESCENT 8
COPYRIGHT "Copyright 2011 Canonical Ltd.  Licensed under the Ubuntu Font Licence 1.0"
_OTF_FONTFILE "UbuntuMono-Regular.ttf"
_OTF_PSNAME "UbuntuMono-Regular"
ENDPROPERTIES
CHARS 1224
STARTCHAR 0000
ENCODING 0
SWIDTH 500 0
DWIDTH 25 0
BBX 0 0 0 0
BITMAP
ENDCHAR
STARTCHAR 0008
ENCODING 8
SWIDTH 500 0
DWIDTH 25 0
BBX 0 0 0 0
BITMAP
ENDCHAR
STARTCHAR 0009
ENCODING 9
SWIDTH 500 0
DWIDTH 25 0
BBX 0 0 0 0
BITMAP
ENDCHAR
STARTCHAR 000D
ENCODING 13
SWIDTH 500 0
DWIDTH 25 0
BBX 0 0 0 0
BITMAP
ENDCHAR
STARTCHAR 001D
ENCODING 29
SWIDTH 500 0
DWIDTH 25 0
BBX 0 0 0 0
BITMAP
ENDCHAR
STARTCHAR 0020
ENCODING 32
SWIDTH 500 0
DWIDTH 25 0
BBX 0 0 0 0
BITMAP
ENDCHAR
STARTCHAR 0021
ENCODING 33
SWIDTH 500 0
DWIDTH 25 0
BBX 7 32 9 -1
BITMAP
7C
7C
7C
7C
7C
7C
7C
7C
7C
7C
7C
7C
7C
7C
78
78
38
38
38
38
00
00
00
00
00
78
FC
FE
FE
FE
7C
30
ENDCHAR
STARTCHAR 0022
ENCODING 34
SWIDTH 500 0
DWIDTH 25 0
BBX 13 13 6 21
BITMAP
F078
F078
F078
F078
7070
7070
7070
7070
7070
7070
7070
7070
6030
ENDCHAR
STARTCHAR 0023
ENCODING 35
SWIDTH 500 0
DWIDTH 25 0
BBX 23 31 1 0
BITMAP
00F078
00E078
01E078
01E070
01E0F0
01E0F0
01E0F0
01C0F0
FFFFFE
FFFFFE
FFFFFE
FFFFFE
0381E0
0781C0
0783C0
0783C0
0783C0
0703C0
0F0380
FFFFFE
FFFFFE
FFFFFE
FFFFFE
1E0700
1E0700
1E0F00
1E0F00
1C0F00
3C0F00
3C0E00
3C1E00
ENDCHAR
STARTCHAR 0024
ENCODING 36
SWIDTH 500 0
DWIDTH 25 0
BBX 19 40 3 -5
BITMAP
00E000
00E000
00E000
00E000
00E000
00F800
0FFFC0
1FFFC0
3FFF80
7E0180
780000
F80000
F80000
F80000
F80000
7C0000
7F0000
3FC000
1FF800
0FFE00
03FF00
007F80
001FC0
0007E0
0003E0
0001E0
0001E0
0001E0
0001E0
4003E0
FC1FC0
FFFF80
FFFF00
3FFC00
00E000
00E000
00E000
00E000
00E000
00E000
ENDCHAR
STARTCHAR 0025
ENCODING 37
SWIDTH 500 0
DWIDTH 25 0
BBX 23 33 1 -1
BITMAP
0C0000
3F801C
7F803C
73C038
F1C078
E1E0F0
E0E0E0
E0E1E0
E0E1C0
E0E3C0
E1E780
E1C700
71CF00
7FCE00
3F9C00
1F3C00
003800
0078E0
0073F8
00E7FC
01E71C
01C70E
03CF0E
078E0E
070E0E
0F0E0E
0E0E0E
1E0F0E
3C071E
38071C
7803FC
7003F8
000060
ENDCHAR
STARTCHAR 0026
ENCODING 38
SWIDTH 500 0
DWIDTH 25 0
BBX 21 32 2 0
BITMAP
00C000
07F800
0FFE00
1FFE00
3E1F00
3C0F00
3C0F00
3C0F00
3C0F00
3C0F00
3C1E00
3E1E00
1E7C00
1FF800
0FF000
0FE0C0
1FC0F0
3FE0F0
7DF0E0
78F8E0
F87CE0
F03FE0
F01FE0
F00FC0
F00FC0
F007C0
F007E0
F80FE0
7C3FF0
7FFEF0
3FFC78
0FF078
ENDCHAR
STARTCHAR 0027
ENCODING 39
SWIDTH 500 0
DWIDTH 25 0
BBX 5 13 10 21
BITMAP
F8
F8
F8
F8
F8
F8
F0
70
70
70
70
70
70
ENDCHAR
STARTCHAR 0028
ENCODING 40
SWIDTH 500 0
DWIDTH 25 0
BBX 13 43 6 -8
BITMAP
0020
0070
00F8
01F0
03E0
07C0
0F80
0F80
1F00
1E00
3C00
3C00
7800
7800
7800
F000
F000
F000
F000
F000
F000
F000
F000
F000
F000
F000
F000
F000
7800
7800
7800
3C00
3C00
3E00
1F00
0F80
0F80
07C0
03E0
01F0
00F8
0070
0030
ENDCHAR
STARTCHAR 0029
ENCODING 41
SWIDTH 500 0
DWIDTH 25 0
BBX 13 43 6 -8
BITMAP
6000
7000
F800
FC00
7E00
3F00
1F00
0F80
07C0
03C0
03E0
01E0
01F0
00F0
00F0
00F8
0078
0078
0078
0078
0078
0078
0078
0078
0078
0078
0078
0078
00F0
00F0
00F0
01E0
01E0
03C0
07C0
0780
0F80
1F00
3E00
7C00
F800
7000
6000
ENDCHAR
STARTCHAR 002A
ENCODING 42
SWIDTH 500 0
DWIDTH 25 0
BBX 19 18 3 12
BITMAP
01F000
01F000
01F000
00E000
00E000
60E0C0
7CE7C0
FFEFE0
FFFFE0
1FFF00
01F000
03F800
07BC00
0FBE00
1F1F00
1F1F00
1E0F00
0C0600
ENDCHAR
STARTCHAR 002B
ENCODING 43
SWIDTH 500 0
DWIDTH 25 0
BBX 21 22 2 2
BITMAP
007000
007000
007000
007000
007000
007000
007000
007000
007000
FFFFF8
FFFFF8
FFFFF8
FFFFF8
007000
007000
007000
007000
007000
007000
007000
007000
007000
ENDCHAR
STARTCHAR 002C
ENCODING 44
SWIDTH 500 0
DWIDTH 25 0
BBX 10 14 8 -7
BITMAP
0F00
1F80
3F80
3F80
3FC0
3F80
1F80
0780
0780
0F00
7E00
FC00
F800
E000
ENDCHAR
STARTCHAR 002D
ENCODING 45
SWIDTH 500 0
DWIDTH 25 0
BBX 11 4 7 11
BITMAP
FFE0
FFE0
FFE0
FFE0
ENDCHAR
STARTCHAR 002E
ENCODING 46
SWIDTH 500 0
DWIDTH 25 0
BBX 7 8 9 -1
BITMAP
38
7E
FE
FE
FE
FE
7C
10
ENDCHAR
STARTCHAR 002F
ENCODING 47
SWIDTH 500 0
DWIDTH 25 0
BBX 17 43 4 -8
BITMAP
000780
000780
000780
000F00
000F00
000F00
001E00
001E00
001E00
003E00
003C00
003C00
007C00
007800
007800
00F800
00F000
00F000
01F000
01E000
01E000
03E000
03C000
03C000
03C000
078000
078000
078000
0F0000
0F0000
0F0000
1E0000
1E0000
1E0000
3E0000
3C0000
3C0000
7C0000
780000
780000
F80000
F00000
F00000
ENDCHAR
STARTCHAR 0030
ENCODING 48
SWIDTH 500 0
DWIDTH 25 0
BBX 21 33 2 -1
BITMAP
007000
03FE00
07FF00
0FFF80
1F07C0
3E03E0
3C01E0
3C01E0
7801F0
7800F0
7800F0
7800F0
F800F0
F870F8
F8F8F8
F8F8F8
F8F8F8
F8F8F8
F870F8
F800F8
F800F0
7800F0
7800F0
7800F0
7801F0
3C01E0
3C01E0
3E03E0
1F07C0
0FFF80
07FF00
03FE00
007000
ENDCHAR
STARTCHAR 0031
ENCODING 49
SWIDTH 500 0
DWIDTH 25 0
BBX 18 31 4 0
BITMAP
007000
00F000
01F000
07F000
0FF000
3FF000
FEF000
FCF000
70F000
00F000
00F000
00F000
00F000
00F000
00F000
00F000
00F000
00F000
00F000
00F000
00F000
00F000
00F000
00F000
00F000
00F000
00F000
7FFFC0
7FFFC0
7FFFC0
7FFFC0
ENDCHAR
STARTCHAR 0032
ENCODING 50
SWIDTH 500 0
DWIDTH 25 0
BBX 19 32 3 0
BITMAP
01E000
1FFC00
3FFF00
FFFF00
FC1F80
700F80
0007C0
0003C0
0003C0
0003C0
0003C0
0007C0
000780
000F80
001F00
003E00
007E00
00FC00
01F800
03F000
03E000
07C000
0F8000
1F0000
3E0000
3C0000
7C0000
780000
7FFFE0
7FFFE0
FFFFE0
FFFFE0
ENDCHAR
STARTCHAR 0033
ENCODING 51
SWIDTH 500 0
DWIDTH 25 0
BBX 19 33 3 -1
BITMAP
01E000
1FFC00
7FFE00
7FFF00
781F80
200F80
0007C0
0007C0
0003C0
0007C0
000780
000780
000F80
003F00
07FC00
07FC00
07FF00
003F80
000FC0
0003C0
0003E0
0001E0
0001E0
0001E0
0001E0
0003E0
0003E0
0007C0
701FC0
FFFF80
FFFF00
7FFC00
07C000
ENDCHAR
STARTCHAR 0034
ENCODING 52
SWIDTH 500 0
DWIDTH 25 0
BBX 21 31 2 0
BITMAP
0007C0
000FC0
001FC0
003FC0
003FC0
007BC0
00F3C0
01E3C0
01E3C0
03C3C0
0783C0
0703C0
0F03C0
1E03C0
1E03C0
3C03C0
3803C0
7803C0
7003C0
F003C0
FFFFF8
FFFFF8
FFFFF8
0003C0
0003C0
0003C0
0003C0
0003C0
0003C0
0003C0
0003C0
ENDCHAR
STARTCHAR 0035
ENCODING 53
SWIDTH 500 0
DWIDTH 25 0
BBX 19 32 3 -1
BITMAP
1FFFC0
1FFFC0
1FFFC0
1FFFC0
1E0000
1E0000
1E0000
1E0000
1E0000
1E0000
1C0000
1C0000
1FE000
3FFC00
3FFE00
0FFF80
001F80
0007C0
0003C0
0003E0
0001E0
0001E0
0001E0
0001E0
0001E0
0003E0
0007C0
701FC0
7FFF80
FFFF00
7FFC00
03E000
ENDCHAR
STARTCHAR 0036
ENCODING 54
SWIDTH 500 0
DWIDTH 25 0
BBX 19 32 3 -1
BITMAP
000F80
007F80
01FFC0
03FF00
07E000
0F8000
1F0000
3E0000
3C0000
7C0000
780000
780000
FBFC00
FFFF00
FFFF80
FFBFC0
F007C0
F003E0
F001E0
F001E0
F001E0
F001E0
F001E0
F001E0
F801E0
7803E0
7C03C0
3E07C0
3FFF80
1FFF00
07FE00
00F000
ENDCHAR
STARTCHAR 0037
ENCODING 55
SWIDTH 500 0
DWIDTH 25 0
BBX 20 31 3 0
BITMAP
FFFFF0
FFFFF0
FFFFF0
FFFFF0
0003E0
0003C0
0007C0
000F80
000F00
001F00
001E00
003E00
003C00
007C00
007800
007800
00F800
00F000
01F000
01E000
01E000
01E000
03C000
03C000
03C000
03C000
07C000
078000
078000
078000
078000
ENDCHAR
STARTCHAR 0038
ENCODING 56
SWIDTH 500 0
DWIDTH 25 0
BBX 19 33 3 -1
BITMAP
00E000
07FE00
1FFF00
3FFF80
7E0FC0
7803C0
7803E0
F001E0
F001E0
F001E0
F803E0
7803C0
7C07C0
7E0780
3F9F00
1FFE00
0FFE00
1FFF80
3C1FC0
7807C0
F803E0
F001E0
F001E0
F001E0
F001E0
F001E0
F001E0
F803E0
7C07C0
7FFFC0
3FFF80
0FFE00
01F000
ENDCHAR
STARTCHAR 0039
ENCODING 57
SWIDTH 500 0
DWIDTH 25 0
BBX 19 32 3 0
BITMAP
00E000
0FFC00
1FFF00
3FFF00
7E0F80
7807C0
F803C0
F003E0
F001E0
F001E0
F001E0
F001E0
F001E0
F001E0
F801E0
7C01E0
7FFFE0
3FFFE0
1FFFE0
03F1E0
0003E0
0003C0
0007C0
000780
000F80
001F00
003F00
00FE00
1FFC00
7FF000
7FC000
7E0000
ENDCHAR
STARTCHAR 003A
ENCODING 58
SWIDTH 500 0
DWIDTH 25 0
BBX 7 24 9 -1
BITMAP
7C
FE
FE
FE
FE
FE
7C
00
00
00
00
00
00
00
00
00
38
7E
FE
FE
FE
FE
7C
10
ENDCHAR
STARTCHAR 003B
ENCODING 59
SWIDTH 500 0
DWIDTH 25 0
BBX 10 30 6 -7
BITMAP
0F80
1FC0
1FC0
1FC0
1FC0
1FC0
0F80
0000
0000
0000
0000
0000
0000
0000
0000
0000
0700
0F80
1FC0
1FC0
1FC0
1FC0
0FC0
03C0
0780
0F80
3F00
FE00
7C00
7000
ENDCHAR
STARTCHAR 003C
ENCODING 60
SWIDTH 500 0
DWIDTH 25 0
BBX 21 20 2 3
BITMAP
000010
000070
0001F0
000FF8
003FE0
01FF80
07FC00
1FF000
FF8000
FE0000
FC0000
FF0000
7FE000
0FF800
03FE00
007FC0
001FF0
0007F8
0000F0
000030
ENDCHAR
STARTCHAR 003D
ENCODING 61
SWIDTH 500 0
DWIDTH 25 0
BBX 21 13 2 7
BITMAP
FFFFF8
FFFFF8
FFFFF8
FFFFF8
000000
000000
000000
000000
000000
000000
FFFFF8
FFFFF8
FFFFF8
ENDCHAR
STARTCHAR 003E
ENCODING 62
SWIDTH 500 0
DWIDTH 25 0
BBX 20 19 3 4
BITMAP
E00000
FC0000
FF0000
7FE000
0FF800
03FE00
007FC0
001FF0
0007F0
0001F0
000FF0
003FE0
01FF80
07FC00
1FF000
FF8000
FE0000
F80000
C00000
ENDCHAR
STARTCHAR 003F
ENCODING 63
SWIDTH 500 0
DWIDTH 25 0
BBX 15 33 5 -1
BITMAP
0380
7FF0
FFF8
FFFC
E07E
003E
001E
001E
001E
001E
001E
003C
007C
00F8
01F0
03E0
07C0
0780
0F80
0F00
0F00
0000
0000
0000
0000
0000
0F00
1F80
1FC0
1FC0
1FC0
0F80
0600
ENDCHAR
STARTCHAR 0040
ENCODING 64
SWIDTH 500 0
DWIDTH 25 0
BBX 21 39 2 -7
BITMAP
001C00
01FF80
03FFC0
07FFE0
0F81F0
1F00F0
1E0078
3C0078
3C0078
780078
780078
780FF8
783FF8
F07FF8
F0F878
F0F078
F0F078
F1F078
F1E078
F1E078
F1E078
F1E078
F1E078
F0F078
F0F078
78F878
787E78
783FF8
7C1FF8
3C07E0
3E0000
1E0000
1F0000
0F8000
07E000
03FFE0
01FFE0
00FFE0
000F80
ENDCHAR
STARTCHAR 0041
ENCODING 65
SWIDTH 500 0
DWIDTH 25 0
BBX 23 31 1 0
BITMAP
007C00
00FE00
00FE00
00FE00
01EF00
01EF00
01CF00
03C780
03C780
038780
0783C0
0783C0
0703C0
0F01E0
0F01E0
0F01E0
1E00F0
1E00F0
1E00F0
1FFFF0
3FFFF8
3FFFF8
3FFFF8
78007C
78003C
78003C
78003C
F0003E
F0001E
F0001E
F0001E
ENDCHAR
STARTCHAR 0042
ENCODING 66
SWIDTH 500 0
DWIDTH 25 0
BBX 20 31 3 0
BITMAP
FFF800
FFFE00
FFFF00
F03F80
F00F80
F007C0
F003C0
F003C0
F003C0
F003C0
F007C0
F00780
F01F00
FFFE00
FFFC00
FFFF00
FFFF80
F007C0
F003E0
F001E0
F001E0
F001F0
F001F0
F001E0
F001E0
F003E0
F007E0
F01FC0
FFFF80
FFFF00
FFF800
ENDCHAR
STARTCHAR 0043
ENCODING 67
SWIDTH 500 0
DWIDTH 25 0
BBX 21 33 2 -1
BITMAP
000E00
00FFE0
03FFF8
07FFF0
0FE0F0
1F8010
1F0000
3E0000
3C0000
7C0000
780000
780000
780000
F80000
F80000
F80000
F80000
F80000
F80000
F80000
780000
780000
780000
7C0000
3C0000
3E0000
3F0000
1F8000
0FE070
07FFF8
03FFF8
00FFE0
001C00
ENDCHAR
STARTCHAR 0044
ENCODING 68
SWIDTH 500 0
DWIDTH 25 0
BBX 20 31 3 0
BITMAP
FFE000
FFFC00
FFFE00
F0FF00
F01F80
F007C0
F003C0
F003E0
F001E0
F001E0
F001F0
F001F0
F000F0
F000F0
F000F0
F000F0
F000F0
F000F0
F000F0
F001F0
F001F0
F001E0
F001E0
F003E0
F003C0
F007C0
F01F80
F07F00
FFFE00
FFFC00
FFE000
ENDCHAR
STARTCHAR 0045
ENCODING 69
SWIDTH 500 0
DWIDTH 25 0
BBX 18 31 5 0
BITMAP
FFFF80
FFFF80
FFFF80
FFFF80
F00000
F00000
F00000
F00000
F00000
F00000
F00000
F00000
F00000
FFFE00
FFFE00
FFFE00
FFFE00
F00000
F00000
F00000
F00000
F00000
F00000
F00000
F00000
F00000
F00000
FFFFC0
FFFFC0
FFFFC0
FFFFC0
ENDCHAR
STARTCHAR 0046
ENCODING 70
SWIDTH 500 0
DWIDTH 25 0
BBX 17 31 5 0
BITMAP
FFFF80
FFFF80
FFFF80
FFFF80
F00000
F00000
F00000
F00000
F00000
F00000
F00000
F00000
F00000
FFFF00
FFFF00
FFFF00
FFFF00
F00000
F00000
F00000
F00000
F00000
F00000
F00000
F00000
F00000
F00000
F00000
F00000
F00000
F00000
ENDCHAR
STARTCHAR 0047
ENCODING 71
SWIDTH 500 0
DWIDTH 25 0
BBX 21 33 2 -1
BITMAP
000E00
00FFE0
03FFF8
07FFF0
0FC070
1F8000
1F0000
3E0000
3C0000
7C0000
780000
780000
780000
F80000
F80000
F80000
F80000
F80078
F80078
F80078
780078
780078
780078
7C0078
3C0078
3E0078
3E0078
1F8078
0FC078
07FFF8
03FFF8
01FFF0
001F00
ENDCHAR
STARTCHAR 0048
ENCODING 72
SWIDTH 500 0
DWIDTH 25 0
BBX 21 31 2 0
BITMAP
F00078
F00078
F00078
F00078
F00078
F00078
F00078
F00078
F00078
F00078
F00078
F00078
F00078
FFFFF8
FFFFF8
FFFFF8
FFFFF8
F00078
F00078
F00078
F00078
F00078
F00078
F00078
F00078
F00078
F00078
F00078
F00078
F00078
F00078
ENDCHAR
STARTCHAR 0049
ENCODING 73
SWIDTH 500 0
DWIDTH 25 0
BBX 17 31 4 0
BITMAP
FFFF80
FFFF80
FFFF80
FFFF80
03E000
03E000
03E000
03E000
03E000
03E000
03E000
03E000
03E000
03E000
03E000
03E000
03E000
03E000
03E000
03E000
03E000
03E000
03E000
03E000
03E000
03E000
03E000
FFFF80
FFFF80
FFFF80
FFFF80
ENDCHAR
STARTCHAR 004A
ENCODING 74
SWIDTH 500 0
DWIDTH 25 0
BBX 18 32 3 -1
BITMAP
1FFFC0
1FFFC0
1FFFC0
1FFFC0
0003C0
0003C0
0003C0
0003C0
0003C0
0003C0
0003C0
0003C0
0003C0
0003C0
0003C0
0003C0
0003C0
0003C0
0003C0
0003C0
0003C0
0003C0
0003C0
0003C0
0007C0
000780
400F80
701F80
FFFF00
FFFE00
3FF800
03C000
ENDCHAR
STARTCHAR 004B
ENCODING 75
SWIDTH 500 0
DWIDTH 25 0
BBX 21 31 3 0
BITMAP
F001F0
F001E0
F003E0
F007C0
F00F80
F00F80
F01F00
F03E00
F07C00
F0F800
F1F000
F3F000
F3E000
F7C000
FF8000
FFC000
F7E000
F3F000
F1F800
F0FC00
F07E00
F03F00
F01F00
F00F80
F007C0
F003E0
F003E0
F001F0
F001F0
F000F8
F00078
ENDCHAR
STARTCHAR 004C
ENCODING 76
SWIDTH 500 0
DWIDTH 25 0
BBX 18 31 5 0
BITMAP
F00000
F00000
F00000
F00000
F00000
F00000
F00000
F00000
F00000
F00000
F00000
F00000
F00000
F00000
F00000
F00000
F00000
F00000
F00000
F00000
F00000
F00000
F00000
F00000
F00000
F00000
F00000
FFFFC0
FFFFC0
FFFFC0
FFFFC0
ENDCHAR
STARTCHAR 004D
ENCODING 77
SWIDTH 500 0
DWIDTH 25 0
BBX 21 31 2 0
BITMAP
3C01E0
3C01E0
3C01F0
7E03F0
7E03F0
7E03F0
770770
770770
770770
738E70
738E70
738E70
71DE70
71DC78
F1DC78
F0FC78
F0F878
F0F878
F0F878
F00078
F00078
F00078
F00078
F00078
F00078
F00078
F00078
F00078
F00078
F00078
F00078
ENDCHAR
STARTCHAR 004E
ENCODING 78
SWIDTH 500 0
DWIDTH 25 0
BBX 19 31 3 0
BITMAP
F001E0
F801E0
F801E0
FC01E0
FC01E0
FE01E0
FE01E0
FF01E0
F781E0
F781E0
F3C1E0
F3C1E0
F1E1E0
F1E1E0
F0E1E0
F0F1E0
F071E0
F079E0
F039E0
F03DE0
F01DE0
F01FE0
F01FE0
F00FE0
F00FE0
F007E0
F007E0
F003E0
F003E0
F003E0
F001E0
ENDCHAR
STARTCHAR 004F
ENCODING 79
SWIDTH 500 0
DWIDTH 25 0
BBX 23 33 1 -1
BITMAP
003800
01FF00
07FFC0
0FFFE0
1F83F0
1E01F0
3E00F8
3C0078
7C007C
78003C
78003C
78003C
78003C
78003C
F8003E
F8003E
F8003E
F8003E
F8003E
78003C
78003C
78003C
78003C
78003C
7C007C
3C0078
3E00F8
1E01F0
1F83F0
0FFFE0
07FFC0
01FF00
007800
ENDCHAR
STARTCHAR 0050
ENCODING 80
SWIDTH 500 0
DWIDTH 25 0
BBX 19 31 4 0
BITMAP
FFF800
FFFE00
FFFF00
F03F80
F00FC0
F007C0
F003C0
F003E0
F003E0
F001E0
F003E0
F003E0
F003C0
F003C0
F007C0
F01F80
FFFF00
FFFE00
FFF800
F00000
F00000
F00000
F00000
F00000
F00000
F00000
F00000
F00000
F00000
F00000
F00000
ENDCHAR
STARTCHAR 0051
ENCODING 81
SWIDTH 500 0
DWIDTH 25 0
BBX 23 40 1 -8
BITMAP
001000
01FF00
07FFC0
0FFFE0
1F83F0
1E01F0
3E00F8
3C0078
7C007C
78003C
78003C
78003C
78003C
78003C
F8003E
F8003E
F8003E
F8003E
F8003E
78003C
78003C
78003C
78003C
78003C
7C007C
3C0078
3E00F8
1E01F0
1F83F0
0FFFE0
07FFC0
03FF80
007C00
007C00
003E00
003F00
001FE0
0007F8
0003F8
000078
ENDCHAR
STARTCHAR 0052
ENCODING 82
SWIDTH 500 0
DWIDTH 25 0
BBX 20 31 3 0
BITMAP
FFF800
FFFE00
FFFF00
F03F80
F00F80
F007C0
F003C0
F003C0
F003E0
F003E0
F003E0
F003C0
F003C0
F007C0
F00F80
FFFF00
FFFE00
FFFC00
FFF800
F03C00
F03E00
F01E00
F00F00
F00F00
F00780
F00780
F003C0
F003C0
F001E0
F001E0
F000F0
ENDCHAR
STARTCHAR 0053
ENCODING 83
SWIDTH 500 0
DWIDTH 25 0
BBX 19 33 3 -1
BITMAP
00F000
07FF80
1FFFC0
3FFFC0
3E0380
7C0080
780000
780000
F80000
780000
780000
7C0000
7E0000
3F8000
1FE000
0FF800
03FE00
00FF00
003F80
000FC0
0007E0
0003E0
0001E0
0001E0
0001E0
0001E0
0001E0
4003E0
F00FC0
FFFFC0
FFFF80
3FFE00
03E000
ENDCHAR
STARTCHAR 0054
ENCODING 84
SWIDTH 500 0
DWIDTH 25 0
BBX 21 31 2 0
BITMAP
FFFFF8
FFFFF8
FFFFF8
FFFFF8
00F800
00F800
00F800
00F800
00F800
00F800
00F800
00F800
00F800
00F800
00F800
00F800
00F800
00F800
00F800
00F800
00F800
00F800
00F800
00F800
00F800
00F800
00F800
00F800
00F800
00F800
00F800
ENDCHAR
STARTCHAR 0055
ENCODING 85
SWIDTH 500 0
DWIDTH 25 0
BBX 21 32 2 -1
BITMAP
F800F8
F800F8
F800F8
F800F8
F800F8
F800F8
F800F8
F800F8
F800F8
F800F8
F800F8
F800F8
F800F8
F800F8
F800F8
F800F8
F800F8
F800F8
F800F8
F800F8
F800F8
F800F8
F800F0
7800F0
7800F0
7C01F0
7C01F0
3F07E0
1FFFC0
0FFF80
07FF00
00F000
ENDCHAR
STARTCHAR 0056
ENCODING 86
SWIDTH 500 0
DWIDTH 25 0
BBX 23 31 1 0
BITMAP
F0001E
F0001E
F8001E
F8003E
78003C
78003C
7C003C
3C007C
3C0078
3C0078
3E0078
1E00F0
1E00F0
1E00F0
0F00F0
0F01E0
0F01E0
0701E0
0783C0
0783C0
0783C0
03C780
03C780
03C780
01E700
01EF00
01EF00
00FE00
00FE00
00FE00
007C00
ENDCHAR
STARTCHAR 0057
ENCODING 87
SWIDTH 500 0
DWIDTH 25 0
BBX 21 31 2 0
BITMAP
F00078
F00078
F00078
F00078
F00078
F00078
F00078
F00078
F00078
F00078
F00078
F00078
F0F078
F0F878
F0F878
F1F878
F1DC78
F1DC70
73DC70
738E70
738E70
738E70
770770
770770
770770
7E03F0
7E03F0
7E03F0
7C01E0
3C01E0
3C01E0
ENDCHAR
STARTCHAR 0058
ENCODING 88
SWIDTH 500 0
DWIDTH 25 0
BBX 23 31 1 0
BITMAP
7C003C
3C0078
3E00F8
1E00F0
1F01F0
0F01E0
0F83E0
0783C0
07C7C0
03C780
03EF00
01EF00
00FE00
00FE00
007C00
00FE00
00FE00
01FF00
03EF00
03C780
07C7C0
0783C0
0F83E0
0F01E0
1F01F0
1E00F0
3E00F8
3C0078
7C007C
78003C
F8003E
ENDCHAR
STARTCHAR 0059
ENCODING 89
SWIDTH 500 0
DWIDTH 25 0
BBX 23 31 1 0
BITMAP
F0001E
F8003E
78003C
7C003C
7C007C
3C0078
3E00F8
1E00F0
1F01F0
0F01E0
0F83E0
0783C0
07C780
03C780
01EF00
01EF00
00FE00
00FE00
007C00
007C00
007C00
007C00
007C00
007C00
007C00
007C00
007C00
007C00
007C00
007C00
007C00
ENDCHAR
STARTCHAR 005A
ENCODING 90
SWIDTH 500 0
DWIDTH 25 0
BBX 20 31 3 0
BITMAP
FFFFE0
FFFFE0
FFFFE0
FFFFE0
0003C0
0007C0
000780
000F00
001F00
001E00
003C00
007C00
007800
00F800
01F000
01E000
03E000
03C000
07C000
0F8000
0F0000
1F0000
1E0000
3E0000
3C0000
780000
780000
FFFFF0
FFFFF0
FFFFF0
FFFFF0
ENDCHAR
STARTCHAR 005B
ENCODING 91
SWIDTH 500 0
DWIDTH 25 0
BBX 12 43 7 -8
BITMAP
FFF0
FFF0
FFF0
F000
F000
F000
F000
F000
F000
F000
F000
F000
F000
F000
F000
F000
F000
F000
F000
F000
F000
F000
F000
F000
F000
F000
F000
F000
F000
F000
F000
F000
F000
F000
F000
F000
F000
F000
F000
F000
FFF0
FFF0
FFF0
ENDCHAR
STARTCHAR 005C
ENCODING 92
SWIDTH 500 0
DWIDTH 25 0
BBX 17 43 4 -8
BITMAP
F00000
F00000
F00000
780000
780000
780000
3C0000
3C0000
3C0000
1E0000
1E0000
1E0000
1F0000
0F0000
0F0000
0F8000
078000
078000
07C000
03C000
03C000
03E000
01E000
01E000
01E000
00F000
00F000
00F000
007800
007800
007800
003C00
003C00
003C00
003E00
001E00
001E00
001F00
000F00
000F00
000F80
000780
000780
ENDCHAR
STARTCHAR 005D
ENCODING 93
SWIDTH 500 0
DWIDTH 25 0
BBX 12 43 6 -8
BITMAP
FFF0
FFF0
FFF0
00F0
00F0
00F0
00F0
00F0
00F0
00F0
00F0
00F0
00F0
00F0
00F0
00F0
00F0
00F0
00F0
00F0
00F0
00F0
00F0
00F0
00F0
00F0
00F0
00F0
00F0
00F0
00F0
00F0
00F0
00F0
00F0
00F0
00F0
00F0
00F0
00F0
FFF0
FFF0
FFF0
ENDCHAR
STARTCHAR 005E
ENCODING 94
SWIDTH 500 0
DWIDTH 25 0
BBX 21 17 2 14
BITMAP
00F800
00F800
01FC00
01FC00
03DE00
03DE00
078F00
0F8F80
0F0780
1F07C0
1E03C0
3C01E0
3C01E0
7800F0
F800F8
F00078
300060
ENDCHAR
STARTCHAR 005F
ENCODING 95
SWIDTH 500 0
DWIDTH 25 0
BBX 25 3 0 -8
BITMAP
FFFFFF80
FFFFFF80
FFFFFF80
ENDCHAR
STARTCHAR 0060
ENCODING 96
SWIDTH 500 0
DWIDTH 25 0
BBX 7 8 9 27
BITMAP
60
F0
F0
78
3C
1E
0E
04
ENDCHAR
STARTCHAR 0061
ENCODING 97
SWIDTH 500 0
DWIDTH 25 0
BBX 19 25 3 -1
BITMAP
07F000
3FFE00
3FFF00
1FFF80
000FC0
0007C0
0003C0
0003C0
0003E0
0001E0
07FFE0
1FFFE0
3FFFE0
7F07E0
F801E0
F001E0
F001E0
F001E0
F001E0
F801E0
7C01E0
7FFFE0
3FFFE0
0FFFE0
006000
ENDCHAR
STARTCHAR 0062
ENCODING 98
SWIDTH 500 0
DWIDTH 25 0
BBX 19 36 4 -1
BITMAP
100000
F00000
F00000
F00000
F00000
F00000
F00000
F00000
F00000
F00000
F00000
F1E000
FFFC00
FFFE00
FFFF00
FC1F80
F007C0
F007C0
F003C0
F003E0
F003E0
F001E0
F001E0
F001E0
F001E0
F001E0
F003E0
F003C0
F003C0
F007C0
F00F80
F03F80
FFFF00
FFFE00
FFF800
010000
ENDCHAR
STARTCHAR 0063
ENCODING 99
SWIDTH 500 0
DWIDTH 25 0
BBX 20 25 2 -1
BITMAP
003F80
01FFF0
07FFF0
0FFFF0
1FC020
3F0000
3E0000
7C0000
780000
780000
780000
F80000
F80000
F80000
780000
780000
780000
7C0000
3E0000
3F0000
1FE030
0FFFF0
07FFF0
01FFF0
001C00
ENDCHAR
STARTCHAR 0064
ENCODING 100
SWIDTH 500 0
DWIDTH 25 0
BBX 19 35 2 0
BITMAP
0001E0
0001E0
0001E0
0001E0
0001E0
0001E0
0001E0
0001E0
0001E0
0001E0
00F1E0
07FFE0
0FFFE0
1FFFE0
3F07E0
7C01E0
7C01E0
7801E0
F801E0
F801E0
F001E0
F001E0
F001E0
F001E0
F001E0
F801E0
F801E0
7801E0
7C01E0
3E01E0
3F81E0
1FFFE0
0FFFE0
03FFE0
001000
ENDCHAR
STARTCHAR 0065
ENCODING 101
SWIDTH 500 0
DWIDTH 25 0
BBX 21 25 2 -1
BITMAP
007C00
03FF00
0FFFC0
1FFFC0
3F03E0
3E01F0
7C00F0
7800F0
F800F0
F00078
FFFFF8
FFFFF8
FFFFF8
FFFFF8
F00000
F00000
F80000
780000
7C0000
3E0000
3FC0E0
1FFFE0
07FFE0
03FFE0
003800
ENDCHAR
STARTCHAR 0066
ENCODING 102
SWIDTH 500 0
DWIDTH 25 0
BBX 21 35 3 0
BITMAP
000600
007FF8
00FFF8
01FFF8
03F038
03C000
07C000
078000
078000
078000
078000
078000
FFFFE0
FFFFE0
FFFFE0
078000
078000
078000
078000
078000
078000
078000
078000
078000
078000
078000
078000
078000
078000
078000
078000
078000
078000
078000
078000
ENDCHAR
STARTCHAR 0067
ENCODING 103
SWIDTH 500 0
DWIDTH 25 0
BBX 19 32 2 -8
BITMAP
00FC00
07FFE0
0FFFE0
1FFFE0
3F01E0
7C01E0
7C01E0
7801E0
F801E0
F001E0
F001E0
F001E0
F001E0
F001E0
F001E0
F801E0
7801E0
7C01E0
7E03E0
3FFFE0
1FFFE0
0FFFE0
03FDE0
0001E0
0001E0
0001E0
0003E0
0003E0
381FC0
3FFF80
7FFF00
3FFC00
ENDCHAR
STARTCHAR 0068
ENCODING 104
SWIDTH 500 0
DWIDTH 25 0
BBX 18 35 4 0
BITMAP
100000
F00000
F00000
F00000
F00000
F00000
F00000
F00000
F00000
F00000
F00000
F3E000
FFFC00
FFFE00
FFFF00
F01F00
F00F80
F00780
F00780
F00780
F007C0
F007C0
F007C0
F007C0
F007C0
F007C0
F007C0
F007C0
F007C0
F007C0
F007C0
F007C0
F007C0
F007C0
F007C0
ENDCHAR
STARTCHAR 0069
ENCODING 105
SWIDTH 500 0
DWIDTH 25 0
BBX 19 35 3 -1
BITMAP
010000
07C000
0FC000
0FE000
0FE000
07C000
07C000
000000
000000
000000
000000
FFE000
FFE000
FFE000
03E000
03E000
03E000
03E000
03E000
03E000
03E000
03E000
03E000
03E000
03E000
03E000
03E000
03E000
01E000
01E000
01F860
00FFE0
00FFE0
007FE0
000E00
ENDCHAR
STARTCHAR 006A
ENCODING 106
SWIDTH 500 0
DWIDTH 25 0
BBX 15 43 4 -9
BITMAP
0010
007C
00FC
00FE
00FE
007C
0078
0000
0000
0000
0000
3FFE
3FFE
3FFE
001E
001E
001E
001E
001E
001E
001E
001E
001E
001E
001E
001E
001E
001E
001E
001E
001E
001E
001E
001E
001E
001E
001E
003E
F0FC
FFFC
FFF8
7FE0
0200
ENDCHAR
STARTCHAR 006B
ENCODING 107
SWIDTH 500 0
DWIDTH 25 0
BBX 20 35 4 0
BITMAP
100000
F00000
F00000
F00000
F00000
F00000
F00000
F00000
F00000
F00000
F00000
F00000
F003E0
F007C0
F00F80
F01E00
F07C00
F0F800
F1F000
F3E000
F7C000
FF8000
FF0000
FF8000
F7E000
F3F000
F1F800
F0FC00
F07E00
F03F00
F01F80
F00F80
F007C0
F003E0
F001F0
ENDCHAR
STARTCHAR 006C
ENCODING 108
SWIDTH 500 0
DWIDTH 25 0
BBX 19 35 3 -1
BITMAP
FFE000
FFE000
FFE000
03E000
03E000
03E000
03E000
03E000
03E000
03E000
03E000
03E000
03E000
03E000
03E000
03E000
03E000
03E000
03E000
03E000
03E000
03E000
03E000
03E000
03E000
03E000
03E000
03E000
01E000
01E000
01F060
00FFE0
00FFE0
007FE0
000E00
ENDCHAR
STARTCHAR 006D
ENCODING 109
SWIDTH 500 0
DWIDTH 25 0
BBX 21 24 2 0
BITMAP
1E0300
FFDFE0
FFFFF0
FFFFF0
F0F8F8
F0F078
F07078
F07878
F07878
F07878
F07878
F07878
F07878
F07878
F07878
F00078
F00078
F00078
F00078
F00078
F00078
F00078
F00078
F00078
ENDCHAR
STARTCHAR 006E
ENCODING 110
SWIDTH 500 0
DWIDTH 25 0
BBX 18 24 4 0
BITMAP
07E000
FFFC00
FFFE00
FFFF00
F01F00
F00F80
F00780
F00780
F007C0
F007C0
F007C0
F007C0
F007C0
F007C0
F007C0
F007C0
F007C0
F007C0
F007C0
F007C0
F007C0
F007C0
F007C0
F007C0
ENDCHAR
STARTCHAR 006F
ENCODING 111
SWIDTH 500 0
DWIDTH 25 0
BBX 21 25 2 -1
BITMAP
00F800
03FE00
0FFF80
1FFFC0
3F07E0
3E03E0
7C01F0
7800F0
F800F8
F800F8
F00078
F00078
F00078
F00078
F00078
F800F8
F800F0
7800F0
7C01F0
3E03E0
3F8FE0
1FFFC0
0FFF80
03FE00
003000
ENDCHAR
STARTCHAR 0070
ENCODING 112
SWIDTH 500 0
DWIDTH 25 0
BBX 19 32 4 -8
BITMAP
0FC000
FFF800
FFFE00
FFFF00
F01F80
F00F80
F007C0
F003C0
F003E0
F003E0
F001E0
F001E0
F001E0
F001E0
F001E0
F003E0
F003E0
F003C0
F007C0
F00F80
FC1F80
FFFF00
FFFE00
FFFC00
F04000
F00000
F00000
F00000
F00000
F00000
F00000
F00000
ENDCHAR
STARTCHAR 0071
ENCODING 113
SWIDTH 500 0
DWIDTH 25 0
BBX 19 32 2 -8
BITMAP
007A00
03FFE0
0FFFE0
1FFFE0
3F01E0
3E01E0
7C01E0
7801E0
F801E0
F801E0
F001E0
F001E0
F001E0
F001E0
F001E0
F801E0
F801E0
7801E0
7C01E0
3E01E0
3F07E0
1FFFE0
0FFFE0
03FFE0
0001E0
0001E0
0001E0
0001E0
0001E0
0001E0
0001E0
0001E0
ENDCHAR
STARTCHAR 0072
ENCODING 114
SWIDTH 500 0
DWIDTH 25 0
BBX 17 24 5 0
BITMAP
00FC00
3FFF80
FFFF80
FFFF00
FC0000
F00000
F00000
F00000
F00000
F00000
F00000
F00000
F00000
F00000
F00000
F00000
F00000
F00000
F00000
F00000
F00000
F00000
F00000
F00000
ENDCHAR
STARTCHAR 0073
ENCODING 115
SWIDTH 500 0
DWIDTH 25 0
BBX 19 25 3 -1
BITMAP
00FC00
0FFFC0
1FFF80
3FFF80
7C0080
780000
780000
780000
7C0000
7F0000
3FC000
1FF800
07FE00
01FF00
003F80
0007C0
0003E0
0003E0
0001E0
4003E0
7807C0
7FFFC0
FFFF80
3FFE00
028000
ENDCHAR
STARTCHAR 0074
ENCODING 116
SWIDTH 500 0
DWIDTH 25 0
BBX 19 31 3 -1
BITMAP
078000
078000
078000
078000
078000
078000
078000
FFFFE0
FFFFE0
FFFFE0
078000
078000
078000
078000
078000
078000
078000
078000
078000
078000
078000
078000
078000
078000
07C000
07C000
03E060
03FFE0
01FFE0
00FFE0
000400
ENDCHAR
STARTCHAR 0075
ENCODING 117
SWIDTH 500 0
DWIDTH 25 0
BBX 18 24 3 -1
BITMAP
F803C0
F803C0
F803C0
F803C0
F803C0
F803C0
F803C0
F803C0
F803C0
F803C0
F803C0
F803C0
F803C0
F803C0
F803C0
7803C0
7803C0
7803C0
7C03C0
3F03C0
3FFFC0
1FFFC0
07FFC0
006000
ENDCHAR
STARTCHAR 0076
ENCODING 118
SWIDTH 500 0
DWIDTH 25 0
BBX 21 23 2 0
BITMAP
F00078
F00078
F800F8
7800F0
7800F0
7C01F0
3C01E0
3C01E0
3E03E0
1E03C0
1E03C0
1F0780
0F0780
0F8F80
078F00
078F00
07DE00
03DE00
03FC00
01FC00
01F800
00F800
00F800
ENDCHAR
STARTCHAR 0077
ENCODING 119
SWIDTH 500 0
DWIDTH 25 0
BBX 23 23 1 0
BITMAP
F0001E
F0001E
F0001E
F0001E
F0001E
70381C
703C1C
787C1C
787C3C
787C3C
78FE3C
78EE3C
38EE38
39CF38
3DC738
3DC778
3F83F8
3F83F0
1F83F0
1F01F0
1F01F0
1E00F0
0E00E0
ENDCHAR
STARTCHAR 0078
ENCODING 120
SWIDTH 500 0
DWIDTH 25 0
BBX 21 23 2 0
BITMAP
F800F0
7C01F0
3E01E0
1E03C0
1F07C0
0F8F80
07CF00
03DE00
03FE00
01FC00
00F800
00FC00
01FE00
03FE00
07DF00
0F8F80
0F07C0
1E03C0
3E03E0
3C01F0
7800F0
F800F8
F00078
ENDCHAR
STARTCHAR 0079
ENCODING 121
SWIDTH 500 0
DWIDTH 25 0
BBX 21 31 2 -8
BITMAP
780078
7800F8
7C00F0
7C00F0
3C00F0
3C01F0
3E01E0
1E01E0
1E01E0
1F03C0
0F03C0
0F83C0
078780
078780
03C780
03CF00
03EF00
01EF00
01EE00
00FE00
00FE00
007C00
007C00
003800
007800
00F000
00F000
83E000
FFC000
FF8000
FF0000
ENDCHAR
STARTCHAR 007A
ENCODING 122
SWIDTH 500 0
DWIDTH 25 0
BBX 17 23 4 0
BITMAP
FFFF80
FFFF80
FFFF80
001F00
001F00
003E00
007C00
00F800
00F000
01F000
03E000
07C000
078000
0F8000
1F0000
1E0000
3E0000
7C0000
780000
FFFF80
FFFF80
FFFF80
FFFF80
ENDCHAR
STARTCHAR 007B
ENCODING 123
SWIDTH 500 0
DWIDTH 25 0
BBX 17 43 4 -8
BITMAP
003F80
00FF80
01FF80
03F000
03C000
03C000
078000
078000
078000
078000
078000
078000
078000
078000
078000
078000
078000
078000
078000
0F0000
FF0000
FC0000
FE0000
1F0000
0F8000
078000
078000
078000
078000
078000
078000
078000
078000
078000
078000
078000
078000
038000
03C000
03E000
03FF80
01FF80
007F80
ENDCHAR
STARTCHAR 007C
ENCODING 124
SWIDTH 500 0
DWIDTH 25 0
BBX 3 43 11 -8
BITMAP
E0
E0
E0
E0
E0
E0
E0
E0
E0
E0
E0
E0
E0
E0
E0
E0
E0
E0
E0
E0
E0
E0
E0
E0
E0
E0
E0
E0
E0
E0
E0
E0
E0
E0
E0
E0
E0
E0
E0
E0
E0
E0
E0
ENDCHAR
STARTCHAR 007D
ENCODING 125
SWIDTH 500 0
DWIDTH 25 0
BBX 17 43 4 -8
BITMAP
FE0000
FF8000
FFC000
07E000
01E000
01F000
00F000
00F000
00F000
00F000
00F000
00F000
00F000
00F000
00F000
00F000
00F000
00F000
00F000
007800
003F80
001F80
003F80
007C00
00F800
00F000
00F000
00F000
00F000
00F000
00F000
00F000
00F000
00F000
00F000
00F000
00F000
00F000
01E000
03E000
FFE000
FFC000
FF0000
ENDCHAR
STARTCHAR 007E
ENCODING 126
SWIDTH 500 0
DWIDTH 25 0
BBX 21 7 2 9
BITMAP
0F0000
3FC038
7FF078
7FF878
F0FFF0
E03FE0
E00FC0
ENDCHAR
STARTCHAR 00A0
ENCODING 160
SWIDTH 500 0
DWIDTH 25 0
BBX 0 0 0 0
BITMAP
ENDCHAR
STARTCHAR 00A1
ENCODING 161
SWIDTH 500 0
DWIDTH 25 0
BBX 7 31 9 -8
BITMAP
7C
FC
FE
FE
FE
7C
10
00
00
00
00
38
38
38
38
78
78
7C
7C
7C
7C
7C
7C
7C
7C
7C
7C
7C
7C
7C
7C
ENDCHAR
STARTCHAR 00A2
ENCODING 162
SWIDTH 500 0
DWIDTH 25 0
BBX 21 36 2 -5
BITMAP
001C00
001C00
001C00
001C00
001C00
001C00
003F80
01FFF0
07FFF0
0FFFE0
1F8020
3E0000
3C0000
7C0000
780000
780000
F80000
F80000
F80000
F80000
780000
780000
7C0000
3C0000
3F0000
1FC010
0FFFF0
07FFF0
01FFF8
003F00
001C00
001C00
001C00
001C00
001C00
001C00
ENDCHAR
STARTCHAR 00A3
ENCODING 163
SWIDTH 500 0
DWIDTH 25 0
BBX 21 32 2 0
BITMAP
000200
007FE0
01FFF0
03FFE0
03F060
07C000
078000
078000
078000
0F8000
0F8000
0F8000
0F8000
0F8000
0F8000
FFFF80
FFFF80
FFFF80
FFFF80
0F0000
0F0000
0F0000
0F0000
0F0000
0F0000
0F0000
0F0000
0F0000
0FFFF8
0FFFF8
1FFFF8
1FFFF8
ENDCHAR
STARTCHAR 00A4
ENCODING 164
SWIDTH 500 0
DWIDTH 25 0
BBX 21 21 2 5
BITMAP
200020
700070
F9FCF8
7FFFF0
3FFFE0
1F07C0
1E03C0
3C01E0
3C01E0
3800E0
3800E0
3800E0
3C01E0
3C01E0
1E03C0
1F07C0
3FFFE0
7FFFF0
F9FCF8
700070
200020
ENDCHAR
STARTCHAR 00A5
ENCODING 165
SWIDTH 500 0
DWIDTH 25 0
BBX 23 31 1 0
BITMAP
F0001E
F8003E
78003C
7C007C
3C0078
1E00F0
1E00F0
0F01E0
0F81E0
0783C0
07C3C0
03C780
01EF00
01FF00
00FE00
3FFFF8
3FFFF8
3FFFF8
3FFFF8
007C00
007C00
007C00
007C00
3FFFF8
3FFFF8
3FFFF8
007C00
007C00
007C00
007C00
007C00
ENDCHAR
STARTCHAR 00A6
ENCODING 166
SWIDTH 500 0
DWIDTH 25 0
BBX 3 43 11 -8
BITMAP
E0
E0
E0
E0
E0
E0
E0
E0
E0
E0
E0
E0
E0
E0
E0
E0
E0
00
00
00
00
00
00
00
00
00
E0
E0
E0
E0
E0
E0
E0
E0
E0
E0
E0
E0
E0
E0
E0
E0
E0
ENDCHAR
STARTCHAR 00A7
ENCODING 167
SWIDTH 500 0
DWIDTH 25 0
BBX 19 37 3 -5
BITMAP
007000
07FF80
0FFF80
1FFF80
3E0180
3C0000
3C0000
3C0000
3C0000
3F0000
1FC000
0FF800
1FFE00
3FFF00
3C3F80
780FC0
7003C0
F003C0
F001E0
F801C0
7803C0
7E03C0
3F8780
1FFF80
0FFE00
01FE00
003F00
000F80
000780
0007C0
0003C0
0007C0
600780
7FFF80
7FFF00
7FFE00
07F000
ENDCHAR
STARTCHAR 00A8
ENCODING 168
SWIDTH 500 0
DWIDTH 25 0
BBX 13 6 6 27
BITMAP
6030
F0F8
F8F8
F8F8
F078
2020
ENDCHAR
STARTCHAR 00A9
ENCODING 169
SWIDTH 500 0
DWIDTH 25 0
BBX 21 25 2 -1
BITMAP
00F800
03FF00
0FFF80
1F07C0
3C01E0
7800F0
707870
F1FC78
E3FC38
E3C038
E78038
E70038
E70038
E70038
E78038
E3C438
E3FC38
71FC70
707870
7800E0
3C01E0
1F07C0
0FFF80
03FE00
002000
ENDCHAR
STARTCHAR 00AA
ENCODING 170
SWIDTH 500 0
DWIDTH 25 0
BBX 13 16 6 16
BITMAP
3FE0
3FF0
39F8
0078
0038
0038
0FF8
3FF8
7FF8
F038
E038
E038
E038
FC78
7FF8
3FF8
ENDCHAR
STARTCHAR 00AB
ENCODING 171
SWIDTH 500 0
DWIDTH 25 0
BBX 18 17 3 5
BITMAP
070380
070380
0F0780
1E0F00
1E0F00
3C1E00
7C3E00
783C00
F87C00
783C00
3C1E00
3C1E00
1E0F00
0E0700
0F0780
0783C0
020100
ENDCHAR
STARTCHAR 00AC
ENCODING 172
SWIDTH 500 0
DWIDTH 25 0
BBX 21 15 2 2
BITMAP
FFFFF8
FFFFF8
FFFFF8
000078
000078
000078
000078
000078
000078
000078
000078
000078
000078
000078
000078
ENDCHAR
STARTCHAR 00AD
ENCODING 173
SWIDTH 500 0
DWIDTH 25 0
BBX 11 4 7 11
BITMAP
FFE0
FFE0
FFE0
FFE0
ENDCHAR
STARTCHAR 00AE
ENCODING 174
SWIDTH 500 0
DWIDTH 25 0
BBX 21 25 2 -1
BITMAP
00F800
03FF00
0FFF80
1F07C0
3C01E0
7800F0
71F070
F3FC78
E3FE38
E38E38
E38638
E38E38
E3FE38
E3FC38
E3FC38
E39C38
E38E38
738E70
738770
7800E0
3C01E0
1F07C0
0FFF80
03FE00
002000
ENDCHAR
STARTCHAR 00AF
ENCODING 175
SWIDTH 500 0
DWIDTH 25 0
BBX 13 3 6 29
BITMAP
FFF8
FFF8
FFF8
ENDCHAR
STARTCHAR 00B0
ENCODING 176
SWIDTH 500 0
DWIDTH 25 0
BBX 13 13 6 22
BITMAP
0200
1FC0
3FE0
78F0
7070
E038
E038
E038
7070
78F0
3FE0
1FC0
0700
ENDCHAR
STARTCHAR 00B1
ENCODING 177
SWIDTH 500 0
DWIDTH 25 0
BBX 21 28 2 0
BITMAP
007000
007000
007000
007000
007000
007000
007000
007000
007000
FFFFF8
FFFFF8
FFFFF8
FFFFF8
007000
007000
007000
007000
007000
007000
007000
007000
007000
000000
000000
FFFFF8
FFFFF8
FFFFF8
FFFFF8
ENDCHAR
STARTCHAR 00B2
ENCODING 178
SWIDTH 500 0
DWIDTH 25 0
BBX 13 18 6 14
BITMAP
0E00
3FC0
FFE0
70F0
4070
0070
0070
00E0
01E0
03C0
0780
0F00
1E00
3C00
7800
7FF8
7FF8
7FF8
ENDCHAR
STARTCHAR 00B3
ENCODING 179
SWIDTH 500 0
DWIDTH 25 0
BBX 13 18 6 14
BITMAP
0E00
7FC0
7FE0
71F0
0070
0070
00E0
07E0
0F80
0FE0
01F0
0070
0078
0078
0070
7FF0
FFE0
7FC0
ENDCHAR
STARTCHAR 00B4
ENCODING 180
SWIDTH 500 0
DWIDTH 25 0
BBX 7 8 9 27
BITMAP
0C
1E
1E
3C
78
F0
E0
40
ENDCHAR
STARTCHAR 00B5
ENCODING 181
SWIDTH 500 0
DWIDTH 25 0
BBX 17 31 4 -8
BITMAP
F00780
F00780
F00780
F00780
F00780
F00780
F00780
F00780
F00780
F00780
F00780
F00780
F00780
F00780
F00780
F00780
F00780
F80780
F80780
FE0780
FFFF80
FFFF80
FFFF80
F0A000
F00000
F00000
F00000
F00000
F00000
F00000
F00000
ENDCHAR
STARTCHAR 00B6
ENCODING 182
SWIDTH 500 0
DWIDTH 25 0
BBX 21 39 1 -8
BITMAP
00FFF8
07FFF8
0FFFF8
1FFC38
3FFC38
7FFC38
7FFC38
7FFC38
FFFC38
FFFC38
FFFC38
7FFC38
7FFC38
7FFC38
7FFC38
3FFC38
1FFC38
0FFC38
03FC38
003C38
003C38
003C38
003C38
003C38
003C38
003C38
003C38
003C38
003C38
003C38
003C38
003C38
003C38
003C38
003C38
003C38
003C38
003C38
003C38
ENDCHAR
STARTCHAR 00B7
ENCODING 183
SWIDTH 500 0
DWIDTH 25 0
BBX 7 8 9 9
BITMAP
38
7C
FE
FE
FE
FE
7C
38
ENDCHAR
STARTCHAR 00B8
ENCODING 184
SWIDTH 500 0
DWIDTH 25 0
BBX 8 9 8 -8
BITMAP
0E
1C
1C
3E
1F
0F
8F
FF
FE
ENDCHAR
STARTCHAR 00B9
ENCODING 185
SWIDTH 500 0
DWIDTH 25 0
BBX 13 17 6 14
BITMAP
0380
0F80
3F80
FF80
7380
4380
0380
0380
0380
0380
0380
0380
0380
0380
7FF8
7FF8
7FF8
ENDCHAR
STARTCHAR 00BA
ENCODING 186
SWIDTH 500 0
DWIDTH 25 0
BBX 17 17 4 15
BITMAP
01C000
0FF800
1FFC00
3F7E00
780F00
780F00
700700
F00700
F00780
F00780
700700
700700
780F00
3C1E00
3FFE00
1FFC00
07F000
ENDCHAR
STARTCHAR 00BB
ENCODING 187
SWIDTH 500 0
DWIDTH 25 0
BBX 18 17 4 5
BITMAP
703800
703800
783C00
3C1E00
3C1E00
1E0F00
1F0F80
0F0780
0F87C0
0F0780
1E0F00
1E0F00
3C1E00
783C00
783C00
F07800
201000
ENDCHAR
STARTCHAR 00BC
ENCODING 188
SWIDTH 500 0
DWIDTH 25 0
BBX 23 31 1 0
BITMAP
0E001E
1E003C
7E0038
FE0078
EE0070
0E00F0
0E01E0
0E01C0
0E03C0
0E0380
0E0700
0E0F00
000E00
001E00
003C00
003800
007800
007000
00F078
01E0F8
01C1F8
03C1B8
0383B8
070738
0F0738
0E0E38
1E0FFE
1C0FFE
380FFE
780038
700038
ENDCHAR
STARTCHAR 00BD
ENCODING 189
SWIDTH 500 0
DWIDTH 25 0
BBX 23 31 1 0
BITMAP
07001C
1F0038
7F0078
FF0070
6700F0
0701E0
0701C0
0703C0
070380
070780
070F00
070E00
001E00
001C00
003800
007800
007000
00F000
01E1F0
01C3FC
03C3FC
03821E
07800E
0F001C
0E003C
1E0078
1C01F0
3803C0
7807FE
7007FE
F007FE
ENDCHAR
STARTCHAR 00BE
ENCODING 190
SWIDTH 500 0
DWIDTH 25 0
BBX 23 32 1 0
BITMAP
1C0000
FF001E
7F801C
038038
038078
3F0070
3F00F0
3F81E0
03C1C0
01C3C0
03C380
FF8780
FF0F00
380E00
001E00
001C00
003C00
007800
007000
00F078
00E0F8
01C1F8
03C1B8
0383B8
078738
0F0738
0E0E38
1E0FFE
1C0FFE
3C0FFE
780038
700038
ENDCHAR
STARTCHAR 00BF
ENCODING 191
SWIDTH 500 0
DWIDTH 25 0
BBX 15 32 5 -9
BITMAP
01E0
03F0
07F0
07F0
03F0
03E0
0080
0000
0000
0000
0000
01E0
01E0
01E0
03C0
07C0
0F80
1F00
3E00
7C00
7800
F800
F000
F000
F000
F000
F800
FC0E
7FFE
3FFE
1FFC
0180
ENDCHAR
STARTCHAR 00C0
ENCODING 192
SWIDTH 500 0
DWIDTH 25 0
BBX 23 41 1 1
BITMAP
006000
00F000
00F000
007800
003C00
001E00
000F00
000400
000000
000000
007C00
00FE00
00FE00
00FE00
01EF00
01EF00
01CF00
03C780
03C780
038780
0783C0
0783C0
0703C0
0F01E0
0F01E0
0F01E0
1E00F0
1E00F0
1E00F0
1FFFF0
3FFFF8
3FFFF8
3FFFF8
78007C
78003C
78003C
78003C
F0003E
F0001E
F0001E
F0001E
ENDCHAR
STARTCHAR 00C1
ENCODING 193
SWIDTH 500 0
DWIDTH 25 0
BBX 23 41 1 1
BITMAP
000C00
001E00
001E00
003C00
007800
00F000
01E000
004000
000000
000000
007C00
00FE00
00FE00
00FE00
01EF00
01EF00
01CF00
03C780
03C780
038780
0783C0
0783C0
0703C0
0F01E0
0F01E0
0F01E0
1E00F0
1E00F0
1E00F0
1FFFF0
3FFFF8
3FFFF8
3FFFF8
78007C
78003C
78003C
78003C
F0003E
F0001E
F0001E
F0001E
ENDCHAR
STARTCHAR 00C2
ENCODING 194
SWIDTH 500 0
DWIDTH 25 0
BBX 23 41 1 0
BITMAP
001000
003800
007C00
00FE00
01EF00
03C780
038380
010100
000000
000000
007C00
00FE00
00FE00
00FE00
01EF00
01EF00
01CF00
03C780
03C780
038780
0783C0
0783C0
0703C0
0F01E0
0F01E0
0F01E0
1E00F0
1E00F0
1E00F0
1FFFF0
3FFFF8
3FFFF8
3FFFF8
78007C
78003C
78003C
78003C
F0003E
F0001E
F0001E
F0001E
ENDCHAR
STARTCHAR 00C3
ENCODING 195
SWIDTH 500 0
DWIDTH 25 0
BBX 23 40 1 0
BITMAP
000080
01F1C0
03FFC0
07FF80
061F00
020000
000000
000000
000000
007C00
00FE00
00FE00
00FE00
01EF00
01EF00
01CF00
03C780
03C780
038780
0783C0
0783C0
0703C0
0F01E0
0F01E0
0F01E0
1E00F0
1E00F0
1E00F0
1FFFF0
3FFFF8
3FFFF8
3FFFF8
78007C
78003C
78003C
78003C
F0003E
F0001E
F0001E
F0001E
ENDCHAR
STARTCHAR 00C4
ENCODING 196
SWIDTH 500 0
DWIDTH 25 0
BBX 23 40 1 0
BITMAP
030180
0783C0
07C7C0
07C7C0
0783C0
010000
000000
000000
000000
007C00
00FE00
00FE00
00FE00
01EF00
01EF00
01CF00
03C780
03C780
038780
0783C0
0783C0
0703C0
0F01E0
0F01E0
0F01E0
1E00F0
1E00F0
1E00F0
1FFFF0
3FFFF8
3FFFF8
3FFFF8
78007C
78003C
78003C
78003C
F0003E
F0001E
F0001E
F0001E
ENDCHAR
STARTCHAR 00C5
ENCODING 197
SWIDTH 500 0
DWIDTH 25 0
BBX 23 37 1 0
BITMAP
007C00
00FE00
01C700
018300
018300
01C300
00EE00
00FE00
00FE00
00FE00
01EF00
01EF00
01CF00
03C780
03C780
038780
0783C0
0783C0
0703C0
0F01E0
0F01E0
0F01E0
1E00F0
1E00F0
1E00F0
1FFFF0
3FFFF8
3FFFF8
3FFFF8
78007C
78003C
78003C
78003C
F0003E
F0001E
F0001E
F0001E
ENDCHAR
STARTCHAR 00C6
ENCODING 198
SWIDTH 500 0
DWIDTH 25 0
BBX 23 31 1 0
BITMAP
003FFC
007FFC
007FFC
007FFC
00FF00
00EF00
00EF00
01EF00
01CF00
01CF00
03CF00
038F00
038F00
078FF8
078FF8
070FF8
0F0FF8
0F0F00
0E0F00
1FFF00
1FFF00
1FFF00
1FFF00
3C0F00
3C0F00
3C0F00
380F00
780FFE
780FFE
780FFE
F80FFE
ENDCHAR
STARTCHAR 00C7
ENCODING 199
SWIDTH 500 0
DWIDTH 25 0
BBX 21 40 2 -8
BITMAP
000E00
00FFE0
03FFF8
07FFF0
0FE0F0
1F8010
1F0000
3E0000
3C0000
7C0000
780000
780000
780000
F80000
F80000
F80000
F80000
F80000
F80000
F80000
780000
780000
780000
7C0000
3C0000
3E0000
3F0000
1F8000
0FE070
07FFF8
03FFF8
00FFE0
001E00
001C00
001E00
000F00
000700
008F00
00FF00
00FE00
ENDCHAR
STARTCHAR 00C8
ENCODING 200
SWIDTH 500 0
DWIDTH 25 0
BBX 18 42 5 0
BITMAP
020000
060000
070000
0F8000
07C000
03E000
01E000
00F000
006000
000000
000000
FFFF80
FFFF80
FFFF80
FFFF80
F00000
F00000
F00000
F00000
F00000
F00000
F00000
F00000
F00000
FFFE00
FFFE00
FFFE00
FFFE00
F00000
F00000
F00000
F00000
F00000
F00000
F00000
F00000
F00000
F00000
FFFFC0
FFFFC0
FFFFC0
FFFFC0
ENDCHAR
STARTCHAR 00C9
ENCODING 201
SWIDTH 500 0
DWIDTH 25 0
BBX 18 42 5 0
BITMAP
002000
003000
007800
00F800
01F000
03E000
03C000
078000
030000
000000
000000
FFFF80
FFFF80
FFFF80
FFFF80
F00000
F00000
F00000
F00000
F00000
F00000
F00000
F00000
F00000
FFFE00
FFFE00
FFFE00
FFFE00
F00000
F00000
F00000
F00000
F00000
F00000
F00000
F00000
F00000
F00000
FFFFC0
FFFFC0
FFFFC0
FFFFC0
ENDCHAR
STARTCHAR 00CA
ENCODING 202
SWIDTH 500 0
DWIDTH 25 0
BBX 18 41 5 0
BITMAP
008000
01C000
03E000
07F000
0F7800
1E3C00
1C1C00
080800
000000
000000
FFFF80
FFFF80
FFFF80
FFFF80
F00000
F00000
F00000
F00000
F00000
F00000
F00000
F00000
F00000
FFFE00
FFFE00
FFFE00
FFFE00
F00000
F00000
F00000
F00000
F00000
F00000
F00000
F00000
F00000
F00000
FFFFC0
FFFFC0
FFFFC0
FFFFC0
ENDCHAR
STARTCHAR 00CB
ENCODING 203
SWIDTH 500 0
DWIDTH 25 0
BBX 18 40 5 0
BITMAP
180C00
3C3E00
3E3E00
3E3E00
3C1E00
000800
000000
000000
000000
FFFF80
FFFF80
FFFF80
FFFF80
F00000
F00000
F00000
F00000
F00000
F00000
F00000
F00000
F00000
FFFE00
FFFE00
FFFE00
FFFE00
F00000
F00000
F00000
F00000
F00000
F00000
F00000
F00000
F00000
F00000
FFFFC0
FFFFC0
FFFFC0
FFFFC0
ENDCHAR
STARTCHAR 00CC
ENCODING 204
SWIDTH 500 0
DWIDTH 25 0
BBX 17 41 4 1
BITMAP
030000
078000
07C000
03C000
01E000
00F000
007800
003000
000000
000000
FFFF80
FFFF80
FFFF80
FFFF80
03E000
03E000
03E000
03E000
03E000
03E000
03E000
03E000
03E000
03E000
03E000
03E000
03E000
03E000
03E000
03E000
03E000
03E000
03E000
03E000
03E000
03E000
03E000
FFFF80
FFFF80
FFFF80
FFFF80
ENDCHAR
STARTCHAR 00CD
ENCODING 205
SWIDTH 500 0
DWIDTH 25 0
BBX 17 41 4 1
BITMAP
003000
007800
00F800
01F000
01E000
03C000
078000
030000
000000
000000
FFFF80
FFFF80
FFFF80
FFFF80
03E000
03E000
03E000
03E000
03E000
03E000
03E000
03E000
03E000
03E000
03E000
03E000
03E000
03E000
03E000
03E000
03E000
03E000
03E000
03E000
03E000
03E000
03E000
FFFF80
FFFF80
FFFF80
FFFF80
ENDCHAR
STARTCHAR 00CE
ENCODING 206
SWIDTH 500 0
DWIDTH 25 0
BBX 17 41 4 0
BITMAP
008000
01C000
03E000
07F000
0F7800
1E3C00
1C1C00
080800
000000
000000
FFFF80
FFFF80
FFFF80
FFFF80
03E000
03E000
03E000
03E000
03E000
03E000
03E000
03E000
03E000
03E000
03E000
03E000
03E000
03E000
03E000
03E000
03E000
03E000
03E000
03E000
03E000
03E000
03E000
FFFF80
FFFF80
FFFF80
FFFF80
ENDCHAR
STARTCHAR 00CF
ENCODING 207
SWIDTH 500 0
DWIDTH 25 0
BBX 17 40 4 0
BITMAP
180C00
3C1E00
3E3E00
3E3E00
3C1E00
080000
000000
000000
000000
FFFF80
FFFF80
FFFF80
FFFF80
03E000
03E000
03E000
03E000
03E000
03E000
03E000
03E000
03E000
03E000
03E000
03E000
03E000
03E000
03E000
03E000
03E000
03E000
03E000
03E000
03E000
03E000
03E000
FFFF80
FFFF80
FFFF80
FFFF80
ENDCHAR
STARTCHAR 00D0
ENCODING 208
SWIDTH 500 0
DWIDTH 25 0
BBX 22 31 1 0
BITMAP
1FFC00
1FFF00
1FFF80
1E1FC0
1E03E0
1E01F0
1E00F0
1E00F8
1E0078
1E0078
1E007C
1E007C
1E003C
FFF03C
FFF03C
FFF03C
1E003C
1E003C
1E003C
1E007C
1E007C
1E0078
1E0078
1E00F8
1E00F0
1E01F0
1E03E0
1E1FC0
1FFF80
1FFF00
1FFC00
ENDCHAR
STARTCHAR 00D1
ENCODING 209
SWIDTH 500 0
DWIDTH 25 0
BBX 19 40 3 0
BITMAP
000200
07C700
0FFF00
1FFE00
187C00
080000
000000
000000
000000
F001E0
F801E0
F801E0
FC01E0
FC01E0
FE01E0
FE01E0
FF01E0
F781E0
F781E0
F3C1E0
F3C1E0
F1E1E0
F1E1E0
F0E1E0
F0F1E0
F071E0
F079E0
F039E0
F03DE0
F01DE0
F01FE0
F01FE0
F00FE0
F00FE0
F007E0
F007E0
F003E0
F003E0
F003E0
F001E0
ENDCHAR
STARTCHAR 00D2
ENCODING 210
SWIDTH 500 0
DWIDTH 25 0
BBX 23 42 1 0
BITMAP
006000
00F000
00F800
007800
003C00
001E00
000F00
000600
000000
003800
01FF00
07FFC0
0FFFE0
1F83F0
1E01F0
3E00F8
3C0078
7C007C
78003C
78003C
78003C
78003C
78003C
F8003E
F8003E
F8003E
F8003E
F8003E
78003C
78003C
78003C
78003C
78003C
7C007C
3C0078
3E00F8
1E01F0
1F83F0
0FFFE0
07FFC0
01FF00
007800
ENDCHAR
STARTCHAR 00D3
ENCODING 211
SWIDTH 500 0
DWIDTH 25 0
BBX 23 42 1 0
BITMAP
000600
000F00
001F00
003E00
003C00
007800
00F000
006000
000000
003800
01FF00
07FFC0
0FFFE0
1F83F0
1E01F0
3E00F8
3C0078
7C007C
78003C
78003C
78003C
78003C
78003C
F8003E
F8003E
F8003E
F8003E
F8003E
78003C
78003C
78003C
78003C
78003C
7C007C
3C0078
3E00F8
1E01F0
1F83F0
0FFFE0
07FFC0
01FF00
007800
ENDCHAR
STARTCHAR 00D4
ENCODING 212
SWIDTH 500 0
DWIDTH 25 0
BBX 23 42 1 -1
BITMAP
001000
003800
007C00
00FE00
01EF00
03C780
038380
010100
000000
003800
01FF00
07FFC0
0FFFE0
1F83F0
1E01F0
3E00F8
3C0078
7C007C
78003C
78003C
78003C
78003C
78003C
F8003E
F8003E
F8003E
F8003E
F8003E
78003C
78003C
78003C
78003C
78003C
7C007C
3C0078
3E00F8
1E01F0
1F83F0
0FFFE0
07FFC0
01FF00
007800
ENDCHAR
STARTCHAR 00D5
ENCODING 213
SWIDTH 500 0
DWIDTH 25 0
BBX 23 41 1 -1
BITMAP
000080
01F1C0
03FFC0
07FF80
061F00
020000
000000
000000
003800
01FF00
07FFC0
0FFFE0
1F83F0
1E01F0
3E00F8
3C0078
7C007C
78003C
78003C
78003C
78003C
78003C
F8003E
F8003E
F8003E
F8003E
F8003E
78003C
78003C
78003C
78003C
78003C
7C007C
3C0078
3E00F8
1E01F0
1F83F0
0FFFE0
07FFC0
01FF00
007800
ENDCHAR
STARTCHAR 00D6
ENCODING 214
SWIDTH 500 0
DWIDTH 25 0
BBX 23 41 1 -1
BITMAP
030180
0783C0
07C7C0
07C7C0
0783C0
010000
000000
000000
003800
01FF00
07FFC0
0FFFE0
1F83F0
1E01F0
3E00F8
3C0078
7C007C
78003C
78003C
78003C
78003C
78003C
F8003E
F8003E
F8003E
F8003E
F8003E
78003C
78003C
78003C
78003C
78003C
7C007C
3C0078
3E00F8
1E01F0
1F83F0
0FFFE0
07FFC0
01FF00
007800
ENDCHAR
STARTCHAR 00D7
ENCODING 215
SWIDTH 500 0
DWIDTH 25 0
BBX 17 17 4 4
BITMAP
600300
F00780
F80F80
7C1F00
3E3E00
1F7C00
0FF800
07F000
03E000
07F000
0FF800
1F7C00
3E3E00
7C1F00
F80F80
F00780
600300
ENDCHAR
STARTCHAR 00D8
ENCODING 216
SWIDTH 500 0
DWIDTH 25 0
BBX 23 33 1 -1
BITMAP
003870
01FF78
07FFF0
0FFFF0
1F83F0
1E01F0
3E03F8
3C03F8
7C07FC
7807BC
780F3C
780F3C
781E3C
781E3C
F83C3E
F83C3E
F8783E
F8783E
F8F03E
78F03C
79E03C
79E03C
79C03C
7BC03C
7B807C
3F8078
3F00F8
1F01F0
1F83F0
1FFFE0
1FFFC0
3FFF00
1C3800
ENDCHAR
STARTCHAR 00D9
ENCODING 217
SWIDTH 500 0
DWIDTH 25 0
BBX 21 42 2 0
BITMAP
00C000
01C000
01E000
00F000
007800
003C00
001C00
000800
000000
000000
F800F8
F800F8
F800F8
F800F8
F800F8
F800F8
F800F8
F800F8
F800F8
F800F8
F800F8
F800F8
F800F8
F800F8
F800F8
F800F8
F800F8
F800F8
F800F8
F800F8
F800F8
F800F8
F800F0
7800F0
7800F0
7C01F0
7C01F0
3F07E0
1FFFC0
0FFF80
07FF00
00F000
ENDCHAR
STARTCHAR 00DA
ENCODING 218
SWIDTH 500 0
DWIDTH 25 0
BBX 21 42 2 0
BITMAP
000C00
001E00
003E00
007C00
007800
00F000
01E000
00C000
000000
000000
F800F8
F800F8
F800F8
F800F8
F800F8
F800F8
F800F8
F800F8
F800F8
F800F8
F800F8
F800F8
F800F8
F800F8
F800F8
F800F8
F800F8
F800F8
F800F8
F800F8
F800F8
F800F8
F800F0
7800F0
7800F0
7C01F0
7C01F0
3F07E0
1FFFC0
0FFF80
07FF00
00F000
ENDCHAR
STARTCHAR 00DB
ENCODING 219
SWIDTH 500 0
DWIDTH 25 0
BBX 21 42 2 -1
BITMAP
002000
007000
00F800
01FC00
03DE00
078F00
070700
020200
000000
000000
F800F8
F800F8
F800F8
F800F8
F800F8
F800F8
F800F8
F800F8
F800F8
F800F8
F800F8
F800F8
F800F8
F800F8
F800F8
F800F8
F800F8
F800F8
F800F8
F800F8
F800F8
F800F8
F800F0
7800F0
7800F0
7C01F0
7C01F0
3F07E0
1FFFC0
0FFF80
07FF00
00F000
ENDCHAR
STARTCHAR 00DC
ENCODING 220
SWIDTH 500 0
DWIDTH 25 0
BBX 21 41 2 -1
BITMAP
060300
0F0780
0F8F80
0F8F80
0F0780
020000
000000
000000
000000
F800F8
F800F8
F800F8
F800F8
F800F8
F800F8
F800F8
F800F8
F800F8
F800F8
F800F8
F800F8
F800F8
F800F8
F800F8
F800F8
F800F8
F800F8
F800F8
F800F8
F800F8
F800F8
F800F0
7800F0
7800F0
7C01F0
7C01F0
3F07E0
1FFFC0
0FFF80
07FF00
00F000
ENDCHAR
STARTCHAR 00DD
ENCODING 221
SWIDTH 500 0
DWIDTH 25 0
BBX 23 41 1 1
BITMAP
000600
000F00
001F00
003E00
003C00
007800
00F000
006000
000000
000000
F0001E
F8003E
78003C
7C003C
7C007C
3C0078
3E00F8
1E00F0
1F01F0
0F01E0
0F83E0
0783C0
07C780
03C780
01EF00
01EF00
00FE00
00FE00
007C00
007C00
007C00
007C00
007C00
007C00
007C00
007C00
007C00
007C00
007C00
007C00
007C00
ENDCHAR
STARTCHAR 00DE
ENCODING 222
SWIDTH 500 0
DWIDTH 25 0
BBX 19 31 4 0
BITMAP
F00000
F00000
F00000
F00000
F00000
FFE000
FFFC00
FFFF00
FFFF80
F00FC0
F007C0
F003C0
F003E0
F001E0
F001E0
F003E0
F003E0
F003C0
F007C0
F007C0
F01F80
FFFF00
FFFE00
FFF800
FF0000
F00000
F00000
F00000
F00000
F00000
F00000
ENDCHAR
STARTCHAR 00DF
ENCODING 223
SWIDTH 500 0
DWIDTH 25 0
BBX 20 36 4 -1
BITMAP
03C000
0FF800
3FFC00
7FFE00
7C3E00
F81F00
F00F00
F00F00
F00F00
F01F00
F01E00
F03E00
F07C00
F0F800
F1F000
F1E000
F1E000
F3E000
F1E000
F1F800
F1FC00
F0FF00
F03F80
F00FC0
F007E0
F001E0
F001F0
F000F0
F000F0
F001F0
F001F0
F183E0
F3FFE0
F3FFC0
F1FF00
001000
ENDCHAR
STARTCHAR 00E0
ENCODING 224
SWIDTH 500 0
DWIDTH 25 0
BBX 19 35 3 0
BITMAP
018000
03C000
03C000
01E000
00F000
007800
003800
001000
000000
000000
07F000
3FFE00
3FFF00
1FFF80
000FC0
0007C0
0003C0
0003C0
0003E0
0001E0
07FFE0
1FFFE0
3FFFE0
7F07E0
F801E0
F001E0
F001E0
F001E0
F001E0
F801E0
7C01E0
7FFFE0
3FFFE0
0FFFE0
006000
ENDCHAR
STARTCHAR 00E1
ENCODING 225
SWIDTH 500 0
DWIDTH 25 0
BBX 19 35 3 0
BITMAP
001800
003C00
007C00
007800
00F000
01E000
01C000
008000
000000
000000
07F000
3FFE00
3FFF00
1FFF80
000FC0
0007C0
0003C0
0003C0
0003E0
0001E0
07FFE0
1FFFE0
3FFFE0
7F07E0
F801E0
F001E0
F001E0
F001E0
F001E0
F801E0
7C01E0
7FFFE0
3FFFE0
0FFFE0
006000
ENDCHAR
STARTCHAR 00E2
ENCODING 226
SWIDTH 500 0
DWIDTH 25 0
BBX 19 35 3 -1
BITMAP
006000
00F000
01F800
03FC00
07FE00
0F0E00
0E0700
040200
000000
000000
07F000
3FFE00
3FFF00
1FFF80
000FC0
0007C0
0003C0
0003C0
0003E0
0001E0
07FFE0
1FFFE0
3FFFE0
7F07E0
F801E0
F001E0
F001E0
F001E0
F001E0
F801E0
7C01E0
7FFFE0
3FFFE0
0FFFE0
006000
ENDCHAR
STARTCHAR 00E3
ENCODING 227
SWIDTH 500 0
DWIDTH 25 0
BBX 19 34 3 -1
BITMAP
030200
0FC700
0FFF00
1FFE00
187C00
000000
000000
000000
000000
07F000
3FFE00
3FFF00
1FFF80
000FC0
0007C0
0003C0
0003C0
0003E0
0001E0
07FFE0
1FFFE0
3FFFE0
7F07E0
F801E0
F001E0
F001E0
F001E0
F001E0
F801E0
7C01E0
7FFFE0
3FFFE0
0FFFE0
006000
ENDCHAR
STARTCHAR 00E4
ENCODING 228
SWIDTH 500 0
DWIDTH 25 0
BBX 19 34 3 -1
BITMAP
0C0600
1E1F00
1F1F00
1F1F00
1E0F00
040400
000000
000000
000000
07F000
3FFE00
3FFF00
1FFF80
000FC0
0007C0
0003C0
0003C0
0003E0
0001E0
07FFE0
1FFFE0
3FFFE0
7F07E0
F801E0
F001E0
F001E0
F001E0
F001E0
F801E0
7C01E0
7FFFE0
3FFFE0
0FFFE0
006000
ENDCHAR
STARTCHAR 00E5
ENCODING 229
SWIDTH 500 0
DWIDTH 25 0
BBX 19 36 3 -1
BITMAP
00E000
03F800
073C00
060C00
060C00
060C00
071C00
03F800
01F000
000000
000000
07F000
3FFE00
3FFF00
1FFF80
000FC0
0007C0
0003C0
0003C0
0003E0
0001E0
07FFE0
1FFFE0
3FFFE0
7F07E0
F801E0
F001E0
F001E0
F001E0
F001E0
F801E0
7C01E0
7FFFE0
3FFFE0
0FFFE0
006000
ENDCHAR
STARTCHAR 00E6
ENCODING 230
SWIDTH 500 0
DWIDTH 25 0
BBX 22 25 2 -1
BITMAP
1F0380
7FC7E0
7FEFF0
7FFFF0
01FC78
00F878
00F838
00783C
00783C
00783C
1FFFFC
3FFFFC
7FFFFC
F8FFFC
F07800
F07800
E07800
E07800
E03C00
F03C00
F87F18
7FFFF8
7FFFF8
3FC7F8
020080
ENDCHAR
STARTCHAR 00E7
ENCODING 231
SWIDTH 500 0
DWIDTH 25 0
BBX 20 32 2 -8
BITMAP
003F80
01FFF0
07FFF0
0FFFF0
1FC020
3F0000
3E0000
7C0000
780000
780000
780000
F80000
F80000
F80000
780000
780000
780000
7C0000
3E0000
3F0000
1FE030
0FFFF0
07FFF0
01FFF0
003C00
003800
003C00
003E00
001E00
011E00
01FE00
01FC00
ENDCHAR
STARTCHAR 00E8
ENCODING 232
SWIDTH 500 0
DWIDTH 25 0
BBX 21 35 2 0
BITMAP
00C000
01E000
01E000
00F000
007800
003C00
001C00
000800
000000
000000
007C00
03FF00
0FFFC0
1FFFC0
3F03E0
3E01F0
7C00F0
7800F0
F800F0
F00078
FFFFF8
FFFFF8
FFFFF8
FFFFF8
F00000
F00000
F80000
780000
7C0000
3E0000
3FC0E0
1FFFE0
07FFE0
03FFE0
003800
ENDCHAR
STARTCHAR 00E9
ENCODING 233
SWIDTH 500 0
DWIDTH 25 0
BBX 21 35 2 0
BITMAP
000C00
001E00
003E00
003C00
007800
00F000
00E000
004000
000000
000000
007C00
03FF00
0FFFC0
1FFFC0
3F03E0
3E01F0
7C00F0
7800F0
F800F0
F00078
FFFFF8
FFFFF8
FFFFF8
FFFFF8
F00000
F00000
F80000
780000
7C0000
3E0000
3FC0E0
1FFFE0
07FFE0
03FFE0
003800
ENDCHAR
STARTCHAR 00EA
ENCODING 234
SWIDTH 500 0
DWIDTH 25 0
BBX 21 35 2 -1
BITMAP
003000
007800
00FC00
00FE00
01EF00
03C780
070380
020100
000000
000000
007C00
03FF00
0FFFC0
1FFFC0
3F03E0
3E01F0
7C00F0
7800F0
F800F0
F00078
FFFFF8
FFFFF8
FFFFF8
FFFFF8
F00000
F00000
F80000
780000
7C0000
3E0000
3FC0E0
1FFFE0
07FFE0
03FFE0
003800
ENDCHAR
STARTCHAR 00EB
ENCODING 235
SWIDTH 500 0
DWIDTH 25 0
BBX 21 34 2 -1
BITMAP
030380
0787C0
0F87C0
0F87C0
078780
000100
000000
000000
000000
007C00
03FF00
0FFFC0
1FFFC0
3F03E0
3E01F0
7C00F0
7800F0
F800F0
F00078
FFFFF8
FFFFF8
FFFFF8
FFFFF8
F00000
F00000
F80000
780000
7C0000
3E0000
3FC0E0
1FFFE0
07FFE0
03FFE0
003800
ENDCHAR
STARTCHAR 00EC
ENCODING 236
SWIDTH 500 0
DWIDTH 25 0
BBX 19 35 3 0
BITMAP
060000
0F0000
0F8000
078000
03C000
01E000
00E000
004000
000000
000000
000000
FFE000
FFE000
FFE000
03E000
03E000
03E000
03E000
03E000
03E000
03E000
03E000
03E000
03E000
03E000
03E000
03E000
03E000
01E000
01E000
01F860
00FFE0
00FFE0
007FE0
000E00
ENDCHAR
STARTCHAR 00ED
ENCODING 237
SWIDTH 500 0
DWIDTH 25 0
BBX 19 35 3 0
BITMAP
006000
00F000
01F000
03E000
03C000
078000
0F0000
020000
000000
000000
000000
FFE000
FFE000
FFE000
03E000
03E000
03E000
03E000
03E000
03E000
03E000
03E000
03E000
03E000
03E000
03E000
03E000
03E000
01E000
01E000
01F860
00FFE0
00FFE0
007FE0
000E00
ENDCHAR
STARTCHAR 00EE
ENCODING 238
SWIDTH 500 0
DWIDTH 25 0
BBX 19 35 3 -1
BITMAP
018000
03C000
07C000
0FE000
1EF000
3C7800
383800
100800
000000
000000
000000
FFE000
FFE000
FFE000
03E000
03E000
03E000
03E000
03E000
03E000
03E000
03E000
03E000
03E000
03E000
03E000
03E000
03E000
01E000
01E000
01F860
00FFE0
00FFE0
007FE0
000E00
ENDCHAR
STARTCHAR 00EF
ENCODING 239
SWIDTH 500 0
DWIDTH 25 0
BBX 19 34 3 -1
BITMAP
381800
7C3C00
7C7E00
7C7E00
7C3C00
100000
000000
000000
000000
000000
FFE000
FFE000
FFE000
03E000
03E000
03E000
03E000
03E000
03E000
03E000
03E000
03E000
03E000
03E000
03E000
03E000
03E000
01E000
01E000
01F860
00FFE0
00FFE0
007FE0
000E00
ENDCHAR
STARTCHAR 00F0
ENCODING 240
SWIDTH 500 0
DWIDTH 25 0
BBX 20 36 3 -1
BITMAP
008000
01C000
01E000
01F060
00FBF0
007FF0
00FFC0
07FE00
07FF00
038F00
000780
000780
000380
03E3C0
0FFBC0
1FFFC0
3FFFC0
7C07C0
7803C0
F801E0
F001E0
F001E0
F001E0
F003E0
F003C0
F003C0
F003C0
F003C0
F007C0
780780
7C0F80
3E1F00
3FFF00
1FFE00
07F800
008000
ENDCHAR
STARTCHAR 00F1
ENCODING 241
SWIDTH 500 0
DWIDTH 25 0
BBX 18 33 4 0
BITMAP
060400
1F8E00
1FFE00
3FFC00
30F800
000000
000000
000000
000000
07E000
FFFC00
FFFE00
FFFF00
F01F00
F00F80
F00780
F00780
F007C0
F007C0
F007C0
F007C0
F007C0
F007C0
F007C0
F007C0
F007C0
F007C0
F007C0
F007C0
F007C0
F007C0
F007C0
F007C0
ENDCHAR
STARTCHAR 00F2
ENCODING 242
SWIDTH 500 0
DWIDTH 25 0
BBX 21 35 2 0
BITMAP
00C000
01E000
01F000
00F800
007C00
003C00
001E00
000C00
000000
000000
00F800
03FE00
0FFF80
1FFFC0
3F07E0
3E03E0
7C01F0
7800F0
F800F8
F800F8
F00078
F00078
F00078
F00078
F00078
F800F8
F800F0
7800F0
7C01F0
3E03E0
3F8FE0
1FFFC0
0FFF80
03FE00
003000
ENDCHAR
STARTCHAR 00F3
ENCODING 243
SWIDTH 500 0
DWIDTH 25 0
BBX 21 35 2 0
BITMAP
000C00
001E00
003E00
007C00
00F800
00F000
01E000
00C000
000000
000000
00F800
03FE00
0FFF80
1FFFC0
3F07E0
3E03E0
7C01F0
7800F0
F800F8
F800F8
F00078
F00078
F00078
F00078
F00078
F800F8
F800F0
7800F0
7C01F0
3E03E0
3F8FE0
1FFFC0
0FFF80
03FE00
003000
ENDCHAR
STARTCHAR 00F4
ENCODING 244
SWIDTH 500 0
DWIDTH 25 0
BBX 21 35 2 -1
BITMAP
002000
007000
00F800
01FC00
03DE00
078F00
070700
020200
000000
000000
00F800
03FE00
0FFF80
1FFFC0
3F07E0
3E03E0
7C01F0
7800F0
F800F8
F800F8
F00078
F00078
F00078
F00078
F00078
F800F8
F800F0
7800F0
7C01F0
3E03E0
3F8FE0
1FFFC0
0FFF80
03FE00
003000
ENDCHAR
STARTCHAR 00F5
ENCODING 245
SWIDTH 500 0
DWIDTH 25 0
BBX 21 34 2 -1
BITMAP
018100
07E380
07FF80
0FFF00
0C3E00
000000
000000
000000
000000
00F800
03FE00
0FFF80
1FFFC0
3F07E0
3E03E0
7C01F0
7800F0
F800F8
F800F8
F00078
F00078
F00078
F00078
F00078
F800F8
F800F0
7800F0
7C01F0
3E03E0
3F8FE0
1FFFC0
0FFF80
03FE00
003000
ENDCHAR
STARTCHAR 00F6
ENCODING 246
SWIDTH 500 0
DWIDTH 25 0
BBX 21 34 2 -1
BITMAP
060300
0F0F80
0F8F80
0F8F80
0F0780
020200
000000
000000
000000
00F800
03FE00
0FFF80
1FFFC0
3F07E0
3E03E0
7C01F0
7800F0
F800F8
F800F8
F00078
F00078
F00078
F00078
F00078
F800F8
F800F0
7800F0
7C01F0
3E03E0
3F8FE0
1FFFC0
0FFF80
03FE00
003000
ENDCHAR
STARTCHAR 00F7
ENCODING 247
SWIDTH 500 0
DWIDTH 25 0
BBX 21 22 2 2
BITMAP
00F800
00F800
01F800
00F800
00F800
003000
000000
000000
000000
FFFFF8
FFFFF8
FFFFF8
FFFFF8
000000
000000
000000
007000
00F800
00F800
01F800
00F800
007000
ENDCHAR
STARTCHAR 00F8
ENCODING 248
SWIDTH 500 0
DWIDTH 25 0
BBX 21 27 2 -2
BITMAP
000020
00F070
03FE70
0FFFF0
1FFFE0
3F07E0
3E03E0
7C07F0
780FF0
F81EF8
F81C78
F03C78
F07878
F07078
F0F078
F1E078
F3C0F8
FB80F0
7F80F0
7F01F0
3E03E0
3F0FE0
3FFFC0
7FFF80
F3FE00
603000
200000
ENDCHAR
STARTCHAR 00F9
ENCODING 249
SWIDTH 500 0
DWIDTH 25 0
BBX 18 35 3 0
BITMAP
018000
03C000
03C000
01E000
00F000
007800
003800
001000
000000
000000
000000
F803C0
F803C0
F803C0
F803C0
F803C0
F803C0
F803C0
F803C0
F803C0
F803C0
F803C0
F803C0
F803C0
F803C0
F803C0
7803C0
7803C0
7803C0
7C03C0
3F03C0
3FFFC0
1FFFC0
07FFC0
006000
ENDCHAR
STARTCHAR 00FA
ENCODING 250
SWIDTH 500 0
DWIDTH 25 0
BBX 18 35 3 0
BITMAP
001800
003C00
007C00
00F800
01F000
01E000
03C000
018000
000000
000000
000000
F803C0
F803C0
F803C0
F803C0
F803C0
F803C0
F803C0
F803C0
F803C0
F803C0
F803C0
F803C0
F803C0
F803C0
F803C0
7803C0
7803C0
7803C0
7C03C0
3F03C0
3FFFC0
1FFFC0
07FFC0
006000
ENDCHAR
STARTCHAR 00FB
ENCODING 251
SWIDTH 500 0
DWIDTH 25 0
BBX 18 35 3 -1
BITMAP
004000
00E000
01F000
03F800
07BC00
0F1E00
0E0E00
040400
000000
000000
000000
F803C0
F803C0
F803C0
F803C0
F803C0
F803C0
F803C0
F803C0
F803C0
F803C0
F803C0
F803C0
F803C0
F803C0
F803C0
7803C0
7803C0
7803C0
7C03C0
3F03C0
3FFFC0
1FFFC0
07FFC0
006000
ENDCHAR
STARTCHAR 00FC
ENCODING 252
SWIDTH 500 0
DWIDTH 25 0
BBX 18 34 3 -1
BITMAP
0C0600
1E1F00
1F1F00
1F1F00
1E0F00
040400
000000
000000
000000
000000
F803C0
F803C0
F803C0
F803C0
F803C0
F803C0
F803C0
F803C0
F803C0
F803C0
F803C0
F803C0
F803C0
F803C0
F803C0
7803C0
7803C0
7803C0
7C03C0
3F03C0
3FFFC0
1FFFC0
07FFC0
006000
ENDCHAR
STARTCHAR 00FD
ENCODING 253
SWIDTH 500 0
DWIDTH 25 0
BBX 21 42 2 -7
BITMAP
000C00
001E00
003E00
003C00
007800
00F000
00E000
004000
000000
000000
000000
780078
7800F8
7C00F0
7C00F0
3C00F0
3C01F0
3E01E0
1E01E0
1E01E0
1F03C0
0F03C0
0F83C0
078780
078780
03C780
03CF00
03EF00
01EF00
01EE00
00FE00
00FE00
007C00
007C00
003800
007800
00F000
00F000
83E000
FFC000
FF8000
FF0000
ENDCHAR
STARTCHAR 00FE
ENCODING 254
SWIDTH 500 0
DWIDTH 25 0
BBX 19 43 4 -8
BITMAP
100000
F00000
F00000
F00000
F00000
F00000
F00000
F00000
F00000
F00000
F00000
F1E000
FFFC00
FFFE00
FFFF00
FC1F80
F00780
F007C0
F003C0
F003E0
F003E0
F001E0
F001E0
F001E0
F001E0
F001E0
F003E0
F003E0
F003C0
F007C0
F00F80
FC1F80
FFFF00
FFFE00
FFFC00
F04000
F00000
F00000
F00000
F00000
F00000
F00000
F00000
ENDCHAR
STARTCHAR 00FF
ENCODING 255
SWIDTH 500 0
DWIDTH 25 0
BBX 21 41 2 -8
BITMAP
030380
0787C0
0FC7C0
0FC7C0
0787C0
000100
000000
000000
000000
000000
780078
7800F8
7C00F0
7C00F0
3C00F0
3C01F0
3E01E0
1E01E0
1E01E0
1F03C0
0F03C0
0F83C0
078780
078780
03C780
03CF00
03EF00
01EF00
01EE00
00FE00
00FE00
007C00
007C00
003800
007800
00F000
00F000
83E000
FFC000
FF8000
FF0000
ENDCHAR
STARTCHAR 0100
ENCODING 256
SWIDTH 500 0
DWIDTH 25 0
BBX 23 39 1 0
BITMAP
07FFC0
07FFC0
07FFC0
07FFC0
000000
000000
000000
000000
007C00
00FE00
00FE00
00FE00
01EF00
01EF00
01CF00
03C780
03C780
038780
0783C0
0783C0
0703C0
0F01E0
0F01E0
0F01E0
1E00F0
1E00F0
1E00F0
1FFFF0
3FFFF8
3FFFF8
3FFFF8
78007C
78003C
78003C
78003C
F0003E
F0001E
F0001E
F0001E
ENDCHAR
STARTCHAR 0101
ENCODING 257
SWIDTH 500 0
DWIDTH 25 0
BBX 19 33 3 -1
BITMAP
0FFF00
0FFF00
0FFF00
000000
000000
000000
000000
000000
07F000
3FFE00
3FFF00
1FFF80
000FC0
0007C0
0003C0
0003C0
0003E0
0001E0
07FFE0
1FFFE0
3FFFE0
7F07E0
F801E0
F001E0
F001E0
F001E0
F001E0
F801E0
7C01E0
7FFFE0
3FFFE0
0FFFE0
006000
ENDCHAR
STARTCHAR 0102
ENCODING 258
SWIDTH 500 0
DWIDTH 25 0
BBX 23 40 1 0
BITMAP
030180
038380
03C780
01FF00
00FE00
003C00
000000
000000
000000
007C00
00FE00
00FE00
00FE00
01EF00
01EF00
01CF00
03C780
03C780
038780
0783C0
0783C0
0703C0
0F01E0
0F01E0
0F01E0
1E00F0
1E00F0
1E00F0
1FFFF0
3FFFF8
3FFFF8
3FFFF8
78007C
78003C
78003C
78003C
F0003E
F0001E
F0001E
F0001E
ENDCHAR
STARTCHAR 0103
ENCODING 259
SWIDTH 500 0
DWIDTH 25 0
BBX 19 34 3 -1
BITMAP
0C0600
0E0E00
0F1E00
07FC00
03F800
00E000
000000
000000
000000
07F000
3FFE00
3FFF00
1FFF80
000FC0
0007C0
0003C0
0003C0
0003E0
0001E0
07FFE0
1FFFE0
3FFFE0
7F07E0
F801E0
F001E0
F001E0
F001E0
F001E0
F801E0
7C01E0
7FFFE0
3FFFE0
0FFFE0
006000
ENDCHAR
STARTCHAR 0104
ENCODING 260
SWIDTH 500 0
DWIDTH 25 0
BBX 24 39 1 -8
BITMAP
007C00
00FE00
00FE00
00FE00
01EF00
01EF00
01CF00
03C780
03C780
038780
0783C0
0783C0
0703C0
0F01E0
0F01E0
0F01E0
1E00F0
1E00F0
1E00F0
1FFFF0
3FFFF8
3FFFF8
3FFFF8
78007C
78003C
78003C
78003C
F0003E
F0001E
F0001E
F0001E
00001E
000038
000078
0000F0
0000F0
0000FF
0000FF
00007F
ENDCHAR
STARTCHAR 0105
ENCODING 261
SWIDTH 500 0
DWIDTH 25 0
BBX 19 32 3 -8
BITMAP
07F000
3FFE00
3FFF00
1FFF80
000FC0
0007C0
0003C0
0003C0
0003E0
0001E0
07FFE0
1FFFE0
3FFFE0
7F07E0
F801E0
F001E0
F001E0
F001E0
F001E0
F801E0
7C01E0
7FFFE0
3FFFE0
0FFFE0
007780
000F00
000E00
001E00
001E00
001FC0
001FE0
000FE0
ENDCHAR
STARTCHAR 0106
ENCODING 262
SWIDTH 500 0
DWIDTH 25 0
BBX 21 42 2 0
BITMAP
000300
000780
000F80
000F00
001E00
003C00
007800
003000
000000
000E00
00FFE0
03FFF8
07FFF0
0FE0F0
1F8010
1F0000
3E0000
3C0000
7C0000
780000
780000
780000
F80000
F80000
F80000
F80000
F80000
F80000
F80000
780000
780000
780000
7C0000
3C0000
3E0000
3F0000
1F8000
0FE070
07FFF8
03FFF8
00FFE0
001C00
ENDCHAR
STARTCHAR 0107
ENCODING 263
SWIDTH 500 0
DWIDTH 25 0
BBX 20 36 2 -1
BITMAP
000200
000700
000780
000F80
001F00
003E00
007C00
007800
002000
000000
000000
003F80
01FFF0
07FFF0
0FFFF0
1FC020
3F0000
3E0000
7C0000
780000
780000
780000
F80000
F80000
F80000
780000
780000
780000
7C0000
3E0000
3F0000
1FE030
0FFFF0
07FFF0
01FFF0
001C00
ENDCHAR
STARTCHAR 0108
ENCODING 264
SWIDTH 500 0
DWIDTH 25 0
BBX 21 42 2 -1
BITMAP
000C00
001E00
001F00
003F80
007BC0
00F1E0
01E0E0
008040
000000
000E00
00FFE0
03FFF8
07FFF0
0FE0F0
1F8010
1F0000
3E0000
3C0000
7C0000
780000
780000
780000
F80000
F80000
F80000
F80000
F80000
F80000
F80000
780000
780000
780000
7C0000
3C0000
3E0000
3F0000
1F8000
0FE070
07FFF8
03FFF8
00FFE0
001C00
ENDCHAR
STARTCHAR 0109
ENCODING 265
SWIDTH 500 0
DWIDTH 25 0
BBX 20 35 2 -1
BITMAP
000C00
001E00
003F00
007F80
00FFC0
01E1E0
01C0E0
008040
000000
000000
003F80
01FFF0
07FFF0
0FFFF0
1FC020
3F0000
3E0000
7C0000
780000
780000
780000
F80000
F80000
F80000
780000
780000
780000
7C0000
3E0000
3F0000
1FE030
0FFFF0
07FFF0
01FFF0
001C00
ENDCHAR
STARTCHAR 010A
ENCODING 266
SWIDTH 500 0
DWIDTH 25 0
BBX 21 41 2 -1
BITMAP
001E00
003F00
003F00
003F00
001F00
000E00
000000
000000
000E00
00FFE0
03FFF8
07FFF0
0FE0F0
1F8010
1F0000
3E0000
3C0000
7C0000
780000
780000
780000
F80000
F80000
F80000
F80000
F80000
F80000
F80000
780000
780000
780000
7C0000
3C0000
3E0000
3F0000
1F8000
0FE070
07FFF8
03FFF8
00FFE0
001C00
ENDCHAR
STARTCHAR 010B
ENCODING 267
SWIDTH 500 0
DWIDTH 25 0
BBX 20 34 2 -1
BITMAP
001E00
003F00
003F00
003F00
001F00
000E00
000000
000000
000000
003F80
01FFF0
07FFF0
0FFFF0
1FC020
3F0000
3E0000
7C0000
780000
780000
780000
F80000
F80000
F80000
780000
780000
780000
7C0000
3E0000
3F0000
1FE030
0FFFF0
07FFF0
01FFF0
001C00
ENDCHAR
STARTCHAR 010C
ENCODING 268
SWIDTH 500 0
DWIDTH 25 0
BBX 21 42 2 -1
BITMAP
00C0C0
01E1E0
00F3C0
007F80
003F00
001E00
000E00
000400
000000
000E00
00FFE0
03FFF8
07FFF0
0FE0F0
1F8010
1F0000
3E0000
3C0000
7C0000
780000
780000
780000
F80000
F80000
F80000
F80000
F80000
F80000
F80000
780000
780000
780000
7C0000
3C0000
3E0000
3F0000
1F8000
0FE070
07FFF8
03FFF8
00FFE0
001C00
ENDCHAR
STARTCHAR 010D
ENCODING 269
SWIDTH 500 0
DWIDTH 25 0
BBX 20 35 2 0
BITMAP
00C0C0
01E1E0
00F3C0
007F80
003F00
001E00
000C00
000000
000000
000000
003F80
01FFF0
07FFF0
0FFFF0
1FC020
3F0000
3E0000
7C0000
780000
780000
780000
F80000
F80000
F80000
780000
780000
780000
7C0000
3E0000
3F0000
1FE030
0FFFF0
07FFF0
01FFF0
001C00
ENDCHAR
STARTCHAR 010E
ENCODING 270
SWIDTH 500 0
DWIDTH 25 0
BBX 20 41 3 0
BITMAP
101800
3C3C00
1E7800
0FF000
07E000
07C000
038000
010000
000000
000000
FFE000
FFFC00
FFFE00
F0FF00
F01F80
F007C0
F003C0
F003E0
F001E0
F001E0
F001F0
F001F0
F000F0
F000F0
F000F0
F000F0
F000F0
F000F0
F000F0
F001F0
F001F0
F001E0
F001E0
F003E0
F003C0
F007C0
F01F80
F07F00
FFFE00
FFFC00
FFE000
ENDCHAR
STARTCHAR 010F
ENCODING 271
SWIDTH 500 0
DWIDTH 25 0
BBX 24 36 1 -1
BITMAP
00008F
00078F
00078F
00078F
00078F
00078E
00078E
00078E
00078E
00078E
000780
01C780
0FFF80
1FFF80
3FFF80
3E1F80
7C0780
780780
780780
F80780
F00780
F00780
F00780
F00780
F00780
F00780
F80780
F80780
780780
7C0780
3C0780
3F0780
1FFF80
0FFF80
07FF80
00D000
ENDCHAR
STARTCHAR 0110
ENCODING 272
SWIDTH 500 0
DWIDTH 25 0
BBX 22 31 1 0
BITMAP
1FFC00
1FFF00
1FFF80
1E1FC0
1E03E0
1E01F0
1E00F0
1E00F8
1E0078
1E0078
1E007C
1E007C
1E003C
FFF03C
FFF03C
FFF03C
1E003C
1E003C
1E003C
1E007C
1E007C
1E0078
1E0078
1E00F8
1E00F0
1E01F0
1E03E0
1E1FC0
1FFF80
1FFF00
1FFC00
ENDCHAR
STARTCHAR 0111
ENCODING 273
SWIDTH 500 0
DWIDTH 25 0
BBX 22 36 2 -1
BITMAP
000020
0001E0
0001E0
0001E0
03FFFC
03FFFC
03FFFC
03FFFC
0001E0
0001E0
0001E0
01E1E0
07FDE0
0FFFE0
1FFFE0
3F07E0
7C03E0
7C01E0
7801E0
F801E0
F001E0
F001E0
F001E0
F001E0
F001E0
F001E0
F801E0
F801E0
7801E0
7C01E0
3E01E0
3F83E0
1FFFE0
0FFFE0
03FFC0
006800
ENDCHAR
STARTCHAR 0112
ENCODING 274
SWIDTH 500 0
DWIDTH 25 0
BBX 18 39 5 0
BITMAP
3FFE00
3FFE00
3FFE00
3FFE00
000000
000000
000000
000000
FFFF80
FFFF80
FFFF80
FFFF80
F00000
F00000
F00000
F00000
F00000
F00000
F00000
F00000
F00000
FFFE00
FFFE00
FFFE00
FFFE00
F00000
F00000
F00000
F00000
F00000
F00000
F00000
F00000
F00000
F00000
FFFFC0
FFFFC0
FFFFC0
FFFFC0
ENDCHAR
STARTCHAR 0113
ENCODING 275
SWIDTH 500 0
DWIDTH 25 0
BBX 21 33 2 -1
BITMAP
07FF80
07FF80
07FF80
000000
000000
000000
000000
000000
007C00
03FF00
0FFFC0
1FFFC0
3F03E0
3E01F0
7C00F0
7800F0
F800F0
F00078
FFFFF8
FFFFF8
FFFFF8
FFFFF8
F00000
F00000
F80000
780000
7C0000
3E0000
3FC0E0
1FFFE0
07FFE0
03FFE0
003800
ENDCHAR
STARTCHAR 0114
ENCODING 276
SWIDTH 500 0
DWIDTH 25 0
BBX 18 40 5 0
BITMAP
381C00
1C1C00
1E3C00
0FF800
0FF000
01C000
000000
000000
000000
FFFF80
FFFF80
FFFF80
FFFF80
F00000
F00000
F00000
F00000
F00000
F00000
F00000
F00000
F00000
FFFE00
FFFE00
FFFE00
FFFE00
F00000
F00000
F00000
F00000
F00000
F00000
F00000
F00000
F00000
F00000
FFFFC0
FFFFC0
FFFFC0
FFFFC0
ENDCHAR
STARTCHAR 0115
ENCODING 277
SWIDTH 500 0
DWIDTH 25 0
BBX 21 34 2 -1
BITMAP
070380
070380
03CF00
03FF00
01FE00
003000
000000
000000
000000
007C00
03FF00
0FFFC0
1FFFC0
3F03E0
3E01F0
7C00F0
7800F0
F800F0
F00078
FFFFF8
FFFFF8
FFFFF8
FFFFF8
F00000
F00000
F80000
780000
7C0000
3E0000
3FC0E0
1FFFE0
07FFE0
03FFE0
003800
ENDCHAR
STARTCHAR 0116
ENCODING 278
SWIDTH 500 0
DWIDTH 25 0
BBX 18 40 5 0
BITMAP
01C000
03E000
03F000
03F000
03E000
01C000
000000
000000
000000
FFFF80
FFFF80
FFFF80
FFFF80
F00000
F00000
F00000
F00000
F00000
F00000
F00000
F00000
F00000
FFFE00
FFFE00
FFFE00
FFFE00
F00000
F00000
F00000
F00000
F00000
F00000
F00000
F00000
F00000
F00000
FFFFC0
FFFFC0
FFFFC0
FFFFC0
ENDCHAR
STARTCHAR 0117
ENCODING 279
SWIDTH 500 0
DWIDTH 25 0
BBX 21 34 2 -1
BITMAP
007800
00FC00
00FC00
00FC00
00FC00
007000
000000
000000
000000
007C00
03FF00
0FFFC0
1FFFC0
3F03E0
3E01F0
7C00F0
7800F0
F800F0
F00078
FFFFF8
FFFFF8
FFFFF8
FFFFF8
F00000
F00000
F80000
780000
7C0000
3E0000
3FC0E0
1FFFE0
07FFE0
03FFE0
003800
ENDCHAR
STARTCHAR 0118
ENCODING 280
SWIDTH 500 0
DWIDTH 25 0
BBX 18 39 5 -8
BITMAP
FFFF80
FFFF80
FFFF80
FFFF80
F00000
F00000
F00000
F00000
F00000
F00000
F00000
F00000
F00000
FFFE00
FFFE00
FFFE00
FFFE00
F00000
F00000
F00000
F00000
F00000
F00000
F00000
F00000
F00000
F00000
FFFFC0
FFFFC0
FFFFC0
FFFFC0
000780
000F00
001E00
001C00
001C00
001FC0
001FC0
000FC0
ENDCHAR
STARTCHAR 0119
ENCODING 281
SWIDTH 500 0
DWIDTH 25 0
BBX 21 32 2 -8
BITMAP
007C00
03FF00
0FFFC0
1FFFC0
3F03E0
3E01F0
7C00F0
7800F0
F800F0
F00078
FFFFF8
FFFFF8
FFFFF8
FFFFF8
F00000
F00000
F80000
780000
7C0000
3E0000
3FC0E0
1FFFE0
07FFE0
03FFE0
003BC0
000700
000F00
001E00
001E00
001FC0
001FE0
000FE0
ENDCHAR
STARTCHAR 011A
ENCODING 282
SWIDTH 500 0
DWIDTH 25 0
BBX 18 41 5 0
BITMAP
0C0C00
1E1E00
0F3C00
07F800
03F000
01E000
00C000
008000
000000
000000
FFFF80
FFFF80
FFFF80
FFFF80
F00000
F00000
F00000
F00000
F00000
F00000
F00000
F00000
F00000
FFFE00
FFFE00
FFFE00
FFFE00
F00000
F00000
F00000
F00000
F00000
F00000
F00000
F00000
F00000
F00000
FFFFC0
FFFFC0
FFFFC0
FFFFC0
ENDCHAR
STARTCHAR 011B
ENCODING 283
SWIDTH 500 0
DWIDTH 25 0
BBX 21 35 2 0
BITMAP
030300
078780
03CF00
01FE00
00FC00
007800
003000
000000
000000
000000
007C00
03FF00
0FFFC0
1FFFC0
3F03E0
3E01F0
7C00F0
7800F0
F800F0
F00078
FFFFF8
FFFFF8
FFFFF8
FFFFF8
F00000
F00000
F80000
780000
7C0000
3E0000
3FC0E0
1FFFE0
07FFE0
03FFE0
003800
ENDCHAR
STARTCHAR 011C
ENCODING 284
SWIDTH 500 0
DWIDTH 25 0
BBX 21 42 2 -1
BITMAP
000C00
001C00
003E00
007F00
00F780
01E3C0
01C1C0
0080C0
000000
000E00
00FFE0
03FFF8
07FFF0
0FC070
1F8000
1F0000
3E0000
3C0000
7C0000
780000
780000
780000
F80000
F80000
F80000
F80000
F80078
F80078
F80078
780078
780078
780078
7C0078
3C0078
3E0078
3E0078
1F8078
0FC078
07FFF8
03FFF8
01FFF0
001F00
ENDCHAR
STARTCHAR 011D
ENCODING 285
SWIDTH 500 0
DWIDTH 25 0
BBX 19 42 2 -8
BITMAP
002000
007000
00F800
01FC00
03DE00
078F00
070700
020200
000000
000000
00FC00
07FFE0
0FFFE0
1FFFE0
3F01E0
7C01E0
7C01E0
7801E0
F801E0
F001E0
F001E0
F001E0
F001E0
F001E0
F001E0
F801E0
7801E0
7C01E0
7E03E0
3FFFE0
1FFFE0
0FFFE0
03FDE0
0001E0
0001E0
0001E0
0003E0
0003E0
381FC0
3FFF80
7FFF00
3FFC00
ENDCHAR
STARTCHAR 011E
ENCODING 286
SWIDTH 500 0
DWIDTH 25 0
BBX 21 41 2 -1
BITMAP
01C0E0
01E0E0
00F1E0
00FFC0
007F80
000E00
000000
000000
000E00
00FFE0
03FFF8
07FFF0
0FC070
1F8000
1F0000
3E0000
3C0000
7C0000
780000
780000
780000
F80000
F80000
F80000
F80000
F80078
F80078
F80078
780078
780078
780078
7C0078
3C0078
3E0078
3E0078
1F8078
0FC078
07FFF8
03FFF8
01FFF0
001F00
ENDCHAR
STARTCHAR 011F
ENCODING 287
SWIDTH 500 0
DWIDTH 25 0
BBX 19 41 2 -8
BITMAP
060300
070700
078F00
03FE00
01FC00
007000
000000
000000
000000
00FC00
07FFE0
0FFFE0
1FFFE0
3F01E0
7C01E0
7C01E0
7801E0
F801E0
F001E0
F001E0
F001E0
F001E0
F001E0
F001E0
F801E0
7801E0
7C01E0
7E03E0
3FFFE0
1FFFE0
0FFFE0
03FDE0
0001E0
0001E0
0001E0
0003E0
0003E0
381FC0
3FFF80
7FFF00
3FFC00
ENDCHAR
STARTCHAR 0120
ENCODING 288
SWIDTH 500 0
DWIDTH 25 0
BBX 21 41 2 -1
BITMAP
001E00
003E00
003F00
003F00
003E00
001C00
000000
000000
000E00
00FFE0
03FFF8
07FFF0
0FC070
1F8000
1F0000
3E0000
3C0000
7C0000
780000
780000
780000
F80000
F80000
F80000
F80000
F80078
F80078
F80078
780078
780078
780078
7C0078
3C0078
3E0078
3E0078
1F8078
0FC078
07FFF8
03FFF8
01FFF0
001F00
ENDCHAR
STARTCHAR 0121
ENCODING 289
SWIDTH 500 0
DWIDTH 25 0
BBX 19 41 2 -8
BITMAP
007000
00F800
01F800
00F800
00F800
007000
000000
000000
000000
00FC00
07FFE0
0FFFE0
1FFFE0
3F01E0
7C01E0
7C01E0
7801E0
F801E0
F001E0
F001E0
F001E0
F001E0
F001E0
F001E0
F801E0
7801E0
7C01E0
7E03E0
3FFFE0
1FFFE0
0FFFE0
03FDE0
0001E0
0001E0
0001E0
0003E0
0003E0
381FC0
3FFF80
7FFF00
3FFC00
ENDCHAR
STARTCHAR 0122
ENCODING 290
SWIDTH 500 0
DWIDTH 25 0
BBX 21 41 2 -9
BITMAP
000E00
00FFE0
03FFF8
07FFF0
0FC070
1F8000
1F0000
3E0000
3C0000
7C0000
780000
780000
780000
F80000
F80000
F80000
F80000
F80078
F80078
F80078
780078
780078
780078
7C0078
3C0078
3E0078
3E0078
1F8078
0FC078
07FFF8
03FFF8
01FFF0
001F00
000000
001E00
001E00
001E00
003E00
01FC00
01F800
004000
ENDCHAR
STARTCHAR 0123
ENCODING 291
SWIDTH 500 0
DWIDTH 25 0
BBX 19 43 2 -8
BITMAP
000C00
001C00
003C00
007800
007800
00F000
00F000
00F000
000000
000000
000000
00FC00
07FFE0
0FFFE0
1FFFE0
3F01E0
7C01E0
7C01E0
7801E0
F801E0
F001E0
F001E0
F001E0
F001E0
F001E0
F001E0
F801E0
7801E0
7C01E0
7E03E0
3FFFE0
1FFFE0
0FFFE0
03FDE0
0001E0
0001E0
0001E0
0003E0
0003E0
381FC0
3FFF80
7FFF00
3FFC00
ENDCHAR
STARTCHAR 0124
ENCODING 292
SWIDTH 500 0
DWIDTH 25 0
BBX 21 41 2 0
BITMAP
002000
007000
00F800
01FC00
03DE00
078F00
070700
020200
000000
000000
F00078
F00078
F00078
F00078
F00078
F00078
F00078
F00078
F00078
F00078
F00078
F00078
F00078
FFFFF8
FFFFF8
FFFFF8
FFFFF8
F00078
F00078
F00078
F00078
F00078
F00078
F00078
F00078
F00078
F00078
F00078
F00078
F00078
F00078
ENDCHAR
STARTCHAR 0125
ENCODING 293
SWIDTH 500 0
DWIDTH 25 0
BBX 19 41 3 1
BITMAP
1C0000
3E0000
7F8000
F7C000
C1C000
800000
000000
780000
780000
780000
780000
780000
780000
780000
780000
780000
780000
79F000
7FFE00
7FFF00
7FFF80
780F80
7807C0
7803C0
7803C0
7803C0
7803E0
7803E0
7803E0
7803E0
7803E0
7803E0
7803E0
7803E0
7803E0
7803E0
7803E0
7803E0
7803E0
7803E0
7803E0
ENDCHAR
STARTCHAR 0126
ENCODING 294
SWIDTH 500 0
DWIDTH 25 0
BBX 23 31 1 0
BITMAP
1E00F0
1E00F0
1E00F0
1E00F0
1E00F0
FFFFFE
FFFFFE
FFFFFE
1E00F0
1E00F0
1E00F0
1E00F0
1E00F0
1FFFF0
1FFFF0
1FFFF0
1FFFF0
1E00F0
1E00F0
1E00F0
1E00F0
1E00F0
1E00F0
1E00F0
1E00F0
1E00F0
1E00F0
1E00F0
1E00F0
1E00F0
1E00F0
ENDCHAR
STARTCHAR 0127
ENCODING 295
SWIDTH 500 0
DWIDTH 25 0
BBX 21 35 1 0
BITMAP
020000
1E0000
1E0000
1E0000
FFFF00
FFFF00
FFFF00
FFFF00
1E0000
1E0000
1E0000
1E3C00
1FFF80
1FFFC0
1FFFE0
1F03E0
1E01F0
1E00F0
1E00F0
1E00F0
1E00F8
1E00F8
1E00F8
1E00F8
1E00F8
1E00F8
1E00F8
1E00F8
1E00F8
1E00F8
1E00F8
1E00F8
1E00F8
1E00F8
1E00F8
ENDCHAR
STARTCHAR 0128
ENCODING 296
SWIDTH 500 0
DWIDTH 25 0
BBX 17 40 4 0
BITMAP
000400
0F8E00
1FFE00
3FFC00
30F800
100000
000000
000000
000000
FFFF80
FFFF80
FFFF80
FFFF80
03E000
03E000
03E000
03E000
03E000
03E000
03E000
03E000
03E000
03E000
03E000
03E000
03E000
03E000
03E000
03E000
03E000
03E000
03E000
03E000
03E000
03E000
03E000
FFFF80
FFFF80
FFFF80
FFFF80
ENDCHAR
STARTCHAR 0129
ENCODING 297
SWIDTH 500 0
DWIDTH 25 0
BBX 19 34 3 -1
BITMAP
000800
1F0E00
3FFC00
7FF800
70F000
000000
000000
000000
000000
000000
FFE000
FFE000
FFE000
03E000
03E000
03E000
03E000
03E000
03E000
03E000
03E000
03E000
03E000
03E000
03E000
03E000
03E000
01E000
01E000
01F860
00FFE0
00FFE0
007FE0
000E00
ENDCHAR
STARTCHAR 012A
ENCODING 298
SWIDTH 500 0
DWIDTH 25 0
BBX 17 39 4 0
BITMAP
3FFE00
3FFE00
3FFE00
3FFE00
000000
000000
000000
000000
FFFF80
FFFF80
FFFF80
FFFF80
03E000
03E000
03E000
03E000
03E000
03E000
03E000
03E000
03E000
03E000
03E000
03E000
03E000
03E000
03E000
03E000
03E000
03E000
03E000
03E000
03E000
03E000
03E000
FFFF80
FFFF80
FFFF80
FFFF80
ENDCHAR
STARTCHAR 012B
ENCODING 299
SWIDTH 500 0
DWIDTH 25 0
BBX 19 33 3 -1
BITMAP
7FFC00
7FFC00
7FFC00
000000
000000
000000
000000
000000
000000
FFE000
FFE000
FFE000
03E000
03E000
03E000
03E000
03E000
03E000
03E000
03E000
03E000
03E000
03E000
03E000
03E000
03E000
01E000
01E000
01F860
00FFE0
00FFE0
007FE0
000E00
ENDCHAR
STARTCHAR 012C
ENCODING 300
SWIDTH 500 0
DWIDTH 25 0
BBX 17 40 4 0
BITMAP
180C00
1C1C00
1E3C00
0FF800
07F000
01E000
000000
000000
000000
FFFF80
FFFF80
FFFF80
FFFF80
03E000
03E000
03E000
03E000
03E000
03E000
03E000
03E000
03E000
03E000
03E000
03E000
03E000
03E000
03E000
03E000
03E000
03E000
03E000
03E000
03E000
03E000
03E000
FFFF80
FFFF80
FFFF80
FFFF80
ENDCHAR
STARTCHAR 012D
ENCODING 301
SWIDTH 500 0
DWIDTH 25 0
BBX 19 34 3 -1
BITMAP
381C00
383C00
3C7800
1FF800
0FF000
038000
000000
000000
000000
000000
FFE000
FFE000
FFE000
03E000
03E000
03E000
03E000
03E000
03E000
03E000
03E000
03E000
03E000
03E000
03E000
03E000
03E000
01E000
01E000
01F860
00FFE0
00FFE0
007FE0
000E00
ENDCHAR
STARTCHAR 012E
ENCODING 302
SWIDTH 500 0
DWIDTH 25 0
BBX 17 39 4 -8
BITMAP
FFFF80
FFFF80
FFFF80
FFFF80
03E000
03E000
03E000
03E000
03E000
03E000
03E000
03E000
03E000
03E000
03E000
03E000
03E000
03E000
03E000
03E000
03E000
03E000
03E000
03E000
03E000
03E000
03E000
FFFF80
FFFF80
FFFF80
FFFF80
03C000
078000
0F0000
0E0000
1E0000
1FE000
0FE000
07E000
ENDCHAR
STARTCHAR 012F
ENCODING 303
SWIDTH 500 0
DWIDTH 25 0
BBX 19 42 3 -8
BITMAP
010000
07C000
0FC000
0FE000
0FE000
07C000
07C000
000000
000000
000000
000000
FFE000
FFE000
FFE000
03E000
03E000
03E000
03E000
03E000
03E000
03E000
03E000
03E000
03E000
03E000
03E000
03E000
03E000
01E000
01E000
01F860
00FFE0
00FFE0
007FE0
000FC0
000780
000F00
001E00
001E00
001FE0
001FE0
000FE0
ENDCHAR
STARTCHAR 0130
ENCODING 304
SWIDTH 500 0
DWIDTH 25 0
BBX 17 40 4 0
BITMAP
01C000
03E000
07E000
03E000
03E000
01C000
000000
000000
000000
FFFF80
FFFF80
FFFF80
FFFF80
03E000
03E000
03E000
03E000
03E000
03E000
03E000
03E000
03E000
03E000
03E000
03E000
03E000
03E000
03E000
03E000
03E000
03E000
03E000
03E000
03E000
03E000
03E000
FFFF80
FFFF80
FFFF80
FFFF80
ENDCHAR
STARTCHAR 0131
ENCODING 305
SWIDTH 500 0
DWIDTH 25 0
BBX 19 24 3 -1
BITMAP
FFE000
FFE000
FFE000
03E000
03E000
03E000
03E000
03E000
03E000
03E000
03E000
03E000
03E000
03E000
03E000
03E000
03E000
01E000
01E000
01F860
00FFE0
00FFE0
007FE0
000E00
ENDCHAR
STARTCHAR 0132
ENCODING 306
SWIDTH 500 0
DWIDTH 25 0
BBX 22 32 2 -1
BITMAP
F0007C
F0007C
F0007C
F0007C
F0007C
F0007C
F0007C
F0007C
F0007C
F0007C
F0007C
F0007C
F0007C
F0007C
F0007C
F0007C
F0007C
F0007C
F0007C
F0007C
F0007C
F0007C
F0007C
F0007C
F00078
F00078
F08078
F0E0F8
F1FFF0
F1FFE0
F07FC0
000E00
ENDCHAR
STARTCHAR 0133
ENCODING 307
SWIDTH 500 0
DWIDTH 25 0
BBX 17 41 4 -8
BITMAP
380F00
7C1F00
FC1F80
FC1F80
7C1F00
380E00
000000
000000
000000
000000
7C0F00
7C0F00
7C0F00
7C0F00
7C0F00
7C0F00
7C0F00
7C0F00
7C0F00
7C0F00
7C0F00
7C0F00
7C0F00
7C0F00
7C0F00
7C0F00
7C0F00
7C0F00
7C0F00
7C0F00
7C0F00
7C0F00
7C0F00
001F00
001F00
001E00
001E00
047E00
07FC00
07F800
07F000
ENDCHAR
STARTCHAR 0134
ENCODING 308
SWIDTH 500 0
DWIDTH 25 0
BBX 18 42 3 -1
BITMAP
001800
003C00
007E00
00FF00
01FF80
01C380
0381C0
010080
000000
000000
1FFFC0
1FFFC0
1FFFC0
1FFFC0
0003C0
0003C0
0003C0
0003C0
0003C0
0003C0
0003C0
0003C0
0003C0
0003C0
0003C0
0003C0
0003C0
0003C0
0003C0
0003C0
0003C0
0003C0
0003C0
0003C0
0007C0
000780
400F80
701F80
FFFF00
FFFE00
3FF800
03C000
ENDCHAR
STARTCHAR 0135
ENCODING 309
SWIDTH 500 0
DWIDTH 25 0
BBX 15 43 4 -9
BITMAP
0040
00E0
01F0
03F8
07BC
0F1E
0E0E
0404
0000
0000
0000
3FFE
3FFE
3FFE
001E
001E
001E
001E
001E
001E
001E
001E
001E
001E
001E
001E
001E
001E
001E
001E
001E
001E
001E
001E
001E
001E
001E
003E
F0FC
FFFC
FFF8
7FE0
0200
ENDCHAR
STARTCHAR 0136
ENCODING 310
SWIDTH 500 0
DWIDTH 25 0
BBX 21 40 3 -9
BITMAP
F001F0
F001E0
F003E0
F007C0
F00F80
F00F80
F01F00
F03E00
F07C00
F0F800
F1F000
F3F000
F3E000
F7C000
FF8000
FFC000
F7E000
F3F000
F1F800
F0FC00
F07E00
F03F00
F01F00
F00F80
F007C0
F003E0
F003E0
F001F0
F001F0
F000F8
F00078
000000
000000
00F000
00F000
00F000
01F000
07E000
07C000
020000
ENDCHAR
STARTCHAR 0137
ENCODING 311
SWIDTH 500 0
DWIDTH 25 0
BBX 20 44 4 -9
BITMAP
100000
F00000
F00000
F00000
F00000
F00000
F00000
F00000
F00000
F00000
F00000
F00000
F003E0
F007C0
F00F80
F01E00
F07C00
F0F800
F1F000
F3E000
F7C000
FF8000
FF0000
FF8000
F7E000
F3F000
F1F800
F0FC00
F07E00
F03F00
F01F80
F00F80
F007C0
F003E0
F001F0
000000
000000
01E000
01E000
01E000
03E000
0FC000
0F8000
040000
ENDCHAR
STARTCHAR 0138
ENCODING 312
SWIDTH 500 0
DWIDTH 25 0
BBX 20 23 4 0
BITMAP
F003E0
F007C0
F00F80
F01E00
F07C00
F0F800
F1F000
F3E000
F7C000
FF8000
FF0000
FF8000
F7E000
F3F000
F1F800
F0FC00
F07E00
F03F00
F01F80
F00F80
F007C0
F003E0
F001F0
ENDCHAR
STARTCHAR 0139
ENCODING 313
SWIDTH 500 0
DWIDTH 25 0
BBX 18 41 5 1
BITMAP
060000
0F0000
0F0000
1E0000
3C0000
780000
F00000
200000
000000
000000
F00000
F00000
F00000
F00000
F00000
F00000
F00000
F00000
F00000
F00000
F00000
F00000
F00000
F00000
F00000
F00000
F00000
F00000
F00000
F00000
F00000
F00000
F00000
F00000
F00000
F00000
F00000
FFFFC0
FFFFC0
FFFFC0
FFFFC0
ENDCHAR
STARTCHAR 013A
ENCODING 314
SWIDTH 500 0
DWIDTH 25 0
BBX 19 42 3 0
BITMAP
003000
00F800
03F800
07E000
070000
000000
000000
FFE000
FFE000
FFE000
FFE000
03E000
03E000
03E000
03E000
03E000
03E000
03E000
03E000
03E000
03E000
03E000
03E000
03E000
03E000
03E000
03E000
03E000
03E000
03E000
03E000
03E000
03E000
03E000
03E000
01E000
01E000
01F060
00FFE0
00FFE0
007FE0
000E00
ENDCHAR
STARTCHAR 013B
ENCODING 315
SWIDTH 500 0
DWIDTH 25 0
BBX 18 40 5 -9
BITMAP
F00000
F00000
F00000
F00000
F00000
F00000
F00000
F00000
F00000
F00000
F00000
F00000
F00000
F00000
F00000
F00000
F00000
F00000
F00000
F00000
F00000
F00000
F00000
F00000
F00000
F00000
F00000
FFFFC0
FFFFC0
FFFFC0
FFFFC0
000000
000000
01E000
01E000
01E000
03E000
0FC000
0F8000
040000
ENDCHAR
STARTCHAR 013C
ENCODING 316
SWIDTH 500 0
DWIDTH 25 0
BBX 19 43 3 -9
BITMAP
FFE000
FFE000
FFE000
03E000
03E000
03E000
03E000
03E000
03E000
03E000
03E000
03E000
03E000
03E000
03E000
03E000
03E000
03E000
03E000
03E000
03E000
03E000
03E000
03E000
03E000
03E000
03E000
03E000
01E000
01E000
01F060
00FFE0
00FFE0
007FE0
000E00
000000
000F00
000F00
001F00
001E00
00FE00
00FC00
002000
ENDCHAR
STARTCHAR 013D
ENCODING 317
SWIDTH 500 0
DWIDTH 25 0
BBX 18 31 5 0
BITMAP
F0F000
F0E000
F0E000
F0E000
F0E000
F0E000
F0E000
F0E000
F0E000
F0E000
F00000
F00000
F00000
F00000
F00000
F00000
F00000
F00000
F00000
F00000
F00000
F00000
F00000
F00000
F00000
F00000
F00000
FFFFC0
FFFFC0
FFFFC0
FFFFC0
ENDCHAR
STARTCHAR 013E
ENCODING 318
SWIDTH 500 0
DWIDTH 25 0
BBX 19 36 3 -1
BITMAP
0003C0
FFE3C0
FFE3C0
FFE3C0
03E3C0
03E380
03E380
03E380
03E380
03E380
03E000
03E000
03E000
03E000
03E000
03E000
03E000
03E000
03E000
03E000
03E000
03E000
03E000
03E000
03E000
03E000
03E000
03E000
03E000
01E000
01E000
01F060
00FFE0
00FFE0
007FE0
000E00
ENDCHAR
STARTCHAR 013F
ENCODING 319
SWIDTH 500 0
DWIDTH 25 0
BBX 18 31 5 0
BITMAP
F00000
F00000
F00000
F00000
F00000
F00000
F00000
F00000
F00000
F00000
F00000
F00000
F01E00
F03F00
F03F00
F03F00
F01F00
F00E00
F00000
F00000
F00000
F00000
F00000
F00000
F00000
F00000
F00000
FFFFC0
FFFFC0
FFFFC0
FFFFC0
ENDCHAR
STARTCHAR 0140
ENCODING 320
SWIDTH 500 0
DWIDTH 25 0
BBX 24 35 3 -1
BITMAP
FFE000
FFE000
FFE000
03E000
03E000
03E000
03E000
03E000
03E000
03E000
03E000
03E000
03E000
03E000
03E000
03E01E
03E03F
03E03F
03E03F
03E03E
03E00C
03E000
03E000
03E000
03E000
03E000
03E000
03E000
01E000
01E000
01F060
00FFE0
00FFE0
007FE0
000E00
ENDCHAR
STARTCHAR 0141
ENCODING 321
SWIDTH 500 0
DWIDTH 25 0
BBX 22 31 1 0
BITMAP
078000
078000
078000
078000
078000
078000
078000
078000
078000
078000
078E00
07BE00
07FF00
07FC00
07F000
1FC000
7F8000
FF8000
778000
478000
078000
078000
078000
078000
078000
078000
078000
07FFFC
07FFFC
07FFFC
07FFFC
ENDCHAR
STARTCHAR 0142
ENCODING 322
SWIDTH 500 0
DWIDTH 25 0
BBX 19 35 3 -1
BITMAP
FFE000
FFE000
FFE000
03E000
03E000
03E000
03E000
03E000
03E000
03E000
03E000
03E200
03EE00
03FF00
03FE00
03F800
0FE000
3FE000
3FE000
1BE000
03E000
03E000
03E000
03E000
03E000
03E000
03E000
03E000
01E000
01E000
01F060
00FFE0
00FFE0
007FE0
000E00
ENDCHAR
STARTCHAR 0143
ENCODING 323
SWIDTH 500 0
DWIDTH 25 0
BBX 19 41 3 1
BITMAP
001800
003C00
007C00
00F800
00F000
01E000
03C000
018000
000000
000000
F001E0
F801E0
F801E0
FC01E0
FC01E0
FE01E0
FE01E0
FF01E0
F781E0
F781E0
F3C1E0
F3C1E0
F1E1E0
F1E1E0
F0E1E0
F0F1E0
F071E0
F079E0
F039E0
F03DE0
F01DE0
F01FE0
F01FE0
F00FE0
F00FE0
F007E0
F007E0
F003E0
F003E0
F003E0
F001E0
ENDCHAR
STARTCHAR 0144
ENCODING 324
SWIDTH 500 0
DWIDTH 25 0
BBX 18 34 4 1
BITMAP
003000
007800
00F800
01F000
03E000
03C000
078000
030000
000000
000000
07E000
FFFC00
FFFE00
FFFF00
F01F00
F00F80
F00780
F00780
F007C0
F007C0
F007C0
F007C0
F007C0
F007C0
F007C0
F007C0
F007C0
F007C0
F007C0
F007C0
F007C0
F007C0
F007C0
F007C0
ENDCHAR
STARTCHAR 0145
ENCODING 325
SWIDTH 500 0
DWIDTH 25 0
BBX 19 40 3 -9
BITMAP
F001E0
F801E0
F801E0
FC01E0
FC01E0
FE01E0
FE01E0
FF01E0
F781E0
F781E0
F3C1E0
F3C1E0
F1E1E0
F1E1E0
F0E1E0
F0F1E0
F071E0
F079E0
F039E0
F03DE0
F01DE0
F01FE0
F01FE0
F00FE0
F00FE0
F007E0
F007E0
F003E0
F003E0
F003E0
F001E0
000000
000000
00F800
00F800
00F800
01F000
07F000
07E000
010000
ENDCHAR
STARTCHAR 0146
ENCODING 326
SWIDTH 500 0
DWIDTH 25 0
BBX 18 33 4 -9
BITMAP
07E000
FFFC00
FFFE00
FFFF00
F01F00
F00F80
F00780
F00780
F007C0
F007C0
F007C0
F007C0
F007C0
F007C0
F007C0
F007C0
F007C0
F007C0
F007C0
F007C0
F007C0
F007C0
F007C0
F007C0
000000
000000
01E000
01E000
01E000
03E000
0FC000
0F8000
040000
ENDCHAR
STARTCHAR 0147
ENCODING 327
SWIDTH 500 0
DWIDTH 25 0
BBX 19 41 3 0
BITMAP
0C0600
1E0F00
0F1E00
07FC00
03F800
01F000
00E000
004000
000000
000000
F001E0
F801E0
F801E0
FC01E0
FC01E0
FE01E0
FE01E0
FF01E0
F781E0
F781E0
F3C1E0
F3C1E0
F1E1E0
F1E1E0
F0E1E0
F0F1E0
F071E0
F079E0
F039E0
F03DE0
F01DE0
F01FE0
F01FE0
F00FE0
F00FE0
F007E0
F007E0
F003E0
F003E0
F003E0
F001E0
ENDCHAR
STARTCHAR 0148
ENCODING 328
SWIDTH 500 0
DWIDTH 25 0
BBX 18 34 4 1
BITMAP
180C00
3C1E00
1F7C00
0FF800
07F000
03E000
01C000
008000
000000
000000
07E000
FFFC00
FFFE00
FFFF00
F01F00
F00F80
F00780
F00780
F007C0
F007C0
F007C0
F007C0
F007C0
F007C0
F007C0
F007C0
F007C0
F007C0
F007C0
F007C0
F007C0
F007C0
F007C0
F007C0
ENDCHAR
STARTCHAR 0149
ENCODING 329
SWIDTH 500 0
DWIDTH 25 0
BBX 21 35 1 0
BITMAP
780000
780000
780000
780000
780000
700000
F00000
F00000
E00000
000000
000000
00FC00
1FFF80
1FFFC0
1FFFE0
1E03E0
1E01F0
1E00F0
1E00F0
1E00F8
1E00F8
1E00F8
1E00F8
1E00F8
1E00F8
1E00F8
1E00F8
1E00F8
1E00F8
1E00F8
1E00F8
1E00F8
1E00F8
1E00F8
1E00F8
ENDCHAR
STARTCHAR 014A
ENCODING 330
SWIDTH 500 0
DWIDTH 25 0
BBX 19 39 3 -8
BITMAP
F001E0
F801E0
F801E0
FC01E0
FC01E0
FE01E0
FF01E0
FF01E0
F781E0
F781E0
F3C1E0
F3C1E0
F1E1E0
F1E1E0
F0F1E0
F0F1E0
F079E0
F079E0
F03DE0
F03DE0
F01FE0
F01FE0
F00FE0
F00FE0
F007E0
F007E0
F003E0
F003E0
F001E0
F001E0
F001E0
0001E0
0001E0
0001E0
0001E0
0003E0
001FE0
001FC0
003F80
ENDCHAR
STARTCHAR 014B
ENCODING 331
SWIDTH 500 0
DWIDTH 25 0
BBX 18 32 4 -8
BITMAP
07E000
FFFC00
FFFE00
FFFF00
F01F00
F00F80
F00780
F00780
F007C0
F007C0
F007C0
F007C0
F007C0
F007C0
F007C0
F007C0
F007C0
F007C0
F007C0
F007C0
F007C0
F007C0
F007C0
F007C0
0007C0
0007C0
000780
000780
000F80
007F80
00FF00
00FE00
ENDCHAR
STARTCHAR 014C
ENCODING 332
SWIDTH 500 0
DWIDTH 25 0
BBX 23 40 1 -1
BITMAP
07FFC0
07FFC0
07FFC0
07FFC0
000000
000000
000000
003800
01FF00
07FFC0
0FFFE0
1F83F0
1E01F0
3E00F8
3C0078
7C007C
78003C
78003C
78003C
78003C
78003C
F8003E
F8003E
F8003E
F8003E
F8003E
78003C
78003C
78003C
78003C
78003C
7C007C
3C0078
3E00F8
1E01F0
1F83F0
0FFFE0
07FFC0
01FF00
007800
ENDCHAR
STARTCHAR 014D
ENCODING 333
SWIDTH 500 0
DWIDTH 25 0
BBX 21 33 2 -1
BITMAP
0FFF80
0FFF80
0FFF80
000000
000000
000000
000000
000000
00F800
03FE00
0FFF80
1FFFC0
3F07E0
3E03E0
7C01F0
7800F0
F800F8
F800F8
F00078
F00078
F00078
F00078
F00078
F800F8
F800F0
7800F0
7C01F0
3E03E0
3F8FE0
1FFFC0
0FFF80
03FE00
003000
ENDCHAR
STARTCHAR 014E
ENCODING 334
SWIDTH 500 0
DWIDTH 25 0
BBX 23 41 1 -1
BITMAP
030180
038380
03C780
01FF00
00FE00
003C00
000000
000000
003800
01FF00
07FFC0
0FFFE0
1F83F0
1E01F0
3E00F8
3C0078
7C007C
78003C
78003C
78003C
78003C
78003C
F8003E
F8003E
F8003E
F8003E
F8003E
78003C
78003C
78003C
78003C
78003C
7C007C
3C0078
3E00F8
1E01F0
1F83F0
0FFFE0
07FFC0
01FF00
007800
ENDCHAR
STARTCHAR 014F
ENCODING 335
SWIDTH 500 0
DWIDTH 25 0
BBX 21 34 2 -1
BITMAP
060300
070700
078F00
03FE00
01FC00
007000
000000
000000
000000
00F800
03FE00
0FFF80
1FFFC0
3F07E0
3E03E0
7C01F0
7800F0
F800F8
F800F8
F00078
F00078
F00078
F00078
F00078
F800F8
F800F0
7800F0
7C01F0
3E03E0
3F8FE0
1FFFC0
0FFF80
03FE00
003000
ENDCHAR
STARTCHAR 0150
ENCODING 336
SWIDTH 500 0
DWIDTH 25 0
BBX 23 42 1 0
BITMAP
003020
007870
0078F0
00F1E0
01E1E0
01C3C0
03C780
018300
000000
003800
01FF00
07FFC0
0FFFE0
1F83F0
1E01F0
3E00F8
3C0078
7C007C
78003C
78003C
78003C
78003C
78003C
F8003E
F8003E
F8003E
F8003E
F8003E
78003C
78003C
78003C
78003C
78003C
7C007C
3C0078
3E00F8
1E01F0
1F83F0
0FFFE0
07FFC0
01FF00
007800
ENDCHAR
STARTCHAR 0151
ENCODING 337
SWIDTH 500 0
DWIDTH 25 0
BBX 21 35 2 0
BITMAP
0060C0
00F0E0
00F1E0
01E3C0
03C380
038780
070F00
020600
000000
000000
00F800
03FE00
0FFF80
1FFFC0
3F07E0
3E03E0
7C01F0
7800F0
F800F8
F800F8
F00078
F00078
F00078
F00078
F00078
F800F8
F800F0
7800F0
7C01F0
3E03E0
3F8FE0
1FFFC0
0FFF80
03FE00
003000
ENDCHAR
STARTCHAR 0152
ENCODING 338
SWIDTH 500 0
DWIDTH 25 0
BBX 23 31 1 0
BITMAP
01FFFC
07FFFC
0FFFFC
1F8FFC
1E0F00
3C0F00
3C0F00
7C0F00
780F00
780F00
780F00
780F00
F80F00
F00FF8
F00FF8
F00FF8
F00FF8
F00F00
F00F00
F00F00
780F00
780F00
780F00
780F00
7C0F00
3C0F00
3E0F00
1F8FFE
0FFFFE
07FFFE
03FFFE
ENDCHAR
STARTCHAR 0153
ENCODING 339
SWIDTH 500 0
DWIDTH 25 0
BBX 22 24 2 -1
BITMAP
0F0180
1F87E0
3FCFF0
7FEFF8
79FC78
F0FC38
F0FC38
F0783C
F0783C
E0783C
E07FFC
E07FFC
E07FFC
E07FFC
E07800
F07800
F07800
F07C00
F0FC00
78FE00
79FF18
7FCFF8
3FCFF8
1F87F8
ENDCHAR
STARTCHAR 0154
ENCODING 340
SWIDTH 500 0
DWIDTH 25 0
BBX 20 41 3 1
BITMAP
003000
003800
007C00
00F800
01E000
03C000
038000
010000
000000
000000
FFF800
FFFE00
FFFF00
F03F80
F00F80
F007C0
F003C0
F003C0
F003E0
F003E0
F003E0
F003C0
F003C0
F007C0
F00F80
FFFF00
FFFE00
FFFC00
FFF800
F03C00
F03E00
F01E00
F00F00
F00F00
F00780
F00780
F003C0
F003C0
F001E0
F001E0
F000F0
ENDCHAR
STARTCHAR 0155
ENCODING 341
SWIDTH 500 0
DWIDTH 25 0
BBX 17 35 5 0
BITMAP
001000
003800
003C00
007C00
00F800
01F000
03E000
03C000
010000
000000
000000
00FC00
3FFF80
FFFF80
FFFF00
FC0000
F00000
F00000
F00000
F00000
F00000
F00000
F00000
F00000
F00000
F00000
F00000
F00000
F00000
F00000
F00000
F00000
F00000
F00000
F00000
ENDCHAR
STARTCHAR 0156
ENCODING 342
SWIDTH 500 0
DWIDTH 25 0
BBX 20 40 3 -9
BITMAP
FFF800
FFFE00
FFFF00
F03F80
F00F80
F007C0
F003C0
F003C0
F003E0
F003E0
F003E0
F003C0
F003C0
F007C0
F00F80
FFFF00
FFFE00
FFFC00
FFF800
F03C00
F03E00
F01E00
F00F00
F00F00
F00780
F00780
F003C0
F003C0
F001E0
F001E0
F000F0
000000
000000
01E000
01E000
01E000
03E000
0FC000
0F8000
040000
ENDCHAR
STARTCHAR 0157
ENCODING 343
SWIDTH 500 0
DWIDTH 25 0
BBX 20 33 2 -9
BITMAP
001F80
07FFF0
1FFFF0
1FFFE0
1F8000
1E0000
1E0000
1E0000
1E0000
1E0000
1E0000
1E0000
1E0000
1E0000
1E0000
1E0000
1E0000
1E0000
1E0000
1E0000
1E0000
1E0000
1E0000
1E0000
000000
000000
1E0000
1F0000
1E0000
3E0000
FE0000
FC0000
200000
ENDCHAR
STARTCHAR 0158
ENCODING 344
SWIDTH 500 0
DWIDTH 25 0
BBX 20 41 3 0
BITMAP
181800
3C3C00
1E7800
0FF000
07E000
03C000
01C000
008000
000000
000000
FFF800
FFFE00
FFFF00
F03F80
F00F80
F007C0
F003C0
F003C0
F003E0
F003E0
F003E0
F003C0
F003C0
F007C0
F00F80
FFFF00
FFFE00
FFFC00
FFF800
F03C00
F03E00
F01E00
F00F00
F00F00
F00780
F00780
F003C0
F003C0
F001E0
F001E0
F000F0
ENDCHAR
STARTCHAR 0159
ENCODING 345
SWIDTH 500 0
DWIDTH 25 0
BBX 17 34 5 1
BITMAP
0C0600
1E1E00
0F3C00
07F800
03F000
01F000
00E000
004000
000000
000000
00FC00
3FFF80
FFFF80
FFFF00
FC0000
F00000
F00000
F00000
F00000
F00000
F00000
F00000
F00000
F00000
F00000
F00000
F00000
F00000
F00000
F00000
F00000
F00000
F00000
F00000
ENDCHAR
STARTCHAR 015A
ENCODING 346
SWIDTH 500 0
DWIDTH 25 0
BBX 19 42 3 0
BITMAP
001800
003C00
003C00
007800
00F000
01E000
03C000
008000
000000
00F000
07FF80
1FFFC0
3FFFC0
3E0380
7C0080
780000
780000
F80000
780000
780000
7C0000
7E0000
3F8000
1FE000
0FF800
03FE00
00FF00
003F80
000FC0
0007E0
0003E0
0001E0
0001E0
0001E0
0001E0
0001E0
4003E0
F00FC0
FFFFC0
FFFF80
3FFE00
03E000
ENDCHAR
STARTCHAR 015B
ENCODING 347
SWIDTH 500 0
DWIDTH 25 0
BBX 19 35 3 0
BITMAP
001800
003C00
007C00
00F800
01F000
01E000
03C000
018000
000000
000000
00FC00
0FFFC0
1FFF80
3FFF80
7C0080
780000
780000
780000
7C0000
7F0000
3FC000
1FF800
07FE00
01FF00
003F80
0007C0
0003E0
0003E0
0001E0
4003E0
7807C0
7FFFC0
FFFF80
3FFE00
028000
ENDCHAR
STARTCHAR 015C
ENCODING 348
SWIDTH 500 0
DWIDTH 25 0
BBX 19 42 3 -1
BITMAP
006000
00F000
01F800
03FC00
07FE00
0F1E00
0E0700
040200
000000
00F000
07FF80
1FFFC0
3FFFC0
3E0380
7C0080
780000
780000
F80000
780000
780000
7C0000
7E0000
3F8000
1FE000
0FF800
03FE00
00FF00
003F80
000FC0
0007E0
0003E0
0001E0
0001E0
0001E0
0001E0
0001E0
4003E0
F00FC0
FFFFC0
FFFF80
3FFE00
03E000
ENDCHAR
STARTCHAR 015D
ENCODING 349
SWIDTH 500 0
DWIDTH 25 0
BBX 19 35 3 -1
BITMAP
006000
00F000
01F800
03FC00
07FE00
0F0E00
0E0700
040200
000000
000000
00FC00
0FFFC0
1FFF80
3FFF80
7C0080
780000
780000
780000
7C0000
7F0000
3FC000
1FF800
07FE00
01FF00
003F80
0007C0
0003E0
0003E0
0001E0
4003E0
7807C0
7FFFC0
FFFF80
3FFE00
028000
ENDCHAR
STARTCHAR 015E
ENCODING 350
SWIDTH 500 0
DWIDTH 25 0
BBX 19 40 3 -8
BITMAP
00F000
07FF80
1FFFC0
3FFFC0
3E0380
7C0080
780000
780000
F80000
780000
780000
7C0000
7E0000
3F8000
1FE000
0FF800
03FE00
00FF00
003F80
000FC0
0007E0
0003E0
0001E0
0001E0
0001E0
0001E0
0001E0
4003E0
F00FC0
FFFF80
FFFF00
3FFE00
03E000
01C000
01F000
00F000
007800
047800
07F000
0FE000
ENDCHAR
STARTCHAR 015F
ENCODING 351
SWIDTH 500 0
DWIDTH 25 0
BBX 19 32 3 -8
BITMAP
00FC00
0FFFC0
1FFF80
3FFF80
7C0080
780000
780000
780000
7C0000
7F0000
3FC000
1FF800
07FE00
01FF00
003F80
0007C0
0003E0
0003E0
0001E0
4003E0
7807C0
7FFFC0
FFFF80
3FFE00
01E000
01C000
01F000
00F000
007800
047800
07F000
0FE000
ENDCHAR
STARTCHAR 0160
ENCODING 352
SWIDTH 500 0
DWIDTH 25 0
BBX 19 42 3 -1
BITMAP
060300
0F0700
079F00
03FE00
01FC00
00F800
007000
002000
000000
00F000
07FF80
1FFFC0
3FFFC0
3E0380
7C0080
780000
780000
F80000
780000
780000
7C0000
7E0000
3F8000
1FE000
0FF800
03FE00
00FF00
003F80
000FC0
0007E0
0003E0
0001E0
0001E0
0001E0
0001E0
0001E0
4003E0
F00FC0
FFFFC0
FFFF80
3FFE00
03E000
ENDCHAR
STARTCHAR 0161
ENCODING 353
SWIDTH 500 0
DWIDTH 25 0
BBX 19 35 3 0
BITMAP
060600
0F0F00
079E00
03FC00
01F800
00F000
006000
000000
000000
000000
00FC00
0FFFC0
1FFF80
3FFF80
7C0080
780000
780000
780000
7C0000
7F0000
3FC000
1FF800
07FE00
01FF00
003F80
0007C0
0003E0
0003E0
0001E0
4003E0
7807C0
7FFFC0
FFFF80
3FFE00
028000
ENDCHAR
STARTCHAR 0162
ENCODING 354
SWIDTH 500 0
DWIDTH 25 0
BBX 21 39 2 -8
BITMAP
FFFFF8
FFFFF8
FFFFF8
FFFFF8
00F800
00F800
00F800
00F800
00F800
00F800
00F800
00F800
00F800
00F800
00F800
00F800
00F800
00F800
00F800
00F800
00F800
00F800
00F800
00F800
00F800
00F800
00F800
00F800
00F800
00F800
00F800
007000
00E000
00F800
007800
003C00
023C00
03F800
07F000
ENDCHAR
STARTCHAR 0163
ENCODING 355
SWIDTH 500 0
DWIDTH 25 0
BBX 19 38 3 -8
BITMAP
078000
078000
078000
078000
078000
078000
078000
FFFFE0
FFFFE0
FFFFE0
078000
078000
078000
078000
078000
078000
078000
078000
078000
078000
078000
078000
078000
078000
07C000
07C000
03E060
03FFE0
01FFE0
00FFE0
001C00
001800
003E00
001E00
000F00
008F00
00FE00
00FE00
ENDCHAR
STARTCHAR 0164
ENCODING 356
SWIDTH 500 0
DWIDTH 25 0
BBX 21 41 2 0
BITMAP
060300
0F0780
078F00
03FE00
01FC00
00F800
007000
002000
000000
000000
FFFFF8
FFFFF8
FFFFF8
FFFFF8
00F800
00F800
00F800
00F800
00F800
00F800
00F800
00F800
00F800
00F800
00F800
00F800
00F800
00F800
00F800
00F800
00F800
00F800
00F800
00F800
00F800
00F800
00F800
00F800
00F800
00F800
00F800
ENDCHAR
STARTCHAR 0165
ENCODING 357
SWIDTH 500 0
DWIDTH 25 0
BBX 19 36 3 -1
BITMAP
000780
000780
000700
000700
000700
078700
078700
078700
078700
078000
078000
078000
FFFFE0
FFFFE0
FFFFE0
078000
078000
078000
078000
078000
078000
078000
078000
078000
078000
078000
078000
078000
078000
07C000
07C000
03E060
03FFE0
01FFE0
00FFE0
000400
ENDCHAR
STARTCHAR 0166
ENCODING 358
SWIDTH 500 0
DWIDTH 25 0
BBX 21 31 2 0
BITMAP
FFFFF8
FFFFF8
FFFFF8
FFFFF8
00F800
00F800
00F800
00F800
00F800
00F800
00F800
00F800
00F800
00F800
3FFFC0
3FFFC0
3FFFC0
00F800
00F800
00F800
00F800
00F800
00F800
00F800
00F800
00F800
00F800
00F800
00F800
00F800
00F800
ENDCHAR
STARTCHAR 0167
ENCODING 359
SWIDTH 500 0
DWIDTH 25 0
BBX 19 31 3 -1
BITMAP
078000
078000
078000
078000
078000
078000
078000
FFFFE0
FFFFE0
FFFFE0
078000
078000
078000
078000
078000
078000
FFFFE0
FFFFE0
FFFFE0
078000
078000
078000
078000
078000
07C000
07C000
03E060
03FFE0
01FFE0
00FFE0
000400
ENDCHAR
STARTCHAR 0168
ENCODING 360
SWIDTH 500 0
DWIDTH 25 0
BBX 21 41 2 -1
BITMAP
000100
03E380
07FF80
0FFF00
0C3E00
040000
000000
000000
000000
F800F8
F800F8
F800F8
F800F8
F800F8
F800F8
F800F8
F800F8
F800F8
F800F8
F800F8
F800F8
F800F8
F800F8
F800F8
F800F8
F800F8
F800F8
F800F8
F800F8
F800F8
F800F8
F800F0
7800F0
7800F0
7C01F0
7C01F0
3F07E0
1FFFC0
0FFF80
07FF00
00F000
ENDCHAR
STARTCHAR 0169
ENCODING 361
SWIDTH 500 0
DWIDTH 25 0
BBX 18 34 3 -1
BITMAP
030200
0FC700
0FFF00
1FFE00
187C00
000000
000000
000000
000000
000000
F803C0
F803C0
F803C0
F803C0
F803C0
F803C0
F803C0
F803C0
F803C0
F803C0
F803C0
F803C0
F803C0
F803C0
F803C0
7803C0
7803C0
7803C0
7C03C0
3F03C0
3FFFC0
1FFFC0
07FFC0
006000
ENDCHAR
STARTCHAR 016A
ENCODING 362
SWIDTH 500 0
DWIDTH 25 0
BBX 21 40 2 -1
BITMAP
0FFF80
0FFF80
0FFF80
0FFF80
000000
000000
000000
000000
F800F8
F800F8
F800F8
F800F8
F800F8
F800F8
F800F8
F800F8
F800F8
F800F8
F800F8
F800F8
F800F8
F800F8
F800F8
F800F8
F800F8
F800F8
F800F8
F800F8
F800F8
F800F8
F800F0
7800F0
7800F0
7C01F0
7C01F0
3F07E0
1FFFC0
0FFF80
07FF00
00F000
ENDCHAR
STARTCHAR 016B
ENCODING 363
SWIDTH 500 0
DWIDTH 25 0
BBX 18 33 3 -1
BITMAP
1FFF00
1FFF00
1FFF00
000000
000000
000000
000000
000000
000000
F803C0
F803C0
F803C0
F803C0
F803C0
F803C0
F803C0
F803C0
F803C0
F803C0
F803C0
F803C0
F803C0
F803C0
F803C0
7803C0
7803C0
7803C0
7C03C0
3F03C0
3FFFC0
1FFFC0
07FFC0
006000
ENDCHAR
STARTCHAR 016C
ENCODING 364
SWIDTH 500 0
DWIDTH 25 0
BBX 21 41 2 -1
BITMAP
060300
070700
078F00
03FE00
01FC00
007800
000000
000000
000000
F800F8
F800F8
F800F8
F800F8
F800F8
F800F8
F800F8
F800F8
F800F8
F800F8
F800F8
F800F8
F800F8
F800F8
F800F8
F800F8
F800F8
F800F8
F800F8
F800F8
F800F8
F800F8
F800F0
7800F0
7800F0
7C01F0
7C01F0
3F07E0
1FFFC0
0FFF80
07FF00
00F000
ENDCHAR
STARTCHAR 016D
ENCODING 365
SWIDTH 500 0
DWIDTH 25 0
BBX 18 34 3 -1
BITMAP
0C0600
0E0E00
0F1E00
07FC00
03F800
00E000
000000
000000
000000
000000
F803C0
F803C0
F803C0
F803C0
F803C0
F803C0
F803C0
F803C0
F803C0
F803C0
F803C0
F803C0
F803C0
F803C0
F803C0
7803C0
7803C0
7803C0
7C03C0
3F03C0
3FFFC0
1FFFC0
07FFC0
006000
ENDCHAR
STARTCHAR 016E
ENCODING 366
SWIDTH 500 0
DWIDTH 25 0
BBX 21 43 2 -1
BITMAP
002000
00F800
01FC00
038E00
030600
030600
038E00
01DC00
01FC00
002000
000000
F800F8
F800F8
F800F8
F800F8
F800F8
F800F8
F800F8
F800F8
F800F8
F800F8
F800F8
F800F8
F800F8
F800F8
F800F8
F800F8
F800F8
F800F8
F800F8
F800F8
F800F8
F800F8
F800F0
7800F0
7800F0
7C01F0
7C01F0
3F07E0
1FFFC0
0FFF80
07FF00
00F000
ENDCHAR
STARTCHAR 016F
ENCODING 367
SWIDTH 500 0
DWIDTH 25 0
BBX 18 36 3 -1
BITMAP
00E000
03F800
073C00
060C00
060C00
060C00
071C00
03F800
01F000
000000
000000
000000
F803C0
F803C0
F803C0
F803C0
F803C0
F803C0
F803C0
F803C0
F803C0
F803C0
F803C0
F803C0
F803C0
F803C0
F803C0
7803C0
7803C0
7803C0
7C03C0
3F03C0
3FFFC0
1FFFC0
07FFC0
006000
ENDCHAR
STARTCHAR 0170
ENCODING 368
SWIDTH 500 0
DWIDTH 25 0
BBX 21 43 2 -1
BITMAP
004000
0060C0
00F1E0
01F1E0
01E3C0
03C780
078700
0F0E00
060600
000000
000000
F800F8
F800F8
F800F8
F800F8
F800F8
F800F8
F800F8
F800F8
F800F8
F800F8
F800F8
F800F8
F800F8
F800F8
F800F8
F800F8
F800F8
F800F8
F800F8
F800F8
F800F8
F800F8
F800F0
7800F0
7800F0
7C01F0
7C01F0
3F07E0
1FFFC0
0FFF80
07FF00
00F000
ENDCHAR
STARTCHAR 0171
ENCODING 369
SWIDTH 500 0
DWIDTH 25 0
BBX 18 36 3 -1
BITMAP
008000
00C180
01E3C0
03C3C0
07C780
078F00
0F1E00
1E1C00
040800
000000
000000
000000
F803C0
F803C0
F803C0
F803C0
F803C0
F803C0
F803C0
F803C0
F803C0
F803C0
F803C0
F803C0
F803C0
F803C0
F803C0
7803C0
7803C0
7803C0
7C03C0
3F03C0
3FFFC0
1FFFC0
07FFC0
006000
ENDCHAR
STARTCHAR 0172
ENCODING 370
SWIDTH 500 0
DWIDTH 25 0
BBX 21 39 2 -8
BITMAP
F800F8
F800F8
F800F8
F800F8
F800F8
F800F8
F800F8
F800F8
F800F8
F800F8
F800F8
F800F8
F800F8
F800F8
F800F8
F800F8
F800F8
F800F8
F800F8
F800F8
F800F8
F800F8
F800F0
7800F0
7800F0
7C01F0
7C01F0
3F07E0
3FFFC0
1FFFC0
0FFF00
03FE00
003C00
007800
00F000
00F000
00FF00
00FF00
007F00
ENDCHAR
STARTCHAR 0173
ENCODING 371
SWIDTH 500 0
DWIDTH 25 0
BBX 18 31 3 -8
BITMAP
F803C0
F803C0
F803C0
F803C0
F803C0
F803C0
F803C0
F803C0
F803C0
F803C0
F803C0
F803C0
F803C0
F803C0
F803C0
7803C0
7803C0
7803C0
7C03C0
3F03C0
3FFFC0
1FFFC0
07FFC0
004780
000F00
001E00
001E00
001E00
001FC0
001FC0
000FC0
ENDCHAR
STARTCHAR 0174
ENCODING 372
SWIDTH 500 0
DWIDTH 25 0
BBX 21 41 2 0
BITMAP
002000
007000
00F800
01FC00
03DE00
078F00
070700
020200
000000
000000
F00078
F00078
F00078
F00078
F00078
F00078
F00078
F00078
F00078
F00078
F00078
F00078
F0F078
F0F878
F0F878
F1F878
F1DC78
F1DC70
73DC70
738E70
738E70
738E70
770770
770770
770770
7E03F0
7E03F0
7E03F0
7C01E0
3C01E0
3C01E0
ENDCHAR
STARTCHAR 0175
ENCODING 373
SWIDTH 500 0
DWIDTH 25 0
BBX 23 34 1 0
BITMAP
001000
003800
007C00
00FE00
01EF00
03C780
038380
010100
000000
000000
000000
F0001E
F0001E
F0001E
F0001E
F0001E
70381C
703C1C
787C1C
787C3C
787C3C
78FE3C
78EE3C
38EE38
39CF38
3DC738
3DC778
3F83F8
3F83F0
1F83F0
1F01F0
1F01F0
1E00F0
0E00E0
ENDCHAR
STARTCHAR 0176
ENCODING 374
SWIDTH 500 0
DWIDTH 25 0
BBX 23 41 1 0
BITMAP
001000
003800
007C00
00FE00
01EF00
03C780
038380
010100
000000
000000
F0001E
F8003E
78003C
7C003C
7C007C
3C0078
3E00F8
1E00F0
1F01F0
0F01E0
0F83E0
0783C0
07C780
03C780
01EF00
01EF00
00FE00
00FE00
007C00
007C00
007C00
007C00
007C00
007C00
007C00
007C00
007C00
007C00
007C00
007C00
007C00
ENDCHAR
STARTCHAR 0177
ENCODING 375
SWIDTH 500 0
DWIDTH 25 0
BBX 21 42 2 -8
BITMAP
002000
007000
00F800
01FC00
03DE00
078F00
070700
020200
000000
000000
000000
780078
7800F8
7C00F0
7C00F0
3C00F0
3C01F0
3E01E0
1E01E0
1E01E0
1F03C0
0F03C0
0F83C0
078780
078780
03C780
03CF00
03EF00
01EF00
01EE00
00FE00
00FE00
007C00
007C00
003800
007800
00F000
00F000
83E000
FFC000
FF8000
FF0000
ENDCHAR
STARTCHAR 0178
ENCODING 376
SWIDTH 500 0
DWIDTH 25 0
BBX 23 40 1 0
BITMAP
030180
07C3C0
07C7C0
07C7C0
0783C0
010000
000000
000000
000000
F0001E
F8003E
78003C
7C003C
7C007C
3C0078
3E00F8
1E00F0
1F01F0
0F01E0
0F83E0
0783C0
07C780
03C780
01EF00
01EF00
00FE00
00FE00
007C00
007C00
007C00
007C00
007C00
007C00
007C00
007C00
007C00
007C00
007C00
007C00
007C00
ENDCHAR
STARTCHAR 0179
ENCODING 377
SWIDTH 500 0
DWIDTH 25 0
BBX 20 41 3 1
BITMAP
001800
003C00
007C00
00F800
00F000
01E000
03C000
018000
000000
000000
FFFFE0
FFFFE0
FFFFE0
FFFFE0
0003C0
0007C0
000780
000F00
001F00
001E00
003C00
007C00
007800
00F800
01F000
01E000
03E000
03C000
07C000
0F8000
0F0000
1F0000
1E0000
3E0000
3C0000
780000
780000
FFFFF0
FFFFF0
FFFFF0
FFFFF0
ENDCHAR
STARTCHAR 017A
ENCODING 378
SWIDTH 500 0
DWIDTH 25 0
BBX 17 34 4 1
BITMAP
003000
007800
00F800
01F000
03E000
03C000
078000
030000
000000
000000
000000
FFFF80
FFFF80
FFFF80
001F00
001F00
003E00
007C00
00F800
00F000
01F000
03E000
07C000
078000
0F8000
1F0000
1E0000
3E0000
7C0000
780000
FFFF80
FFFF80
FFFF80
FFFF80
ENDCHAR
STARTCHAR 017B
ENCODING 379
SWIDTH 500 0
DWIDTH 25 0
BBX 20 40 3 0
BITMAP
00E000
01F000
03F000
01F000
01F000
00E000
000000
000000
000000
FFFFE0
FFFFE0
FFFFE0
FFFFE0
0003C0
0007C0
000780
000F00
001F00
001E00
003C00
007C00
007800
00F800
01F000
01E000
03E000
03C000
07C000
0F8000
0F0000
1F0000
1E0000
3E0000
3C0000
780000
780000
FFFFF0
FFFFF0
FFFFF0
FFFFF0
ENDCHAR
STARTCHAR 017C
ENCODING 380
SWIDTH 500 0
DWIDTH 25 0
BBX 17 33 4 0
BITMAP
01C000
03E000
07E000
03E000
03E000
01C000
000000
000000
000000
000000
FFFF80
FFFF80
FFFF80
001F00
001F00
003E00
007C00
00F800
00F000
01F000
03E000
07C000
078000
0F8000
1F0000
1E0000
3E0000
7C0000
780000
FFFF80
FFFF80
FFFF80
FFFF80
ENDCHAR
STARTCHAR 017D
ENCODING 381
SWIDTH 500 0
DWIDTH 25 0
BBX 20 41 3 0
BITMAP
0C0600
1E0F00
0F1E00
07FC00
03F800
01F000
00E000
004000
000000
000000
FFFFE0
FFFFE0
FFFFE0
FFFFE0
0003C0
0007C0
000780
000F00
001F00
001E00
003C00
007C00
007800
00F800
01F000
01E000
03E000
03C000
07C000
0F8000
0F0000
1F0000
1E0000
3E0000
3C0000
780000
780000
FFFFF0
FFFFF0
FFFFF0
FFFFF0
ENDCHAR
STARTCHAR 017E
ENCODING 382
SWIDTH 500 0
DWIDTH 25 0
BBX 17 34 4 1
BITMAP
180C00
3C1E00
1F7C00
0FF800
07F000
03E000
01C000
008000
000000
000000
000000
FFFF80
FFFF80
FFFF80
001F00
001F00
003E00
007C00
00F800
00F000
01F000
03E000
07C000
078000
0F8000
1F0000
1E0000
3E0000
7C0000
780000
FFFF80
FFFF80
FFFF80
FFFF80
ENDCHAR
STARTCHAR 017F
ENCODING 383
SWIDTH 500 0
DWIDTH 25 0
BBX 16 35 8 0
BITMAP
00C0
0FFF
1FFF
3FFF
7E07
7800
F800
F000
F000
F000
F000
F000
F000
F000
F000
F000
F000
F000
F000
F000
F000
F000
F000
F000
F000
F000
F000
F000
F000
F000
F000
F000
F000
F000
F000
ENDCHAR
STARTCHAR 0180
ENCODING 384
SWIDTH 500 0
DWIDTH 25 0
BBX 22 36 1 -1
BITMAP
020000
1E0000
1E0000
1E0000
FFFF00
FFFF00
FFFF00
FFFF00
1E0000
1E0000
1E0000
1E1E00
1EFF80
1FFFC0
1FFFE0
1F83F0
1F00F8
1E0078
1E0078
1E007C
1E007C
1E003C
1E003C
1E003C
1E003C
1E003C
1E007C
1E007C
1E0078
1E00F8
1E01F0
1F07F0
1FFFE0
1FFFC0
0FFF00
001800
ENDCHAR
STARTCHAR 0181
ENCODING 385
SWIDTH 500 0
DWIDTH 25 0
BBX 23 31 1 0
BITMAP
07FFC0
1FFFE0
7FFFF0
7FE1F8
F9E0F8
F1E078
E1E07C
E1E03C
F1E03C
01E07C
01E078
01E0F8
01E1F0
01FFE0
01FFC0
01FFF0
01FFF8
01E07C
01E03C
01E01E
01E01E
01E01E
01E01E
01E01E
01E01E
01E03E
01E07C
01E0FC
01FFF8
01FFF0
01FFC0
ENDCHAR
STARTCHAR 0182
ENCODING 386
SWIDTH 500 0
DWIDTH 25 0
BBX 20 31 3 0
BITMAP
FFFF80
FFFF80
FFFF80
FFFF80
F00000
F00000
F00000
F00000
F00000
F00000
F00000
F00000
FFF800
FFFF00
FFFF80
F03FC0
F007E0
F003E0
F001E0
F001E0
F001F0
F001F0
F001F0
F001E0
F001E0
F003E0
F007C0
F03FC0
FFFF80
FFFE00
FFF800
ENDCHAR
STARTCHAR 0183
ENCODING 387
SWIDTH 500 0
DWIDTH 25 0
BBX 19 35 4 -1
BITMAP
FFFF80
FFFF80
FFFF80
F00000
F00000
F00000
F00000
F00000
F00000
F00000
F1E000
FFFC00
FFFE00
FFFF00
FC1F80
F007C0
F007C0
F003C0
F003E0
F003E0
F001E0
F001E0
F001E0
F001E0
F001E0
F003E0
F003C0
F003C0
F007C0
F00F80
F03F80
FFFF00
FFFE00
FFF800
010000
ENDCHAR
STARTCHAR 0184
ENCODING 388
SWIDTH 500 0
DWIDTH 25 0
BBX 22 36 1 -1
BITMAP
020000
1E0000
7E0000
FE0000
7E0000
7E0000
3E0000
1E0000
1E0000
1E0000
1E0000
1E3C00
1FFF80
1FFFC0
1FFFE0
1F83F0
1E00F8
1E00F8
1E0078
1E007C
1E007C
1E003C
1E003C
1E003C
1E003C
1E003C
1E007C
1E0078
1E0078
1E00F8
1E01F0
1E07F0
1FFFE0
1FFFC0
1FFF00
002000
ENDCHAR
STARTCHAR 0185
ENCODING 389
SWIDTH 500 0
DWIDTH 25 0
BBX 22 31 1 0
BITMAP
0E0000
3E0000
FE0000
FE0000
7E0000
3E0000
1E0000
1E0000
1E0000
1E0000
1E0000
1FF800
1FFF80
1FFFC0
1FFFE0
1E03F0
1E00F8
1E0078
1E0078
1E0078
1E007C
1E007C
1E0078
1E0078
1E0078
1E00F8
1E01F0
1E07F0
1FFFE0
1FFF80
1FFE00
ENDCHAR
STARTCHAR 0186
ENCODING 390
SWIDTH 500 0
DWIDTH 25 0
BBX 21 33 2 -1
BITMAP
03C000
3FFC00
FFFE00
7FFF00
701F80
4007C0
0003E0
0003E0
0001E0
0001F0
0000F0
0000F0
0000F0
0000F8
0000F8
0000F8
0000F8
0000F8
0000F8
0000F8
0000F0
0000F0
0000F0
0001F0
0001E0
0003E0
0003E0
400FC0
701F80
FFFF00
FFFE00
3FF800
01C000
ENDCHAR
STARTCHAR 0187
ENCODING 391
SWIDTH 500 0
DWIDTH 25 0
BBX 23 36 2 -1
BITMAP
00007E
0000FC
0000FC
003DF0
00FFE0
03FFC0
07FFC0
0FC1C0
1F0000
1E0000
3E0000
3C0000
7C0000
780000
780000
780000
F80000
F80000
F80000
F80000
F80000
F80000
F80000
780000
780000
780000
7C0000
7C0000
3C0000
3E0000
1F0000
1FC0E0
0FFFE0
07FFE0
01FFC0
003800
ENDCHAR
STARTCHAR 0188
ENCODING 392
SWIDTH 500 0
DWIDTH 25 0
BBX 22 29 2 -1
BITMAP
00007C
0000FC
0001FC
0001E0
007FC0
03FFC0
07FFC0
0FFF80
1F8080
3E0000
3C0000
7C0000
780000
780000
780000
F80000
F80000
F80000
780000
780000
780000
7C0000
3E0000
3F0000
1FC0C0
0FFFC0
07FFC0
01FFC0
000C00
ENDCHAR
STARTCHAR 0189
ENCODING 393
SWIDTH 500 0
DWIDTH 25 0
BBX 22 31 1 0
BITMAP
1FFC00
1FFF00
1FFF80
1E1FC0
1E03E0
1E01F0
1E00F0
1E00F8
1E0078
1E0078
1E007C
1E007C
1E003C
FFF03C
FFF03C
FFF03C
1E003C
1E003C
1E003C
1E007C
1E007C
1E0078
1E0078
1E00F8
1E00F0
1E01F0
1E03E0
1E1FC0
1FFF80
1FFF00
1FFC00
ENDCHAR
STARTCHAR 018A
ENCODING 394
SWIDTH 500 0
DWIDTH 25 0
BBX 23 31 1 0
BITMAP
07FF00
1FFFC0
7FFFE0
7FE3F0
F9E0F8
F1E078
E1E07C
E1E03C
F1E03C
01E03E
01E01E
01E01E
01E01E
01E01E
01E01E
01E01E
01E01E
01E01E
01E01E
01E01E
01E01E
01E03E
01E03C
01E03C
01E03C
01E078
01E0F8
01E3F0
01FFE0
01FFC0
01FF00
ENDCHAR
STARTCHAR 018B
ENCODING 395
SWIDTH 500 0
DWIDTH 25 0
BBX 20 31 2 0
BITMAP
1FFFF0
1FFFF0
1FFFF0
1FFFF0
0000F0
0000F0
0000F0
0000F0
0000F0
0000F0
0000F0
0000F0
01FFF0
0FFFF0
1FFFF0
3FC0F0
7E00F0
7C00F0
7800F0
7800F0
F800F0
F800F0
F800F0
7800F0
7800F0
7C00F0
3E00F0
3FC0F0
1FFFF0
07FFF0
01FFF0
ENDCHAR
STARTCHAR 018C
ENCODING 396
SWIDTH 500 0
DWIDTH 25 0
BBX 19 35 2 -1
BITMAP
1FFFE0
1FFFE0
1FFFE0
0001E0
0001E0
0001E0
0001E0
0001E0
0001E0
0001E0
00F1E0
07FFE0
0FFFE0
1FFFE0
3F07E0
7C01E0
7C01E0
7801E0
F801E0
F801E0
F001E0
F001E0
F001E0
F001E0
F001E0
F801E0
F801E0
7801E0
7C01E0
3E01E0
3F81E0
1FFFE0
0FFFE0
03FFE0
001000
ENDCHAR
STARTCHAR 018D
ENCODING 397
SWIDTH 500 0
DWIDTH 25 0
BBX 21 32 2 -8
BITMAP
00F800
07FF00
1FFFC0
3FFFE0
3F07E0
7C01F0
7800F0
F800F8
F800F8
F00078
F00078
F00078
F00078
F800F8
7800F0
7800F0
7C01F0
3E03E0
1F07C0
0FDF80
07FF00
01FC00
00FE00
003F00
001F80
000F80
000780
000780
380F80
3FFF80
3FFF00
1FFC00
ENDCHAR
STARTCHAR 018E
ENCODING 398
SWIDTH 500 0
DWIDTH 25 0
BBX 18 31 2 0
BITMAP
7FFFC0
7FFFC0
7FFFC0
7FFFC0
0003C0
0003C0
0003C0
0003C0
0003C0
0003C0
0003C0
0003C0
0003C0
1FFFC0
1FFFC0
1FFFC0
1FFFC0
0003C0
0003C0
0003C0
0003C0
0003C0
0003C0
0003C0
0003C0
0003C0
0003C0
FFFFC0
FFFFC0
FFFFC0
FFFFC0
ENDCHAR
STARTCHAR 018F
ENCODING 399
SWIDTH 500 0
DWIDTH 25 0
BBX 23 33 1 -1
BITMAP
00E000
0FFE00
3FFF80
1FFFC0
1C07E0
1001F0
0000F0
0000F8
000078
00007C
00003C
00003C
00003C
00003C
00003E
FFFFFE
FFFFFE
FFFFFE
FFFFFE
F0003C
F0003C
F0003C
78003C
78007C
780078
7C00F8
3C00F8
3E01F0
1F03E0
0FFFC0
07FF80
03FF00
007000
ENDCHAR
STARTCHAR 0190
ENCODING 400
SWIDTH 500 0
DWIDTH 25 0
BBX 21 32 2 0
BITMAP
03FFC0
0FFFF0
1FFFF0
3F80E0
3E0000
3C0000
7C0000
7C0000
7C0000
3C0000
3E0000
1F0000
0FE000
07FF00
03FF00
0FFF00
3FF800
3E0000
7C0000
F80000
F00000
F00000
F00000
F00000
F00000
F80000
7C0010
7F0078
3FFFF8
1FFFF8
07FFE0
003800
ENDCHAR
STARTCHAR 0191
ENCODING 401
SWIDTH 500 0
DWIDTH 25 0
BBX 23 39 0 -8
BITMAP
07FFFE
07FFFE
07FFFE
07FFFE
078000
078000
078000
078000
078000
078000
078000
078000
078000
07FFF8
07FFF8
07FFF8
07FFF8
078000
078000
078000
078000
078000
078000
078000
078000
078000
078000
078000
078000
078000
078000
078000
078000
078000
078000
0F8000
FF0000
FF0000
FC0000
ENDCHAR
STARTCHAR 0192
ENCODING 402
SWIDTH 500 0
DWIDTH 25 0
BBX 24 44 0 -9
BITMAP
0000C0
000FFF
001FFF
003FFF
007E07
007800
00F800
00F000
00F000
00F000
00F000
00F000
1FFFFC
1FFFFC
1FFFFC
00F000
00F000
00F000
00F000
00F000
00F000
00F000
00F000
00F000
00F000
00F000
00F000
00F000
00F000
00F000
00F000
00F000
00F000
00F000
00F000
00F000
00F000
00F000
01F000
03E000
7FE000
7FC000
FF0000
100000
ENDCHAR
STARTCHAR 0193
ENCODING 403
SWIDTH 500 0
DWIDTH 25 0
BBX 23 36 2 -1
BITMAP
00007E
0000FC
0000FC
003DF0
00FFE0
03FFC0
07FFC0
0FC1C0
1F0000
1E0000
3E0000
3C0000
7C0000
780000
780000
780000
F80000
F80000
F80000
F80000
F80078
F80078
F80078
780078
780078
780078
7C0078
7C0078
3E0078
3E0078
1F0078
0FC078
0FFFF8
03FFF8
01FFF0
003F00
ENDCHAR
STARTCHAR 0194
ENCODING 404
SWIDTH 500 0
DWIDTH 25 0
BBX 23 39 1 -8
BITMAP
F0001E
F0001E
78003C
78003C
7C007C
3C0078
3C0078
3E00F0
1E00F0
1E00F0
0F01E0
0F01E0
0783C0
0783C0
0783C0
03C780
03C780
01EF00
01EF00
00EE00
00FE00
00FE00
007C00
007C00
007C00
00FE00
00FE00
01EF00
01EF00
03C780
038380
0783C0
0783C0
0783C0
0783C0
03C780
03FF80
01FF00
00FE00
ENDCHAR
STARTCHAR 0195
ENCODING 405
SWIDTH 500 0
DWIDTH 25 0
BBX 21 36 2 -1
BITMAP
100000
F00000
F00000
F00000
F00000
F00000
F00000
F00000
F00000
F00000
F00000
F70000
FFC078
FFE078
FFE078
F1F078
F0F078
F0F078
F0F078
F0F078
F0F078
F0F078
F0F078
F0F078
F0F078
F0F078
F0F078
F0F078
F0F078
F0F078
F07878
F07CF0
F07FF0
F03FE0
F01FC0
000200
ENDCHAR
STARTCHAR 0196
ENCODING 406
SWIDTH 500 0
DWIDTH 25 0
BBX 20 32 3 -1
BITMAP
FFFF80
FFFF80
FFFF80
FFFF80
03E000
03E000
03E000
03E000
03E000
03E000
03E000
03E000
03E000
03E000
03E000
03E000
03E000
03E000
03E000
03E000
03E000
03E000
03E000
03E000
03E000
01E000
01E000
01F020
01FFE0
00FFF0
007FF0
000F80
ENDCHAR
STARTCHAR 0197
ENCODING 407
SWIDTH 500 0
DWIDTH 25 0
BBX 17 31 4 0
BITMAP
FFFF80
FFFF80
FFFF80
FFFF80
03E000
03E000
03E000
03E000
03E000
03E000
03E000
03E000
03E000
3FFE00
3FFE00
3FFE00
3FFE00
03E000
03E000
03E000
03E000
03E000
03E000
03E000
03E000
03E000
03E000
FFFF80
FFFF80
FFFF80
FFFF80
ENDCHAR
STARTCHAR 0198
ENCODING 408
SWIDTH 500 0
DWIDTH 25 0
BBX 22 32 3 0
BITMAP
000040
F001F8
F003FC
F007FC
F00F98
F01F00
F03E00
F03C00
F07C00
F0F800
F1F000
F1F000
F3E000
F7C000
F78000
FF8000
FFC000
F7E000
F3F000
F1F800
F0FC00
F07E00
F03F00
F01F00
F00F80
F007C0
F003E0
F003E0
F001F0
F001F0
F000F8
F00078
ENDCHAR
STARTCHAR 0199
ENCODING 409
SWIDTH 500 0
DWIDTH 25 0
BBX 20 35 4 0
BITMAP
0F0000
3F8000
7F8000
FF8000
F80000
F00000
F00000
F00000
F00000
F00000
F00000
F00000
F003E0
F007C0
F00F80
F01E00
F07C00
F0F800
F1F000
F3E000
F7C000
FF8000
FF0000
FF8000
F7E000
F3F000
F1F800
F0FC00
F07E00
F03F00
F01F80
F00F80
F007C0
F003E0
F001F0
ENDCHAR
STARTCHAR 019A
ENCODING 410
SWIDTH 500 0
DWIDTH 25 0
BBX 19 35 3 -1
BITMAP
FFE000
FFE000
FFE000
03E000
03E000
03E000
03E000
03E000
03E000
03E000
03E000
03E000
03E000
03E000
FFFF80
FFFF80
FFFF80
FFFF80
03E000
03E000
03E000
03E000
03E000
03E000
03E000
03E000
03E000
03E000
01E000
01E000
01F060
00FFE0
00FFE0
007FE0
000E00
ENDCHAR
STARTCHAR 019B
ENCODING 411
SWIDTH 500 0
DWIDTH 25 0
BBX 21 35 2 0
BITMAP
380000
7F0000
7F8000
7FC100
07CF80
03FF80
01FF00
0FF800
1FF000
1EF000
107800
007800
00FC00
00FC00
01FC00
01FE00
03FE00
03DF00
03CF00
078F00
078780
0F0780
0F0780
1E03C0
1E03C0
1E03C0
3C03E0
3C01E0
7C01E0
7801F0
7800F0
F800F0
F000F8
F000F8
F00078
ENDCHAR
STARTCHAR 019C
ENCODING 412
SWIDTH 500 0
DWIDTH 25 0
BBX 21 32 2 -1
BITMAP
F00078
F00078
F00078
F00078
F00078
F00078
F00078
F00078
F00078
F00078
F00078
F00078
F07078
F07078
F07078
F07078
F07078
F07078
F07078
F07078
F07078
F07078
F07078
F07078
F07878
F07878
787878
787C78
3FFFF8
3FFFF8
1FEFF8
0381C0
ENDCHAR
STARTCHAR 019D
ENCODING 413
SWIDTH 500 0
DWIDTH 25 0
BBX 24 39 -2 -8
BITMAP
07800F
07C00F
07C00F
07E00F
07E00F
07F00F
07F00F
07F80F
07BC0F
07BC0F
079E0F
079E0F
078F0F
078F0F
07878F
07878F
0783CF
0783CF
0781EF
0781EF
0780FF
0780FF
07807F
07807F
07803F
07803F
07801F
07801F
07800F
07800F
07800F
070000
070000
070000
0F0000
0F0000
FF0000
FE0000
FC0000
ENDCHAR
STARTCHAR 019E
ENCODING 414
SWIDTH 500 0
DWIDTH 25 0
BBX 18 32 4 -8
BITMAP
07E000
FFFC00
FFFE00
FFFF00
F01F00
F00F80
F00780
F00780
F007C0
F007C0
F007C0
F007C0
F007C0
F007C0
F007C0
F007C0
F007C0
F007C0
F007C0
F007C0
F007C0
F007C0
F007C0
F007C0
0007C0
0007C0
0007C0
0007C0
0007C0
0007C0
0007C0
0007C0
ENDCHAR
STARTCHAR 019F
ENCODING 415
SWIDTH 500 0
DWIDTH 25 0
BBX 23 33 1 -1
BITMAP
003800
01FF00
07FFC0
0FFFE0
1F83F0
1E01F0
3E00F8
3C0078
7C007C
78003C
78003C
78003C
78003C
78003C
F8003E
FFFFFE
FFFFFE
FFFFFE
F8003E
78003C
78003C
78003C
78003C
78007C
7C007C
3C0078
3E00F8
1E01F0
1F83F0
0FFFE0
07FFC0
01FF00
007800
ENDCHAR
STARTCHAR 01A0
ENCODING 416
SWIDTH 500 0
DWIDTH 25 0
BBX 24 37 1 -1
BITMAP
00000F
00000F
00000F
00000F
00381E
01FF1E
07FFFC
0FFFFC
1F83F8
1E01F0
3E00F8
3C0078
7C007C
78003C
78003C
78003C
78003C
78003C
F8003E
F8003E
F8003E
F8003E
F8003E
78003C
78003C
78003C
78003C
78003C
7C007C
3C0078
3E00F8
1E01F0
1F83F0
0FFFE0
07FFC0
01FF00
007800
ENDCHAR
STARTCHAR 01A1
ENCODING 417
SWIDTH 500 0
DWIDTH 25 0
BBX 22 29 2 -1
BITMAP
00003C
00003C
00003C
00003C
00F838
03FE78
0FFFF8
1FFFF0
3F07E0
3E03E0
7C01F0
7800F0
F800F8
F800F8
F00078
F00078
F00078
F00078
F00078
F800F8
F800F0
7800F0
7C01F0
3E03E0
3F8FE0
1FFFC0
0FFF80
03FE00
003000
ENDCHAR
STARTCHAR 01A2
ENCODING 418
SWIDTH 500 0
DWIDTH 25 0
BBX 22 33 2 -1
BITMAP
030180
0FEFE0
1FFFF0
3FFFF8
3C7C78
3C7878
783C78
783C3C
783C3C
783C3C
703C3C
F01E3C
F01E3C
F01E3C
F01E3C
F01E3C
F01E3C
F01E3C
F01E3C
F01E3C
F01E3C
F01E3C
703C3C
783C3C
783C3C
783C3C
783C3C
3C783C
3C783C
3FF03C
1FF03C
0FE03C
030000
ENDCHAR
STARTCHAR 01A3
ENCODING 419
SWIDTH 500 0
DWIDTH 25 0
BBX 21 32 1 -8
BITMAP
038380
0FEFE0
1FFFF0
3FFFF8
3C7CF8
787878
783C78
783C78
703C78
F03C78
F03C78
F03C78
F03C78
F03C78
F03C78
F03C78
703C78
783C78
783C78
787878
3C7878
3FF078
1FF078
0FE078
030078
000078
000078
000078
000078
000078
000078
000078
ENDCHAR
STARTCHAR 01A4
ENCODING 420
SWIDTH 500 0
DWIDTH 25 0
BBX 22 31 1 0
BITMAP
07FFC0
1FFFE0
7FFFF0
7FE1F8
F9E07C
F1E03C
E1E03C
E1E03C
F1E03C
01E03C
01E03C
01E03C
01E03C
01E03C
01E07C
01E0F8
01FFF0
01FFE0
01FFC0
01E000
01E000
01E000
01E000
01E000
01E000
01E000
01E000
01E000
01E000
01E000
01E000
ENDCHAR
STARTCHAR 01A5
ENCODING 421
SWIDTH 500 0
DWIDTH 25 0
BBX 19 43 4 -8
BITMAP
0F0000
3F8000
7F8000
FF8000
F80000
F00000
F00000
F00000
F00000
F00000
F00000
F3E000
FFF800
FFFE00
FFFF00
F01F80
F00F80
F007C0
F003C0
F003E0
F003E0
F001E0
F001E0
F001E0
F001E0
F001E0
F003E0
F003E0
F003C0
F007C0
F00F80
FC1F80
FFFF00
FFFE00
FFFC00
F04000
F00000
F00000
F00000
F00000
F00000
F00000
F00000
ENDCHAR
STARTCHAR 01A6
ENCODING 422
SWIDTH 500 0
DWIDTH 25 0
BBX 21 40 3 -5
BITMAP
F00000
F00000
F00000
F00000
FFF800
FFFE00
FFFF00
F03F80
F00F80
F007C0
F003C0
F003C0
F003E0
F003E0
F003E0
F003C0
F003C0
F007C0
F00F80
FFFF00
FFFE00
FFFC00
FFF800
F07C00
F03C00
F03E00
F01E00
F00F00
F00F00
F00780
F00780
F007C0
F003C0
F003E0
F001E0
0001F0
0000F0
0000F8
0000F8
000078
ENDCHAR
STARTCHAR 01A7
ENCODING 423
SWIDTH 500 0
DWIDTH 25 0
BBX 19 33 3 -1
BITMAP
01E000
3FFC00
7FFF00
7FFF80
380F80
2007C0
0003C0
0003C0
0003E0
0003E0
0003C0
0007C0
000FC0
001F80
00FF00
03FE00
0FF800
1FE000
3F8000
7E0000
FC0000
F80000
F00000
F00000
F00000
F00000
F00000
F80040
7E01E0
7FFFE0
1FFFE0
0FFF80
00F800
ENDCHAR
STARTCHAR 01A8
ENCODING 424
SWIDTH 500 0
DWIDTH 25 0
BBX 19 25 3 -1
BITMAP
07E000
7FFE00
3FFF00
3FFF80
2007C0
0003C0
0003C0
0003C0
0007C0
001FC0
007F80
03FF00
0FFC00
3FF000
7F8000
7C0000
F80000
F80000
F00000
F80040
7C03C0
7FFFC0
3FFFE0
0FFF80
00A000
ENDCHAR
STARTCHAR 01A9
ENCODING 425
SWIDTH 500 0
DWIDTH 25 0
BBX 20 31 2 0
BITMAP
7FFFF0
7FFFF0
7FFFF0
7FFFF0
3C0000
1E0000
1F0000
0F8000
078000
03C000
03E000
01F000
00F000
007800
007C00
007C00
00F800
00F000
01E000
03E000
07C000
0F8000
0F0000
1E0000
3E0000
7C0000
780000
FFFFF0
FFFFF0
FFFFF0
FFFFF0
ENDCHAR
STARTCHAR 01AA
ENCODING 426
SWIDTH 500 0
DWIDTH 25 0
BBX 20 43 2 -8
BITMAP
070000
1FE000
7FF000
7FF000
F0F800
F07800
E07800
F07800
F07800
7FF800
3FF800
1FF800
007800
007800
007800
007800
007800
007800
007800
007800
007800
007800
007800
007800
007800
007800
007800
007800
007800
007800
007800
007800
007800
007800
007800
007C00
003C00
003C00
003E00
003F80
001FF0
000FF0
0003F0
ENDCHAR
STARTCHAR 01AB
ENCODING 427
SWIDTH 500 0
DWIDTH 25 0
BBX 20 38 3 -8
BITMAP
078000
078000
078000
078000
078000
078000
078000
FFFFE0
FFFFE0
FFFFE0
078000
078000
078000
078000
078000
078000
078000
078000
078000
078000
078000
078000
078000
078000
07C000
07C000
03E020
03FFF0
01FFF0
00FFF0
0000F0
0000F0
0000F0
0000F0
0001E0
001FE0
001FC0
001F80
ENDCHAR
STARTCHAR 01AC
ENCODING 428
SWIDTH 500 0
DWIDTH 25 0
BBX 22 31 1 0
BITMAP
07FFFC
3FFFFC
7FFFFC
7FFFFC
F03C00
F03C00
E03C00
E03C00
F03C00
003C00
003C00
003C00
003C00
003C00
003C00
003C00
003C00
003C00
003C00
003C00
003C00
003C00
003C00
003C00
003C00
003C00
003C00
003C00
003C00
003C00
003C00
ENDCHAR
STARTCHAR 01AD
ENCODING 429
SWIDTH 500 0
DWIDTH 25 0
BBX 20 36 3 -1
BITMAP
000F80
007FF0
01FFF0
01FFF0
03F000
03C000
07C000
078000
078000
078000
078000
078000
FFFFE0
FFFFE0
FFFFE0
078000
078000
078000
078000
078000
078000
078000
078000
078000
078000
078000
078000
078000
078000
07C000
07C000
03E060
03FFE0
01FFE0
00FFE0
000400
ENDCHAR
STARTCHAR 01AE
ENCODING 430
SWIDTH 500 0
DWIDTH 25 0
BBX 21 39 2 -8
BITMAP
FFFFF8
FFFFF8
FFFFF8
FFFFF8
00F800
00F800
00F800
00F800
00F800
00F800
00F800
00F800
00F800
00F800
00F800
00F800
00F800
00F800
00F800
00F800
00F800
00F800
00F800
00F800
00F800
00F800
00F800
00F800
00F800
00F800
00F800
00F800
00F800
007800
007800
007C00
007F80
003F80
001F80
ENDCHAR
STARTCHAR 01AF
ENCODING 431
SWIDTH 500 0
DWIDTH 25 0
BBX 23 37 2 -1
BITMAP
00001E
00001E
00001E
00003E
00003C
F803FC
F803F8
F803F0
F803C0
F803C0
F803C0
F803C0
F803C0
F803C0
F803C0
F803C0
F803C0
F803C0
F803C0
F803C0
F803C0
F803C0
F803C0
F803C0
F803C0
F803C0
F803C0
F803C0
7803C0
7807C0
780780
7C0780
3E0F80
3FFF00
1FFE00
0FFC00
01E000
ENDCHAR
STARTCHAR 01B0
ENCODING 432
SWIDTH 500 0
DWIDTH 25 0
BBX 21 29 3 -1
BITMAP
000078
000078
000078
000078
0000F0
F80FF0
F80FE0
F80F80
F80F00
F80F00
F80F00
F80F00
F80F00
F80F00
F80F00
F80F00
F80F00
F80F00
F80F00
F80F00
780F00
780F00
780F00
7C0F00
3E0F00
3FFF00
1FFF00
0FFF00
008000
ENDCHAR
STARTCHAR 01B1
ENCODING 433
SWIDTH 500 0
DWIDTH 25 0
BBX 23 32 1 -1
BITMAP
FFC7FE
FFC7FE
FFC7FE
FF83FE
0783C0
0F01E0
1E00F0
1E00F0
3C00F8
3C0078
3C0078
7C007C
78003C
78003C
78003C
78003C
78003C
78003C
78003C
78003C
78003C
78003C
78003C
7C007C
3C0078
3E00F8
1E01F0
1F83F0
0FFFE0
07FFC0
01FF00
003800
ENDCHAR
STARTCHAR 01B2
ENCODING 434
SWIDTH 500 0
DWIDTH 25 0
BBX 21 32 2 -1
BITMAP
F07E00
F07F00
F07F80
F01FC0
F003E0
F001E0
F001F0
F000F0
F000F0
F000F0
F000F8
F00078
F00078
F00078
F00078
F00078
F00078
F00078
F00078
F00078
F000F0
F000F0
F800F0
F800F0
7801E0
7801E0
7C03E0
3E07C0
3FFF80
1FFF00
07FE00
00E000
ENDCHAR
STARTCHAR 01B3
ENCODING 435
SWIDTH 500 0
DWIDTH 25 0
BBX 25 31 1 0
BITMAP
F0003F00
F8007F80
78007F80
7800FB80
7C00F000
3C01E000
3E01E000
1E01C000
1F03C000
0F03C000
0F878000
07878000
07C70000
03CF0000
01EF0000
01FE0000
00FE0000
00FC0000
007C0000
007C0000
007C0000
007C0000
007C0000
007C0000
007C0000
007C0000
007C0000
007C0000
007C0000
007C0000
007C0000
ENDCHAR
STARTCHAR 01B4
ENCODING 436
SWIDTH 500 0
DWIDTH 25 0
BBX 23 32 1 -8
BITMAP
00003C
7800FE
7800FE
7C01FE
3C01E0
3C01E0
3C03C0
3E03C0
1E03C0
1E03C0
1F0780
0F0780
0F0780
078780
078700
078F00
03CF00
03CE00
01FE00
01FE00
01FC00
00FC00
00FC00
007800
007800
007000
00F000
01E000
03E000
FFC000
FF8000
FF0000
ENDCHAR
STARTCHAR 01B5
ENCODING 437
SWIDTH 500 0
DWIDTH 25 0
BBX 20 31 3 0
BITMAP
FFFFE0
FFFFE0
FFFFE0
FFFFE0
0003C0
0007C0
000780
000F00
001F00
001E00
003E00
007C00
007800
7FFFE0
7FFFE0
7FFFE0
03E000
03C000
07C000
0F8000
0F0000
1F0000
1E0000
3E0000
3C0000
780000
780000
FFFFF0
FFFFF0
FFFFF0
FFFFF0
ENDCHAR
STARTCHAR 01B6
ENCODING 438
SWIDTH 500 0
DWIDTH 25 0
BBX 17 23 4 0
BITMAP
FFFF80
FFFF80
FFFF80
001F00
001F00
003E00
007C00
00F800
00F000
7FFF80
7FFF80
7FFF80
078000
0F8000
1F0000
1E0000
3E0000
7C0000
780000
FFFF80
FFFF80
FFFF80
FFFF80
ENDCHAR
STARTCHAR 01B7
ENCODING 439
SWIDTH 500 0
DWIDTH 25 0
BBX 22 32 1 -1
BITMAP
3FFFF8
3FFFF8
3FFFF8
3FFFF8
0001F0
0003E0
0003C0
000780
000F80
001F00
003E00
007C00
00F800
01FC00
01FF80
01FFE0
000FF0
0001F8
000078
00007C
00003C
00003C
00003C
00003C
00003C
00007C
4000F8
7803F8
7FFFF0
FFFFC0
1FFF80
00F000
ENDCHAR
STARTCHAR 01B8
ENCODING 440
SWIDTH 500 0
DWIDTH 25 0
BBX 20 32 3 -1
BITMAP
7FFFE0
7FFFE0
7FFFE0
3FFFE0
3E0000
1F0000
0F0000
0F8000
07C000
03E000
01E000
00F000
00F800
00FC00
07FC00
1FFC00
3FC000
3E0000
7C0000
780000
F80000
F00000
F00000
F80000
780000
780000
7C0000
3F00E0
3FFFF0
0FFFF0
07FFE0
007C00
ENDCHAR
STARTCHAR 01B9
ENCODING 441
SWIDTH 500 0
DWIDTH 25 0
BBX 19 31 3 -8
BITMAP
7FFFE0
7FFFE0
7FFFE0
3C0000
1E0000
1F0000
0F8000
078000
03C000
03E000
01F000
00F800
007800
01FC00
0FFC00
1FFC00
3F0000
7C0000
780000
F00000
F00000
F00000
F00000
F00000
F80000
7C0000
7E0000
3FC1E0
1FFFE0
0FFFE0
01FFC0
ENDCHAR
STARTCHAR 01BA
ENCODING 442
SWIDTH 500 0
DWIDTH 25 0
BBX 19 31 2 -8
BITMAP
7FFFC0
7FFFC0
7FFFC0
000780
000F80
001F00
003E00
007C00
00F800
01F000
03F000
03FE00
03FF80
001FC0
0007E0
0003E0
0001E0
0001E0
0001E0
0003E0
0007E0
001FC0
01FF80
0FFF00
3FF800
7F8000
7C0000
F80000
F00000
700000
700000
ENDCHAR
STARTCHAR 01BB
ENCODING 443
SWIDTH 500 0
DWIDTH 25 0
BBX 19 32 3 0
BITMAP
01E000
1FFC00
3FFF00
FFFF80
FC1F80
7007C0
0007C0
0003C0
0003C0
0003C0
0003C0
0007C0
000780
000F80
001F00
003F00
3FFFE0
3FFFE0
3FFFE0
03F000
07E000
07C000
0F8000
1F0000
3E0000
3C0000
7C0000
780000
7FFFE0
FFFFE0
FFFFE0
FFFFE0
ENDCHAR
STARTCHAR 01BC
ENCODING 444
SWIDTH 500 0
DWIDTH 25 0
BBX 20 32 2 -1
BITMAP
FFFFE0
FFFFE0
FFFFE0
FFFFE0
0F0000
0F0000
0F0000
0F0000
0F0000
0F0000
0E0000
0E0000
0FF000
0FFE00
1FFF00
07FFC0
000FC0
0003E0
0001E0
0001F0
0000F0
0000F0
0000F0
0000F0
0000F0
0001F0
0003E0
300FE0
3FFFC0
7FFF80
3FFE00
01E000
ENDCHAR
STARTCHAR 01BD
ENCODING 445
SWIDTH 500 0
DWIDTH 25 0
BBX 19 24 3 -1
BITMAP
FFFFC0
FFFFC0
FFFFC0
0E0000
1E0000
1E0000
1E0000
1E0000
1E0000
1FFC00
1FFF00
1FFF80
000FC0
0003C0
0003E0
0001E0
0001E0
0003E0
0003C0
700FC0
7FFF80
7FFF00
7FFE00
008000
ENDCHAR
STARTCHAR 01BE
ENCODING 446
SWIDTH 500 0
DWIDTH 25 0
BBX 20 31 3 -1
BITMAP
078000
078000
078000
078000
078000
078000
078000
FFFFE0
FFFFE0
FFFFE0
078000
078000
078000
078000
07C000
03E000
03F000
01FE00
00FF80
003FC0
000FE0
0003F0
0000F0
0000F0
0000F0
2000F0
3C03F0
3FFFE0
3FFFC0
1FFF00
004000
ENDCHAR
STARTCHAR 01BF
ENCODING 447
SWIDTH 500 0
DWIDTH 25 0
BBX 19 32 4 -8
BITMAP
07E000
7FFC00
FFFF00
FFFF80
F01F80
F007C0
F003C0
F003E0
F001E0
F001E0
F001E0
F001E0
F001E0
F003E0
F003E0
F003C0
F007C0
F00FC0
F01F80
F03F00
F0FE00
F3FC00
FFF800
FFE000
FF8000
FE0000
F00000
F00000
F00000
F00000
F00000
F00000
ENDCHAR
STARTCHAR 01C0
ENCODING 448
SWIDTH 500 0
DWIDTH 25 0
BBX 3 43 11 -8
BITMAP
E0
E0
E0
E0
E0
E0
E0
E0
E0
E0
E0
E0
E0
E0
E0
E0
E0
E0
E0
E0
E0
E0
E0
E0
E0
E0
E0
E0
E0
E0
E0
E0
E0
E0
E0
E0
E0
E0
E0
E0
E0
E0
E0
ENDCHAR
STARTCHAR 01C1
ENCODING 449
SWIDTH 500 0
DWIDTH 25 0
BBX 13 43 6 -8
BITMAP
F078
F078
F078
F078
F078
F078
F078
F078
F078
F078
F078
F078
F078
F078
F078
F078
F078
F078
F078
F078
F078
F078
F078
F078
F078
F078
F078
F078
F078
F078
F078
F078
F078
F078
F078
F078
F078
F078
F078
F078
F078
F078
F078
ENDCHAR
STARTCHAR 01C2
ENCODING 450
SWIDTH 500 0
DWIDTH 25 0
BBX 21 43 2 -8
BITMAP
007000
007000
007000
007000
007000
007000
007000
007000
007000
007000
007000
007000
007000
007000
007000
007000
FFFFF8
FFFFF8
FFFFF8
007000
007000
007000
007000
007000
FFFFF8
FFFFF8
FFFFF8
007000
007000
007000
007000
007000
007000
007000
007000
007000
007000
007000
007000
007000
007000
007000
007000
ENDCHAR
STARTCHAR 01C3
ENCODING 451
SWIDTH 500 0
DWIDTH 25 0
BBX 7 32 9 -1
BITMAP
7C
7C
7C
7C
7C
7C
7C
7C
7C
7C
7C
7C
7C
7C
78
78
38
38
38
38
00
00
00
00
00
78
FC
FE
FE
FE
7C
30
ENDCHAR
STARTCHAR 01C4
ENCODING 452
SWIDTH 500 0
DWIDTH 25 0
BBX 24 41 1 0
BITMAP
000002
000607
00070E
0003DC
0001F8
0000F0
000060
000020
000000
000000
FE03FE
FF83FE
FFC3FE
F3C3FE
F1E01E
F0E01C
F0F03C
F0F03C
F0F03C
F07038
F07078
F07078
F07070
F07070
F078F0
F078F0
F078E0
F070E0
F071E0
F071E0
F071C0
F071C0
F0F1C0
F0F3C0
F0F3C0
F0E380
F1E380
F3C7FE
FFC7FE
FF87FE
FF07FE
ENDCHAR
STARTCHAR 01C5
ENCODING 453
SWIDTH 500 0
DWIDTH 25 0
BBX 24 32 1 0
BITMAP
0001C3
FE01E7
FF80FE
FFC07C
F3C038
F1E010
F0E000
F0F000
F0F000
F0F1FE
F071FE
F071FE
F0700E
F0701E
F0701C
F0781C
F07838
F07838
F07038
F07070
F07070
F07070
F070E0
F0F0E0
F0F0E0
F0F1E0
F0E1C0
F1E1C0
F3C1FE
FFC3FE
FF83FE
FF03FE
ENDCHAR
STARTCHAR 01C6
ENCODING 454
SWIDTH 500 0
DWIDTH 25 0
BBX 25 36 0 -1
BITMAP
00080000
00780000
00780000
0078E180
0078F380
00787F00
00783E00
00781C00
00780800
00780000
00780000
06780000
1FF8FF80
3FF8FF80
3FF8FF80
78780700
78780700
70780F00
70780E00
F0780E00
F0781E00
F0781C00
F0781C00
F0783C00
F0783800
F0783800
F0783800
70787000
70787000
78787000
7878F000
3C78FF80
3EF8FF80
1FF8FF80
0FF8FF80
01800000
ENDCHAR
STARTCHAR 01C7
ENCODING 455
SWIDTH 500 0
DWIDTH 25 0
BBX 22 31 2 0
BITMAP
F0003C
F0003C
F0003C
F0003C
F0003C
F0003C
F0003C
F0003C
F0003C
F0003C
F0003C
F0003C
F0003C
F0003C
F0003C
F0003C
F0003C
F0003C
F0003C
F0003C
F0003C
F0003C
F0003C
F0007C
F0007C
F00078
F00078
FFE3F8
FFE7F0
FFE7F0
FFE7C0
ENDCHAR
STARTCHAR 01C8
ENCODING 456
SWIDTH 500 0
DWIDTH 25 0
BBX 21 41 3 -8
BITMAP
0000F0
0001F0
F001F8
F001F8
F001F0
F000E0
F00000
F00000
F00000
F00000
F000F0
F000F0
F000F0
F000F0
F000F0
F000F0
F000F0
F000F0
F000F0
F000F0
F000F0
F000F0
F000F0
F000F0
F000F0
F000F0
F000F0
F000F0
F000F0
FFF0F0
FFF0F0
FFF0F0
FFF0F0
0000F0
0001F0
0001E0
0001E0
0007E0
007FC0
007F80
007F00
ENDCHAR
STARTCHAR 01C9
ENCODING 457
SWIDTH 500 0
DWIDTH 25 0
BBX 16 43 5 -8
BITMAP
1000
F000
F01E
F03F
F03F
F03F
F01E
F00E
F000
F000
F000
F000
F01E
F01E
F01E
F01E
F01E
F01E
F01E
F01E
F01E
F01E
F01E
F01E
F01E
F01E
F01E
F01E
F01E
F01E
F01E
F81E
7E1E
7C1E
3C1E
001E
001E
001E
003E
007C
07FC
07F8
0FE0
ENDCHAR
STARTCHAR 01CA
ENCODING 458
SWIDTH 500 0
DWIDTH 25 0
BBX 22 31 2 0
BITMAP
E0703C
E0703C
F0703C
F0703C
F0703C
F8703C
F8703C
F8703C
F8703C
DC703C
FC703C
FC703C
FE703C
EE703C
EE703C
EE703C
EF703C
E7703C
E7703C
E7703C
E3F03C
E3F03C
E3F03C
E3F03C
E1F03C
E1F038
E1F078
E1F3F8
E0F3F0
E0F3E0
E0F3C0
ENDCHAR
STARTCHAR 01CB
ENCODING 459
SWIDTH 500 0
DWIDTH 25 0
BBX 22 41 2 -8
BITMAP
000078
0000FC
E070FC
E070FC
F070F8
F07030
F07000
F87000
F87000
F87000
F87078
DC7078
FC7078
FC7078
FE7078
EE7078
EE7078
EE7078
EF7078
E77078
E77078
E77078
E3F078
E3F078
E3F078
E3F078
E1F078
E1F078
E1F078
E1F078
E0F078
E0F078
E0F078
000078
000078
000078
0000F0
0001F0
001FE0
001FE0
001F80
ENDCHAR
STARTCHAR 01CC
ENCODING 460
SWIDTH 500 0
DWIDTH 25 0
BBX 22 41 2 -8
BITMAP
000078
0000F8
0000FC
0000FC
0000F8
000070
000000
000000
000000
0F0000
FFC078
FFE078
FFF078
F1F078
F0F078
F0F078
F07078
F07078
F07078
F07078
F07078
F07078
F07078
F07078
F07078
F07078
F07078
F07078
F07078
F07078
F07078
F07078
F07078
000078
000078
000070
0000F0
0001F0
003FE0
003FC0
003F80
ENDCHAR
STARTCHAR 01CD
ENCODING 461
SWIDTH 500 0
DWIDTH 25 0
BBX 23 41 1 0
BITMAP
030180
0783C0
03C780
01FF00
00FE00
007C00
003800
001000
000000
000000
007C00
00FE00
00FE00
00FE00
01EF00
01EF00
01CF00
03C780
03C780
038780
0783C0
0783C0
0703C0
0F01E0
0F01E0
0F01E0
1E00F0
1E00F0
1E00F0
1FFFF0
3FFFF8
3FFFF8
3FFFF8
78007C
78003C
78003C
78003C
F0003E
F0001E
F0001E
F0001E
ENDCHAR
STARTCHAR 01CE
ENCODING 462
SWIDTH 500 0
DWIDTH 25 0
BBX 19 35 3 0
BITMAP
0C0600
1E0F00
0FBE00
07FC00
03F800
01F000
00E000
004000
000000
000000
07F000
3FFE00
3FFF00
1FFF80
000FC0
0007C0
0003C0
0003C0
0003E0
0001E0
07FFE0
1FFFE0
3FFFE0
7F07E0
F801E0
F001E0
F001E0
F001E0
F001E0
F801E0
7C01E0
7FFFE0
3FFFE0
0FFFE0
006000
ENDCHAR
STARTCHAR 01CF
ENCODING 463
SWIDTH 500 0
DWIDTH 25 0
BBX 17 41 4 0
BITMAP
180C00
3C1E00
1E3C00
0FF800
07F000
03E000
01C000
008000
000000
000000
FFFF80
FFFF80
FFFF80
FFFF80
03E000
03E000
03E000
03E000
03E000
03E000
03E000
03E000
03E000
03E000
03E000
03E000
03E000
03E000
03E000
03E000
03E000
03E000
03E000
03E000
03E000
03E000
03E000
FFFF80
FFFF80
FFFF80
FFFF80
ENDCHAR
STARTCHAR 01D0
ENCODING 464
SWIDTH 500 0
DWIDTH 25 0
BBX 19 35 3 0
BITMAP
181800
3C3C00
1E7800
0FF000
07E000
03C000
038000
010000
000000
000000
000000
FFE000
FFE000
FFE000
03E000
03E000
03E000
03E000
03E000
03E000
03E000
03E000
03E000
03E000
03E000
03E000
03E000
03E000
01E000
01E000
01F860
00FFE0
00FFE0
007FE0
000E00
ENDCHAR
STARTCHAR 01D1
ENCODING 465
SWIDTH 500 0
DWIDTH 25 0
BBX 23 42 1 -1
BITMAP
030180
0783C0
03C780
01FF00
00FE00
007C00
003800
001000
000000
003800
01FF00
07FFC0
0FFFE0
1F83F0
1E01F0
3E00F8
3C0078
7C007C
78003C
78003C
78003C
78003C
78003C
F8003E
F8003E
F8003E
F8003E
F8003E
78003C
78003C
78003C
78003C
78003C
7C007C
3C0078
3E00F8
1E01F0
1F83F0
0FFFE0
07FFC0
01FF00
007800
ENDCHAR
STARTCHAR 01D2
ENCODING 466
SWIDTH 500 0
DWIDTH 25 0
BBX 21 35 2 0
BITMAP
060300
0F0780
07DF00
03FE00
01FC00
00F800
007000
002000
000000
000000
00F800
03FE00
0FFF80
1FFFC0
3F07E0
3E03E0
7C01F0
7800F0
F800F8
F800F8
F00078
F00078
F00078
F00078
F00078
F800F8
F800F0
7800F0
7C01F0
3E03E0
3F8FE0
1FFFC0
0FFF80
03FE00
003000
ENDCHAR
STARTCHAR 01D3
ENCODING 467
SWIDTH 500 0
DWIDTH 25 0
BBX 21 42 2 -1
BITMAP
060300
0F0780
078F00
03FE00
01FC00
00F800
007000
002000
000000
000000
F800F8
F800F8
F800F8
F800F8
F800F8
F800F8
F800F8
F800F8
F800F8
F800F8
F800F8
F800F8
F800F8
F800F8
F800F8
F800F8
F800F8
F800F8
F800F8
F800F8
F800F8
F800F8
F800F0
7800F0
7800F0
7C01F0
7C01F0
3F07E0
1FFFC0
0FFF80
07FF00
00F000
ENDCHAR
STARTCHAR 01D4
ENCODING 468
SWIDTH 500 0
DWIDTH 25 0
BBX 18 35 3 0
BITMAP
0C0600
1E0F00
0FBE00
07FC00
03F800
01F000
00E000
004000
000000
000000
000000
F803C0
F803C0
F803C0
F803C0
F803C0
F803C0
F803C0
F803C0
F803C0
F803C0
F803C0
F803C0
F803C0
F803C0
F803C0
7803C0
7803C0
7803C0
7C03C0
3F03C0
3FFFC0
1FFFC0
07FFC0
006000
ENDCHAR
STARTCHAR 01D5
ENCODING 469
SWIDTH 500 0
DWIDTH 25 0
BBX 21 42 2 -1
BITMAP
07FF00
07FF00
000000
000000
0F0780
0F0780
0F0780
0F0780
060300
000000
000000
F800F8
F800F8
F800F8
F800F8
F800F8
F800F8
F800F8
F800F8
F800F8
F800F8
F800F8
F800F8
F800F8
F800F8
F800F8
F800F8
F800F8
F800F8
F800F8
F800F8
F800F8
F800F0
7800F0
7800F0
7C01F0
7C01F0
3F07E0
1FFFC0
0FFF80
07FF00
00F000
ENDCHAR
STARTCHAR 01D6
ENCODING 470
SWIDTH 500 0
DWIDTH 25 0
BBX 18 37 3 -1
BITMAP
0FFE00
0FFE00
0FFE00
000000
000000
1E0F00
1E0F00
1E0F00
1E0F00
0C0600
000000
000000
000000
F803C0
F803C0
F803C0
F803C0
F803C0
F803C0
F803C0
F803C0
F803C0
F803C0
F803C0
F803C0
F803C0
F803C0
F803C0
7803C0
7803C0
7803C0
7C03C0
3F03C0
3FFFC0
1FFFC0
07FFC0
006000
ENDCHAR
STARTCHAR 01D7
ENCODING 471
SWIDTH 500 0
DWIDTH 25 0
BBX 21 42 2 0
BITMAP
001800
003C00
003C00
1C79C0
3EF3E0
3E63E0
3E03E0
1C01C0
000000
000000
F800F8
F800F8
F800F8
F800F8
F800F8
F800F8
F800F8
F800F8
F800F8
F800F8
F800F8
F800F8
F800F8
F800F8
F800F8
F800F8
F800F8
F800F8
F800F8
F800F8
F800F8
F800F8
F800F0
7800F0
7800F0
7C01F0
7C01F0
3F07E0
1FFFC0
0FFF80
07FF00
00F000
ENDCHAR
STARTCHAR 01D8
ENCODING 472
SWIDTH 500 0
DWIDTH 25 0
BBX 18 39 3 -1
BITMAP
001800
001C00
003C00
007800
007800
00F000
00E000
1C4700
3E0F80
3E0F80
1E0F00
0C0600
000000
000000
000000
F803C0
F803C0
F803C0
F803C0
F803C0
F803C0
F803C0
F803C0
F803C0
F803C0
F803C0
F803C0
F803C0
F803C0
F803C0
7803C0
7803C0
7803C0
7C03C0
3F03C0
3FFFC0
1FFFC0
07FFC0
006000
ENDCHAR
STARTCHAR 01D9
ENCODING 473
SWIDTH 500 0
DWIDTH 25 0
BBX 21 42 2 0
BITMAP
018C00
03FE00
00F800
1C71C0
3E23E0
3E03E0
3E03E0
1C01C0
000000
000000
F800F8
F800F8
F800F8
F800F8
F800F8
F800F8
F800F8
F800F8
F800F8
F800F8
F800F8
F800F8
F800F8
F800F8
F800F8
F800F8
F800F8
F800F8
F800F8
F800F8
F800F8
F800F8
F800F0
7800F0
7800F0
7C01F0
7C01F0
3F07E0
1FFFC0
0FFF80
07FF00
00F000
ENDCHAR
STARTCHAR 01DA
ENCODING 474
SWIDTH 500 0
DWIDTH 25 0
BBX 18 38 3 -1
BITMAP
040400
0F1E00
07BC00
03F800
01F000
004000
1C0700
3E0F80
3E0F80
1E0F00
0C0600
000000
000000
000000
F803C0
F803C0
F803C0
F803C0
F803C0
F803C0
F803C0
F803C0
F803C0
F803C0
F803C0
F803C0
F803C0
F803C0
F803C0
7803C0
7803C0
7803C0
7C03C0
3F03C0
3FFFC0
1FFFC0
07FFC0
006000
ENDCHAR
STARTCHAR 01DB
ENCODING 475
SWIDTH 500 0
DWIDTH 25 0
BBX 21 42 2 0
BITMAP
00C000
01E000
01E000
1CF1C0
3E7BE0
3E33E0
3E03E0
1C01C0
000000
000000
F800F8
F800F8
F800F8
F800F8
F800F8
F800F8
F800F8
F800F8
F800F8
F800F8
F800F8
F800F8
F800F8
F800F8
F800F8
F800F8
F800F8
F800F8
F800F8
F800F8
F800F8
F800F8
F800F0
7800F0
7800F0
7C01F0
7C01F0
3F07E0
1FFFC0
0FFF80
07FF00
00F000
ENDCHAR
STARTCHAR 01DC
ENCODING 476
SWIDTH 500 0
DWIDTH 25 0
BBX 18 39 3 -1
BITMAP
030000
070000
078000
03C000
03C000
01E000
00E000
1C4700
3E0F80
3E0F80
1E0F00
0C0600
000000
000000
000000
F803C0
F803C0
F803C0
F803C0
F803C0
F803C0
F803C0
F803C0
F803C0
F803C0
F803C0
F803C0
F803C0
F803C0
F803C0
7803C0
7803C0
7803C0
7C03C0
3F03C0
3FFFC0
1FFFC0
07FFC0
006000
ENDCHAR
STARTCHAR 01DD
ENCODING 477
SWIDTH 500 0
DWIDTH 25 0
BBX 21 25 2 -1
BITMAP
01F000
3FFE00
3FFF80
3FFFC0
300FE0
0003E0
0001F0
0000F0
0000F8
0000F8
000078
FFFFF8
FFFFF8
FFFFF8
FFFFF8
F800F8
7800F0
7800F0
7801F0
7C03E0
3F07C0
1FFFC0
0FFF00
07FE00
006000
ENDCHAR
STARTCHAR 01DE
ENCODING 478
SWIDTH 500 0
DWIDTH 25 0
BBX 23 41 1 0
BITMAP
03FF80
03FF80
000000
000000
0783C0
0783C0
0783C0
0783C0
030180
000000
000000
007C00
00FE00
00FE00
00FE00
01EF00
01EF00
01CF80
03C780
03C780
0383C0
0783C0
0783C0
0703C0
0F01E0
0F01E0
0E01E0
1E00F0
1E00F0
1FFFF0
3FFFF8
3FFFF8
3FFFF8
7C0078
78003C
78003C
78003C
F8003E
F0001E
F0001E
F0001E
ENDCHAR
STARTCHAR 01DF
ENCODING 479
SWIDTH 500 0
DWIDTH 25 0
BBX 19 37 3 -1
BITMAP
0FFE00
0FFE00
0FFE00
000000
000000
1E0F00
1E0F00
1E0F00
1E0F00
0C0600
000000
000000
07F000
3FFE00
3FFF00
1FFF80
000FC0
0007C0
0003C0
0003C0
0003E0
0001E0
07FFE0
1FFFE0
3FFFE0
7F07E0
F801E0
F001E0
F001E0
F001E0
F001E0
F801E0
7C01E0
7FFFE0
3FFFE0
0FFFE0
006000
ENDCHAR
STARTCHAR 01E0
ENCODING 480
SWIDTH 500 0
DWIDTH 25 0
BBX 23 41 1 0
BITMAP
03FF80
03FF80
000000
000000
003800
007C00
007C00
007C00
001000
000000
000000
007C00
00FE00
00FE00
00FE00
01EF00
01EF00
01CF80
03C780
03C780
0383C0
0783C0
0783C0
0703C0
0F01E0
0F01E0
0E01E0
1E00F0
1E00F0
1FFFF0
3FFFF8
3FFFF8
3FFFF8
7C0078
78003C
78003C
78003C
F8003E
F0001E
F0001E
F0001E
ENDCHAR
STARTCHAR 01E1
ENCODING 481
SWIDTH 500 0
DWIDTH 25 0
BBX 19 37 3 -1
BITMAP
0FFE00
0FFE00
0FFE00
000000
000000
00E000
01F000
01F000
01F000
00E000
000000
000000
07F000
3FFE00
3FFF00
1FFF80
000FC0
0007C0
0003C0
0003C0
0003E0
0001E0
07FFE0
1FFFE0
3FFFE0
7F07E0
F801E0
F001E0
F001E0
F001E0
F001E0
F801E0
7C01E0
7FFFE0
3FFFE0
0FFFE0
006000
ENDCHAR
STARTCHAR 01E2
ENCODING 482
SWIDTH 500 0
DWIDTH 25 0
BBX 23 39 1 0
BITMAP
003FFC
003FFC
003FFC
003FFC
000000
000000
000000
000000
003FFC
007FFC
007FFC
007FFC
00FF00
00EF00
00EF00
01EF00
01CF00
01CF00
03CF00
038F00
038F00
078FF8
078FF8
070FF8
0F0FF8
0F0F00
0E0F00
1FFF00
1FFF00
1FFF00
1FFF00
3C0F00
3C0F00
3C0F00
380F00
780FFE
780FFE
780FFE
F80FFE
ENDCHAR
STARTCHAR 01E3
ENCODING 483
SWIDTH 500 0
DWIDTH 25 0
BBX 22 33 2 -1
BITMAP
07FF80
07FF80
07FF80
000000
000000
000000
000000
000000
1F0380
7FC7E0
7FEFF0
7FFFF0
01FC78
00F878
00F838
00783C
00783C
00783C
1FFFFC
3FFFFC
7FFFFC
F8FFFC
F07800
F07800
E07800
E07800
E03C00
F03C00
F87F18
7FFFF8
7FFFF8
3FC7F8
020080
ENDCHAR
STARTCHAR 01E4
ENCODING 484
SWIDTH 500 0
DWIDTH 25 0
BBX 22 33 2 -1
BITMAP
003E00
01FFC0
03FFE0
07FFE0
0FC1E0
1F0040
1E0000
3E0000
3C0000
7C0000
780000
780000
780000
F80000
F80000
F80000
F801F0
F801F0
F801F0
F801F0
780FFC
780FFC
780FFC
7C01F0
7C01F0
3E01F0
3E01F0
1F01F0
0FC1F0
0FFFF0
07FFF0
01FFE0
003C00
ENDCHAR
STARTCHAR 01E5
ENCODING 485
SWIDTH 500 0
DWIDTH 25 0
BBX 22 32 2 -8
BITMAP
00F800
07FFE0
0FFFE0
1FFFE0
3F03E0
7C03E0
7C03E0
7803E0
F803E0
F003E0
F03FFC
F03FFC
F03FFC
F003E0
F003E0
F803E0
7803E0
7C03E0
7E03E0
3FFFE0
1FFFE0
0FFFE0
03FBE0
0003E0
0003C0
0003C0
0003C0
0007C0
381F80
3FFF00
7FFE00
3FF800
ENDCHAR
STARTCHAR 01E6
ENCODING 486
SWIDTH 500 0
DWIDTH 25 0
BBX 21 42 2 -1
BITMAP
00C0C0
01E1E0
00F3C0
007F80
003F00
001E00
000E00
000400
000000
000E00
00FFE0
03FFF8
07FFF0
0FC070
1F8000
1F0000
3E0000
3C0000
7C0000
780000
780000
780000
F80000
F80000
F80000
F80000
F80078
F80078
F80078
780078
780078
780078
7C0078
3C0078
3E0078
3E0078
1F8078
0FC078
07FFF8
03FFF8
01FFF0
001F00
ENDCHAR
STARTCHAR 01E7
ENCODING 487
SWIDTH 500 0
DWIDTH 25 0
BBX 19 42 2 -7
BITMAP
030180
078380
03CF00
01FF00
00FE00
007C00
003800
001000
000000
000000
00FC00
07FFE0
0FFFE0
1FFFE0
3F01E0
7C01E0
7C01E0
7801E0
F801E0
F001E0
F001E0
F001E0
F001E0
F001E0
F001E0
F801E0
7801E0
7C01E0
7E03E0
3FFFE0
1FFFE0
0FFFE0
03FDE0
0001E0
0001E0
0001E0
0003E0
0003E0
381FC0
3FFF80
7FFF00
3FFC00
ENDCHAR
STARTCHAR 01E8
ENCODING 488
SWIDTH 500 0
DWIDTH 25 0
BBX 21 41 3 0
BITMAP
0C0600
1E0F00
0F1E00
07FC00
03F800
01F000
00E000
004000
000000
000000
F001F0
F001E0
F003E0
F007C0
F00F80
F00F80
F01F00
F03E00
F07C00
F0F800
F1F000
F3F000
F3E000
F7C000
FF8000
FFC000
F7E000
F3F000
F1F800
F0FC00
F07E00
F03F00
F01F00
F00F80
F007C0
F003E0
F003E0
F001F0
F001F0
F000F8
F00078
ENDCHAR
STARTCHAR 01E9
ENCODING 489
SWIDTH 500 0
DWIDTH 25 0
BBX 22 41 2 1
BITMAP
60E000
F9E000
7FC000
1F8000
0E0000
040000
000000
000000
3C0000
3C0000
3C0000
3C0000
3C0000
3C0000
3C0000
3C0000
3C0000
3C0000
3C00F8
3C01F0
3C03E0
3C0780
3C1F00
3C3E00
3C7C00
3CF800
3DF000
3FE000
3FC000
3FE000
3DF800
3CFC00
3C7E00
3C3F00
3C1F80
3C0FC0
3C07E0
3C03E0
3C01F0
3C00F8
3C007C
ENDCHAR
STARTCHAR 01EA
ENCODING 490
SWIDTH 500 0
DWIDTH 25 0
BBX 23 40 1 -8
BITMAP
003800
01FF00
07FFC0
0FFFE0
1F83F0
1E01F0
3E00F8
3C0078
7C007C
78003C
78003C
78003C
78003C
78003C
F8003E
F8003E
F8003E
F8003E
78003E
78003C
78003C
78003C
78003C
78003C
7C007C
3C0078
3E00F8
1E01F0
1F83F0
0FFFE0
07FFC0
01FF80
007E00
003C00
003800
007800
007800
007F00
007F00
003F80
ENDCHAR
STARTCHAR 01EB
ENCODING 491
SWIDTH 500 0
DWIDTH 25 0
BBX 21 32 2 -8
BITMAP
00F800
03FE00
0FFF80
1FFFC0
3F07E0
3E03E0
7C01F0
7800F0
F800F8
F800F8
F00078
F00078
F00078
F00078
F00078
F800F8
F800F8
7800F0
7C01F0
3E03E0
3F8FE0
1FFFC0
0FFF80
03FE00
007C00
007800
00F000
01E000
01E000
01FE00
01FE00
00FE00
ENDCHAR
STARTCHAR 01EC
ENCODING 492
SWIDTH 500 0
DWIDTH 25 0
BBX 23 47 1 -8
BITMAP
07FFC0
07FFC0
07FFC0
07FFC0
000000
000000
000000
003800
01FF00
07FFC0
0FFFE0
1F83F0
1E01F0
3E00F8
3C0078
7C007C
78003C
78003C
78003C
78003C
78003C
F8003E
F8003E
F8003E
F8003E
78003E
78003C
78003C
78003C
78003C
78003C
7C007C
3C0078
3E00F8
1E01F0
1F83F0
0FFFE0
07FFC0
01FF80
007E00
003C00
003800
007800
007800
007F00
007F00
003F80
ENDCHAR
STARTCHAR 01ED
ENCODING 493
SWIDTH 500 0
DWIDTH 25 0
BBX 21 40 2 -8
BITMAP
0FFF80
0FFF80
0FFF80
000000
000000
000000
000000
000000
00F800
03FE00
0FFF80
1FFFC0
3F07E0
3E03E0
7C01F0
7800F0
F800F8
F800F8
F00078
F00078
F00078
F00078
F00078
F800F8
F800F8
7800F0
7C01F0
3E03E0
3F8FE0
1FFFC0
0FFF80
03FE00
007C00
007800
00F000
01E000
01E000
01FE00
01FE00
00FE00
ENDCHAR
STARTCHAR 01EE
ENCODING 494
SWIDTH 500 0
DWIDTH 25 0
BBX 22 42 1 -1
BITMAP
030180
0783C0
03C780
01FF00
00FE00
007C00
003800
001000
000000
000000
3FFFF8
3FFFF8
3FFFF8
3FFFF8
0001F0
0003E0
0003C0
000780
000F80
001F00
003E00
007C00
00F800
01FC00
01FF80
01FFE0
000FF0
0001F8
000078
00007C
00003C
00003C
00003C
00003C
00003C
00007C
4000F8
7803F8
7FFFF0
FFFFC0
1FFF80
00F000
ENDCHAR
STARTCHAR 01EF
ENCODING 495
SWIDTH 500 0
DWIDTH 25 0
BBX 20 42 2 -7
BITMAP
060300
0F0780
07DF00
03FE00
01FC00
00F800
007000
002000
000000
000000
000000
7FFFE0
7FFFE0
7FFFC0
0007C0
000780
000F00
001F00
003E00
007C00
007800
00F000
01F000
03E000
03F800
03FF00
03FF80
001FC0
0007E0
0003E0
0001E0
0001E0
0001F0
0001F0
0001E0
0001E0
0003E0
0007C0
7C7FC0
7FFF80
FFFE00
3FF800
ENDCHAR
STARTCHAR 01F0
ENCODING 496
SWIDTH 500 0
DWIDTH 25 0
BBX 16 43 4 -8
BITMAP
0603
0F0F
079E
03FC
01F8
00F8
0070
0020
0000
0000
0000
3FFE
3FFE
3FFE
001E
001E
001E
001E
001E
001E
001E
001E
001E
001E
001E
001E
001E
001E
001E
001E
001E
001E
001E
001E
001E
001E
001E
003E
F0FC
FFFC
FFF8
7FE0
0200
ENDCHAR
STARTCHAR 01F1
ENCODING 497
SWIDTH 500 0
DWIDTH 25 0
BBX 23 31 1 0
BITMAP
FE03FE
FF83FE
FFC3FE
F3C3FE
F1E01E
F0E01C
F0F03C
F0F03C
F0F03C
F07038
F07078
F07078
F07070
F07070
F078F0
F078F0
F078E0
F070E0
F071E0
F071E0
F071C0
F071C0
F0F1C0
F0F3C0
F0F3C0
F0E380
F1E380
F3C7FE
FFC7FE
FF87FE
FF07FE
ENDCHAR
STARTCHAR 01F2
ENCODING 498
SWIDTH 500 0
DWIDTH 25 0
BBX 23 31 1 0
BITMAP
FE0000
FF8000
FFC000
F3C000
F1E000
F0E000
F0F000
F0F000
F0F1FE
F071FE
F071FE
F0700E
F0701E
F0701C
F0781C
F07838
F07838
F07038
F07070
F07070
F07070
F070E0
F0F0E0
F0F0E0
F0F1E0
F0E1C0
F1E1C0
F3C1FE
FFC3FE
FF83FE
FF03FE
ENDCHAR
STARTCHAR 01F3
ENCODING 499
SWIDTH 500 0
DWIDTH 25 0
BBX 25 36 0 -1
BITMAP
00080000
00780000
00780000
00780000
00780000
00780000
00780000
00780000
00780000
00780000
00780000
06780000
1FF8FF80
3FF8FF80
3FF8FF80
78780700
78780700
70780F00
70780E00
F0780E00
F0781E00
F0781C00
F0781C00
F0783C00
F0783800
F0783800
F0783800
70787000
70787000
78787000
7878F000
3C78FF80
3EF8FF80
1FF8FF80
0FF8FF80
01800000
ENDCHAR
STARTCHAR 01F4
ENCODING 500
SWIDTH 500 0
DWIDTH 25 0
BBX 21 42 2 0
BITMAP
000300
000780
000780
000F00
001E00
003C00
007800
001000
000000
000E00
00FFE0
03FFF8
07FFF0
0FC070
1F8000
1F0000
3E0000
3C0000
7C0000
780000
780000
780000
F80000
F80000
F80000
F80000
F80078
F80078
F80078
780078
780078
780078
7C0078
3C0078
3E0078
3E0078
1F8078
0FC078
07FFF8
03FFF8
01FFF0
001F00
ENDCHAR
STARTCHAR 01F5
ENCODING 501
SWIDTH 500 0
DWIDTH 25 0
BBX 19 42 2 -7
BITMAP
000600
000F00
000F00
001E00
003C00
007800
007000
002000
000000
000000
00FC00
07FFE0
0FFFE0
1FFFE0
3F01E0
7C01E0
7C01E0
7801E0
F801E0
F001E0
F001E0
F001E0
F001E0
F001E0
F001E0
F801E0
7801E0
7C01E0
7E03E0
3FFFE0
1FFFE0
0FFFE0
03FDE0
0001E0
0001E0
0001E0
0003E0
0003E0
381FC0
3FFF80
7FFF00
3FFC00
ENDCHAR
STARTCHAR 01F6
ENCODING 502
SWIDTH 500 0
DWIDTH 25 0
BBX 21 32 2 -1
BITMAP
F07800
F07800
F07800
F07800
F07800
F07800
F07800
F07800
F07878
F07878
F07878
F07878
F07878
FFF878
FFF878
FFF878
FFF878
F07878
F07878
F07878
F07878
F07878
F07878
F07878
F07878
F07878
F07878
F07CF8
F03FF0
F03FF0
F01FE0
000700
ENDCHAR
STARTCHAR 01F7
ENCODING 503
SWIDTH 500 0
DWIDTH 25 0
BBX 19 39 4 -8
BITMAP
1FF800
FFFE00
FFFF00
FE3F80
F00FC0
F007C0
F003C0
F003E0
F001E0
F001E0
F001E0
F001E0
F001E0
F001E0
F001E0
F003E0
F003C0
F003C0
F007C0
F00780
F00F80
F01F00
F03E00
F07E00
F0FC00
F3F800
F7E000
FFC000
FF0000
FE0000
F80000
F00000
F00000
F00000
F00000
F00000
F00000
F00000
F00000
ENDCHAR
STARTCHAR 01F8
ENCODING 504
SWIDTH 500 0
DWIDTH 25 0
BBX 19 41 3 1
BITMAP
018000
038000
03C000
01E000
00F000
007800
003800
001000
000000
000000
F001E0
F801E0
F801E0
FC01E0
FC01E0
FE01E0
FE01E0
FF01E0
F781E0
F781E0
F3C1E0
F3C1E0
F1E1E0
F1E1E0
F0E1E0
F0F1E0
F071E0
F079E0
F039E0
F03DE0
F01DE0
F01FE0
F01FE0
F00FE0
F00FE0
F007E0
F007E0
F003E0
F003E0
F003E0
F001E0
ENDCHAR
STARTCHAR 01F9
ENCODING 505
SWIDTH 500 0
DWIDTH 25 0
BBX 18 34 4 1
BITMAP
060000
0F0000
0F8000
07C000
03C000
01E000
00F000
004000
000000
000000
07E000
FFFC00
FFFE00
FFFF00
F01F00
F00F80
F00780
F00780
F007C0
F007C0
F007C0
F007C0
F007C0
F007C0
F007C0
F007C0
F007C0
F007C0
F007C0
F007C0
F007C0
F007C0
F007C0
F007C0
ENDCHAR
STARTCHAR 01FA
ENCODING 506
SWIDTH 500 0
DWIDTH 25 0
BBX 23 42 1 0
BITMAP
000200
000E00
003E00
00FF00
00F800
004000
000000
007C00
00FE00
00C600
018300
018300
00C600
00FE00
00FE00
00EE00
01EF00
01EF00
01C700
03C780
03C780
038380
0783C0
0783C0
0701C0
0F01E0
0F01E0
0E00E0
1E00F0
1E00F0
1FFFF0
3FFFF8
3FFFF8
3FFFF8
780078
78003C
78003C
78003C
F0003E
F0001E
F0001E
F0001E
ENDCHAR
STARTCHAR 01FB
ENCODING 507
SWIDTH 500 0
DWIDTH 25 0
BBX 19 41 3 0
BITMAP
003800
00F800
03FC00
03E000
038000
000000
00E000
03F800
031800
060C00
060C00
071800
03F800
01F000
000000
000000
07F000
3FFE00
3FFF00
1FFF80
000FC0
0007C0
0003C0
0003C0
0003E0
0001E0
07FFE0
1FFFE0
3FFFE0
7F07E0
F801E0
F001E0
F001E0
F001E0
F001E0
F801E0
7C01E0
7FFFE0
3FFFE0
0FFFE0
006000
ENDCHAR
STARTCHAR 01FC
ENCODING 508
SWIDTH 500 0
DWIDTH 25 0
BBX 23 41 1 1
BITMAP
000060
000070
0000F8
0001F0
0003E0
0007C0
000700
000200
000000
000000
003FFC
007FFC
007FFC
007FFC
00FF00
00EF00
00EF00
01EF00
01CF00
01CF00
03CF00
038F00
038F00
078FF8
078FF8
070FF8
0F0FF8
0F0F00
0E0F00
1FFF00
1FFF00
1FFF00
1FFF00
3C0F00
3C0F00
3C0F00
380F00
780FFE
780FFE
780FFE
F80FFE
ENDCHAR
STARTCHAR 01FD
ENCODING 509
SWIDTH 500 0
DWIDTH 25 0
BBX 22 35 2 0
BITMAP
000600
000F00
001F00
003E00
003C00
007800
00F000
002000
000000
000000
1F0380
7FC7E0
7FEFF0
7FFFF0
01FC78
00F878
00F838
00783C
00783C
00783C
1FFFFC
3FFFFC
7FFFFC
F8FFFC
F07800
F07800
E07800
E07800
E03C00
F03C00
F87F18
7FFFF8
7FFFF8
3FC7F8
020080
ENDCHAR
STARTCHAR 01FE
ENCODING 510
SWIDTH 500 0
DWIDTH 25 0
BBX 23 42 1 -1
BITMAP
000600
000700
000F80
001F00
003E00
007C00
007000
002000
000000
003870
01FF78
07FFF0
0FFFF0
1F83F0
1E01F0
3E03F8
3C03F8
7C07FC
7807BC
780F3C
780F3C
781E3C
781E3C
F83C3E
F83C3E
F8783E
F8783E
F8F03E
78F03C
79E03C
79E03C
79C03C
7BC03C
7B807C
3F8078
3F00F8
1F01F0
1F83F0
1FFFE0
1FFFC0
3FFF00
1C3800
ENDCHAR
STARTCHAR 01FF
ENCODING 511
SWIDTH 500 0
DWIDTH 25 0
BBX 21 37 2 -2
BITMAP
000400
000E00
000F00
001F00
003E00
007800
00F000
00E000
004000
000000
000020
00F070
03FE70
0FFFF0
1FFFE0
3F07E0
3E03E0
7C07F0
780FF0
F81EF8
F81C78
F03C78
F07878
F07078
F0F078
F1E078
F3C0F8
FB80F0
7F80F0
7F01F0
3E03E0
3F0FE0
3FFFC0
7FFF80
F3FE00
603000
200000
ENDCHAR
STARTCHAR 0200
ENCODING 512
SWIDTH 500 0
DWIDTH 25 0
BBX 23 42 1 0
BITMAP
020000
060600
0F0E00
0F8F00
078780
03C380
01E3C0
00F1E0
0060C0
000000
000000
007C00
00FE00
00FE00
00FE00
01EF00
01EF00
01CF00
03C780
03C780
038780
0783C0
0783C0
0703C0
0F01E0
0F01E0
0F01E0
1E00F0
1E00F0
1E00F0
1FFFF0
3FFFF8
3FFFF8
3FFFF8
78007C
78003C
78003C
78003C
F0003E
F0001E
F0001E
F0001E
ENDCHAR
STARTCHAR 0201
ENCODING 513
SWIDTH 500 0
DWIDTH 25 0
BBX 19 36 3 -1
BITMAP
080000
181800
3C3800
1E3C00
1F1E00
0F0F00
078700
03C780
010300
000000
000000
07F000
3FFE00
3FFF00
1FFF80
000FC0
0007C0
0003C0
0003C0
0003E0
0001E0
07FFE0
1FFFE0
3FFFE0
7F07E0
F801E0
F001E0
F001E0
F001E0
F001E0
F801E0
7C01E0
7FFFE0
3FFFE0
0FFFE0
006000
ENDCHAR
STARTCHAR 0202
ENCODING 514
SWIDTH 500 0
DWIDTH 25 0
BBX 23 40 1 0
BITMAP
00FE00
01FF00
03FF80
038380
038380
030180
000000
000000
000000
007C00
00FE00
00FE00
00FE00
01EF00
01EF00
01CF00
03C780
03C780
038780
0783C0
0783C0
0703C0
0F01E0
0F01E0
0F01E0
1E00F0
1E00F0
1E00F0
1FFFF0
3FFFF8
3FFFF8
3FFFF8
78007C
78003C
78003C
78003C
F0003E
F0001E
F0001E
F0001E
ENDCHAR
STARTCHAR 0203
ENCODING 515
SWIDTH 500 0
DWIDTH 25 0
BBX 19 34 3 -1
BITMAP
03F800
07FC00
0FFE00
0E0E00
0C0E00
0C0600
000000
000000
000000
07F000
3FFE00
3FFF00
1FFF80
000FC0
0007C0
0003C0
0003C0
0003E0
0001E0
07FFE0
1FFFE0
3FFFE0
7F07E0
F801E0
F001E0
F001E0
F001E0
F001E0
F801E0
7C01E0
7FFFE0
3FFFE0
0FFFE0
006000
ENDCHAR
STARTCHAR 0204
ENCODING 516
SWIDTH 500 0
DWIDTH 25 0
BBX 18 42 5 0
BITMAP
200000
606000
F0E000
F8F000
787800
3C3800
1E3C00
0F1E00
060C00
000000
000000
FFFF80
FFFF80
FFFF80
FFFF80
F00000
F00000
F00000
F00000
F00000
F00000
F00000
F00000
F00000
FFFE00
FFFE00
FFFE00
FFFE00
F00000
F00000
F00000
F00000
F00000
F00000
F00000
F00000
F00000
F00000
FFFFC0
FFFFC0
FFFFC0
FFFFC0
ENDCHAR
STARTCHAR 0205
ENCODING 517
SWIDTH 500 0
DWIDTH 25 0
BBX 21 36 2 -1
BITMAP
040000
0C0C00
1E1C00
0F1E00
0F8F00
078780
03C380
01E3C0
008180
000000
000000
007C00
03FF00
0FFFC0
1FFFC0
3F03E0
3E01F0
7C00F0
7800F0
F800F0
F00078
FFFFF8
FFFFF8
FFFFF8
FFFFF8
F00000
F00000
F80000
780000
7C0000
3E0000
3FC0E0
1FFFE0
07FFE0
03FFE0
003800
ENDCHAR
STARTCHAR 0206
ENCODING 518
SWIDTH 500 0
DWIDTH 25 0
BBX 18 40 5 0
BITMAP
03F000
0FF800
0FFC00
1C1C00
1C0E00
1C0E00
000000
000000
000000
FFFF80
FFFF80
FFFF80
FFFF80
F00000
F00000
F00000
F00000
F00000
F00000
F00000
F00000
F00000
FFFE00
FFFE00
FFFE00
FFFE00
F00000
F00000
F00000
F00000
F00000
F00000
F00000
F00000
F00000
F00000
FFFFC0
FFFFC0
FFFFC0
FFFFC0
ENDCHAR
STARTCHAR 0207
ENCODING 519
SWIDTH 500 0
DWIDTH 25 0
BBX 21 34 2 -1
BITMAP
00FE00
01FF00
03FF80
038380
070380
070180
000000
000000
000000
007C00
03FF00
0FFFC0
1FFFC0
3F03E0
3E01F0
7C00F0
7800F0
F800F0
F00078
FFFFF8
FFFFF8
FFFFF8
FFFFF8
F00000
F00000
F80000
780000
7C0000
3E0000
3FC0E0
1FFFE0
07FFE0
03FFE0
003800
ENDCHAR
STARTCHAR 0208
ENCODING 520
SWIDTH 500 0
DWIDTH 25 0
BBX 17 41 4 1
BITMAP
206000
70E000
78F000
7C7800
3C3C00
1E1C00
0F1E00
060C00
000000
000000
FFFF80
FFFF80
FFFF80
FFFF80
03E000
03E000
03E000
03E000
03E000
03E000
03E000
03E000
03E000
03E000
03E000
03E000
03E000
03E000
03E000
03E000
03E000
03E000
03E000
03E000
03E000
03E000
03E000
FFFF80
FFFF80
FFFF80
FFFF80
ENDCHAR
STARTCHAR 0209
ENCODING 521
SWIDTH 500 0
DWIDTH 25 0
BBX 19 35 3 0
BITMAP
60C000
E1E000
F1E000
78F000
3C7800
1C3C00
1E1C00
0C0800
000000
000000
000000
FFE000
FFE000
FFE000
03E000
03E000
03E000
03E000
03E000
03E000
03E000
03E000
03E000
03E000
03E000
03E000
03E000
03E000
01E000
01E000
01F860
00FFE0
00FFE0
007FE0
000E00
ENDCHAR
STARTCHAR 020A
ENCODING 522
SWIDTH 500 0
DWIDTH 25 0
BBX 17 40 4 0
BITMAP
07F000
0FF800
1FFC00
1C1C00
1C1C00
180C00
000000
000000
000000
FFFF80
FFFF80
FFFF80
FFFF80
03E000
03E000
03E000
03E000
03E000
03E000
03E000
03E000
03E000
03E000
03E000
03E000
03E000
03E000
03E000
03E000
03E000
03E000
03E000
03E000
03E000
03E000
03E000
FFFF80
FFFF80
FFFF80
FFFF80
ENDCHAR
STARTCHAR 020B
ENCODING 523
SWIDTH 500 0
DWIDTH 25 0
BBX 19 34 3 -1
BITMAP
0FE000
1FF000
3FF800
383800
381C00
381C00
000000
000000
000000
000000
FFE000
FFE000
FFE000
03E000
03E000
03E000
03E000
03E000
03E000
03E000
03E000
03E000
03E000
03E000
03E000
03E000
03E000
01E000
01E000
01F860
00FFE0
00FFE0
007FE0
000E00
ENDCHAR
STARTCHAR 020C
ENCODING 524
SWIDTH 500 0
DWIDTH 25 0
BBX 23 42 1 0
BITMAP
040C00
0E1C00
0F1E00
0F8F00
078780
03C380
01E3C0
00C180
000000
003800
01FF00
07FFC0
0FFFE0
1F83F0
1E01F0
3E00F8
3C0078
7C007C
78003C
78003C
78003C
78003C
78003C
F8003E
F8003E
F8003E
F8003E
F8003E
78003C
78003C
78003C
78003C
78003C
7C007C
3C0078
3E00F8
1E01F0
1F83F0
0FFFE0
07FFC0
01FF00
007800
ENDCHAR
STARTCHAR 020D
ENCODING 525
SWIDTH 500 0
DWIDTH 25 0
BBX 21 36 2 -1
BITMAP
080000
181800
3C3C00
1E3C00
0F1E00
070F00
078700
03C380
010300
000000
000000
00F800
03FE00
0FFF80
1FFFC0
3F07E0
3E03E0
7C01F0
7800F0
F800F8
F800F8
F00078
F00078
F00078
F00078
F00078
F800F8
F800F0
7800F0
7C01F0
3E03E0
3F8FE0
1FFFC0
0FFF80
03FE00
003000
ENDCHAR
STARTCHAR 020E
ENCODING 526
SWIDTH 500 0
DWIDTH 25 0
BBX 23 41 1 -1
BITMAP
00FE00
01FF00
03FF80
038380
038380
030180
000000
000000
003800
01FF00
07FFC0
0FFFE0
1F83F0
1E01F0
3E00F8
3C0078
7C007C
78003C
78003C
78003C
78003C
78003C
F8003E
F8003E
F8003E
F8003E
F8003E
78003C
78003C
78003C
78003C
78003C
7C007C
3C0078
3E00F8
1E01F0
1F83F0
0FFFE0
07FFC0
01FF00
007800
ENDCHAR
STARTCHAR 020F
ENCODING 527
SWIDTH 500 0
DWIDTH 25 0
BBX 21 34 2 -1
BITMAP
01FC00
03FE00
07FF00
070700
060700
060300
000000
000000
000000
00F800
03FE00
0FFF80
1FFFC0
3F07E0
3E03E0
7C01F0
7800F0
F800F8
F800F8
F00078
F00078
F00078
F00078
F00078
F800F8
F800F0
7800F0
7C01F0
3E03E0
3F8FE0
1FFFC0
0FFF80
03FE00
003000
ENDCHAR
STARTCHAR 0210
ENCODING 528
SWIDTH 500 0
DWIDTH 25 0
BBX 20 41 3 1
BITMAP
302000
787000
78F800
3C7800
1E3C00
0F1E00
070F00
020600
000000
000000
FFF800
FFFE00
FFFF00
F03F80
F00F80
F007C0
F003C0
F003C0
F003E0
F003E0
F003E0
F003C0
F003C0
F007C0
F00F80
FFFF00
FFFE00
FFFC00
FFF800
F03C00
F03E00
F01E00
F00F00
F00F00
F00780
F00780
F003C0
F003C0
F001E0
F001E0
F000F0
ENDCHAR
STARTCHAR 0211
ENCODING 529
SWIDTH 500 0
DWIDTH 25 0
BBX 18 35 4 0
BITMAP
200000
606000
F0F000
78F000
3C7800
1C3C00
1E1C00
0F0E00
040C00
000000
000000
007E00
1FFFC0
7FFFC0
7FFF80
7E0000
780000
780000
780000
780000
780000
780000
780000
780000
780000
780000
780000
780000
780000
780000
780000
780000
780000
780000
780000
ENDCHAR
STARTCHAR 0212
ENCODING 530
SWIDTH 500 0
DWIDTH 25 0
BBX 20 40 3 0
BITMAP
07F000
0FF800
1FF800
1C1C00
381C00
381C00
000000
000000
000000
FFF800
FFFE00
FFFF00
F03F80
F00F80
F007C0
F003C0
F003C0
F003E0
F003E0
F003E0
F003C0
F003C0
F007C0
F00F80
FFFF00
FFFE00
FFFC00
FFF800
F03C00
F03E00
F01E00
F00F00
F00F00
F00780
F00780
F003C0
F003C0
F001E0
F001E0
F000F0
ENDCHAR
STARTCHAR 0213
ENCODING 531
SWIDTH 500 0
DWIDTH 25 0
BBX 17 33 5 0
BITMAP
07F000
0FF800
0FFC00
1C1E00
1C0E00
1C0E00
000000
000000
000000
00FC00
3FFF80
FFFF80
FFFF00
FC0000
F00000
F00000
F00000
F00000
F00000
F00000
F00000
F00000
F00000
F00000
F00000
F00000
F00000
F00000
F00000
F00000
F00000
F00000
F00000
ENDCHAR
STARTCHAR 0214
ENCODING 532
SWIDTH 500 0
DWIDTH 25 0
BBX 21 42 2 0
BITMAP
0C1800
1E3C00
1E3E00
0F1E00
078F00
038780
01C380
018100
000000
000000
F800F8
F800F8
F800F8
F800F8
F800F8
F800F8
F800F8
F800F8
F800F8
F800F8
F800F8
F800F8
F800F8
F800F8
F800F8
F800F8
F800F8
F800F8
F800F8
F800F8
F800F8
F800F8
F800F0
7800F0
7800F0
7C01F0
7C01F0
3F07E0
1FFFC0
0FFF80
07FF00
00F000
ENDCHAR
STARTCHAR 0215
ENCODING 533
SWIDTH 500 0
DWIDTH 25 0
BBX 18 36 3 -1
BITMAP
100000
303000
787800
3C7800
1E3C00
0E1E00
0F0E00
078700
020600
000000
000000
000000
F803C0
F803C0
F803C0
F803C0
F803C0
F803C0
F803C0
F803C0
F803C0
F803C0
F803C0
F803C0
F803C0
F803C0
F803C0
7803C0
7803C0
7803C0
7C03C0
3F03C0
3FFFC0
1FFFC0
07FFC0
006000
ENDCHAR
STARTCHAR 0216
ENCODING 534
SWIDTH 500 0
DWIDTH 25 0
BBX 21 41 2 -1
BITMAP
01FC00
03FE00
07FF00
070700
070700
060300
000000
000000
000000
F800F8
F800F8
F800F8
F800F8
F800F8
F800F8
F800F8
F800F8
F800F8
F800F8
F800F8
F800F8
F800F8
F800F8
F800F8
F800F8
F800F8
F800F8
F800F8
F800F8
F800F8
F800F8
F800F0
7800F0
7800F0
7C01F0
7C01F0
3F07E0
1FFFC0
0FFF80
07FF00
00F000
ENDCHAR
STARTCHAR 0217
ENCODING 535
SWIDTH 500 0
DWIDTH 25 0
BBX 18 34 3 -1
BITMAP
03F800
07FC00
0FFE00
0E0E00
0C0E00
0C0600
000000
000000
000000
000000
F803C0
F803C0
F803C0
F803C0
F803C0
F803C0
F803C0
F803C0
F803C0
F803C0
F803C0
F803C0
F803C0
F803C0
F803C0
7803C0
7803C0
7803C0
7C03C0
3F03C0
3FFFC0
1FFFC0
07FFC0
006000
ENDCHAR
STARTCHAR 0218
ENCODING 536
SWIDTH 500 0
DWIDTH 25 0
BBX 19 41 3 -9
BITMAP
00F000
07FF80
1FFFC0
3FFFC0
3E0380
7C0080
780000
780000
F80000
780000
780000
7C0000
7E0000
3F8000
1FE000
0FF800
03FE00
00FF00
003F80
000FC0
0007E0
0003E0
0001E0
0001E0
0001E0
0001E0
0001E0
4003E0
F00FC0
FFFFC0
FFFF80
3FFE00
03E000
000000
01E000
01E000
01E000
03E000
0FC000
0F8000
040000
ENDCHAR
STARTCHAR 0219
ENCODING 537
SWIDTH 500 0
DWIDTH 25 0
BBX 19 33 3 -9
BITMAP
00FC00
0FFFC0
1FFF80
3FFF80
7C0080
780000
780000
780000
7C0000
7F0000
3FC000
1FF800
07FE00
01FF00
003F80
0007C0
0003E0
0003E0
0001E0
4003E0
7807C0
7FFFC0
FFFF80
3FFE00
028000
000000
01E000
01E000
01E000
03E000
0FC000
0F8000
040000
ENDCHAR
STARTCHAR 021A
ENCODING 538
SWIDTH 500 0
DWIDTH 25 0
BBX 21 40 2 -9
BITMAP
FFFFF8
FFFFF8
FFFFF8
FFFFF8
00F800
00F800
00F800
00F800
00F800
00F800
00F800
00F800
00F800
00F800
00F800
00F800
00F800
00F800
00F800
00F800
00F800
00F800
00F800
00F800
00F800
00F800
00F800
00F800
00F800
00F800
00F800
000000
000000
00F800
00F800
00F800
01F000
07F000
07E000
010000
ENDCHAR
STARTCHAR 021B
ENCODING 539
SWIDTH 500 0
DWIDTH 25 0
BBX 19 39 3 -9
BITMAP
078000
078000
078000
078000
078000
078000
078000
FFFFE0
FFFFE0
FFFFE0
078000
078000
078000
078000
078000
078000
078000
078000
078000
078000
078000
078000
078000
078000
07C000
07C000
03E060
03FFE0
01FFE0
00FFE0
000400
000000
001E00
001E00
003E00
003C00
01FC00
01F800
004000
ENDCHAR
STARTCHAR 021C
ENCODING 540
SWIDTH 500 0
DWIDTH 25 0
BBX 21 40 2 -8
BITMAP
03E000
7FFE00
FFFF80
FFFFC0
F00FE0
0003E0
0001F0
0000F0
0000F0
0000F0
0000F0
0000F0
0000F0
0001E0
0003E0
0007C0
003F80
0FFF00
0FFE00
0FFF80
01FFC0
000FE0
0003F0
0000F8
0000F8
000078
000078
000078
000078
000078
000078
0000F8
0000F8
0001F0
0007E0
001FC0
FFFF80
FFFF00
FFFC00
FFC000
ENDCHAR
STARTCHAR 021D
ENCODING 541
SWIDTH 500 0
DWIDTH 25 0
BBX 19 32 3 -8
BITMAP
0FC000
FFFC00
FFFE00
FFFF00
C01F80
000780
0007C0
0007C0
0007C0
0007C0
000780
000F80
003F00
0FFE00
0FF800
0FFE00
0FFF00
003F80
0007C0
0003C0
0003E0
0003E0
0003E0
0003C0
0003C0
0007C0
001F80
007F00
0FFE00
FFFC00
FFE000
FF0000
ENDCHAR
STARTCHAR 021E
ENCODING 542
SWIDTH 500 0
DWIDTH 25 0
BBX 21 41 2 0
BITMAP
060300
0F0780
078F00
03FE00
01FC00
00F800
007000
002000
000000
000000
F00078
F00078
F00078
F00078
F00078
F00078
F00078
F00078
F00078
F00078
F00078
F00078
F00078
FFFFF8
FFFFF8
FFFFF8
FFFFF8
F00078
F00078
F00078
F00078
F00078
F00078
F00078
F00078
F00078
F00078
F00078
F00078
F00078
F00078
ENDCHAR
STARTCHAR 021F
ENCODING 543
SWIDTH 500 0
DWIDTH 25 0
BBX 20 42 2 0
BITMAP
400000
60E000
F9E000
7FC000
1F8000
0E0000
040000
000000
000000
3C0000
3C0000
3C0000
3C0000
3C0000
3C0000
3C0000
3C0000
3C0000
3CF800
3FFF00
3FFF80
3FFFC0
3C07C0
3C03E0
3C01E0
3C01E0
3C01E0
3C01F0
3C01F0
3C01F0
3C01F0
3C01F0
3C01F0
3C01F0
3C01F0
3C01F0
3C01F0
3C01F0
3C01F0
3C01F0
3C01F0
3C01F0
ENDCHAR
STARTCHAR 0220
ENCODING 544
SWIDTH 500 0
DWIDTH 25 0
BBX 21 40 2 -8
BITMAP
007000
7FFF00
FFFF80
FFFFC0
F807E0
F003E0
F001F0
F000F0
F000F0
F000F8
F000F8
F00078
F00078
F00078
F00078
F00078
F00078
F00078
F00078
F00078
F00078
F00078
F00078
F00078
F00078
F00078
F00078
F00078
F00078
F00078
F00078
F00078
000078
000078
000078
000078
000078
000078
000078
000078
ENDCHAR
STARTCHAR 0221
ENCODING 545
SWIDTH 500 0
DWIDTH 25 0
BBX 24 43 1 -8
BITMAP
000200
001E00
001E00
001E00
001E00
001E00
001E00
001E00
001E00
001E00
001E00
079E00
0FFE00
1FFE00
3FFE00
3C3E00
781E00
781E00
781E00
F81E00
F01E00
F01E00
F01E00
F01E00
F01E00
F01E00
F81E00
781E00
781E00
781E00
7C1E00
3E3EFC
1FFFFE
1FFFFE
07FF0F
001E0F
001E07
003E07
007F0F
00FF0F
01EFFE
03C7FC
0081F8
ENDCHAR
STARTCHAR 0222
ENCODING 546
SWIDTH 500 0
DWIDTH 25 0
BBX 21 31 2 0
BITMAP
3E03C0
3C01E0
3C01E0
3C01E0
3C01E0
3C01E0
3C01E0
3C01E0
3C01E0
3C01E0
3E03E0
1F07C0
0FFF80
07FF00
0FFF80
1FFFC0
3F07E0
7C01F0
F800F8
F00078
F00078
F00078
F00078
F00078
F00078
F800F8
7C01F0
7F8FF0
3FFFE0
1FFFC0
03FE00
ENDCHAR
STARTCHAR 0223
ENCODING 547
SWIDTH 500 0
DWIDTH 25 0
BBX 21 36 2 -1
BITMAP
3C01E0
3C01E0
3C01E0
7800F0
7800F0
7800F0
7800F0
7800F0
7800F0
7C01F0
3C01F0
3C01E0
3E03E0
1FFFC0
0FFF80
0FFF80
1FFFC0
3F07E0
7C01F0
7800F0
F800F8
F00078
F00078
F00078
F00078
F00078
F00078
F00078
F800F8
7800F0
7C01F0
3F07E0
1FFFC0
0FFF80
03FF00
002000
ENDCHAR
STARTCHAR 0224
ENCODING 548
SWIDTH 500 0
DWIDTH 25 0
BBX 20 39 3 -8
BITMAP
FFFFE0
FFFFE0
FFFFE0
FFFFE0
0003C0
0007C0
000780
000F00
001F00
001E00
003C00
007C00
007800
00F800
01F000
01E000
03E000
03C000
07C000
0F8000
0F0000
1F0000
1E0000
3E0000
3C0000
780000
780000
FFFFF0
FFFFF0
FFFFF0
FFFFF0
0000F0
0000F0
0000F0
0001E0
0003E0
001FE0
001FC0
001F80
ENDCHAR
STARTCHAR 0225
ENCODING 549
SWIDTH 500 0
DWIDTH 25 0
BBX 17 31 4 -8
BITMAP
FFFF80
FFFF80
FFFF80
001F00
001F00
003E00
007C00
00F800
00F000
01F000
03E000
07C000
078000
0F8000
1F0000
1E0000
3E0000
7C0000
780000
FFFF80
FFFF80
FFFF80
FFFF80
000380
000380
000780
000780
000780
007F80
007F00
007E00
ENDCHAR
STARTCHAR 0226
ENCODING 550
SWIDTH 500 0
DWIDTH 25 0
BBX 23 41 1 0
BITMAP
003800
007C00
007E00
007E00
007C00
003C00
000000
000000
000000
000000
007C00
00FE00
00FE00
00FE00
01EF00
01EF00
01CF00
03C780
03C780
038780
0783C0
0783C0
0703C0
0F01E0
0F01E0
0F01E0
1E00F0
1E00F0
1E00F0
1FFFF0
3FFFF8
3FFFF8
3FFFF8
78007C
78003C
78003C
78003C
F0003E
F0001E
F0001E
F0001E
ENDCHAR
STARTCHAR 0227
ENCODING 551
SWIDTH 500 0
DWIDTH 25 0
BBX 19 34 3 -1
BITMAP
00E000
01F000
03F000
01F000
01F000
00E000
000000
000000
000000
07F000
3FFE00
3FFF00
1FFF80
000FC0
0007C0
0003C0
0003C0
0003E0
0001E0
07FFE0
1FFFE0
3FFFE0
7F07E0
F801E0
F001E0
F001E0
F001E0
F001E0
F801E0
7C01E0
7FFFE0
3FFFE0
0FFFE0
006000
ENDCHAR
STARTCHAR 0228
ENCODING 552
SWIDTH 500 0
DWIDTH 25 0
BBX 18 39 5 -8
BITMAP
FFFF80
FFFF80
FFFF80
FFFF80
F00000
F00000
F00000
F00000
F00000
F00000
F00000
F00000
F00000
FFFE00
FFFE00
FFFE00
FFFE00
F00000
F00000
F00000
F00000
F00000
F00000
F00000
F00000
F00000
F00000
FFFFC0
FFFFC0
FFFFC0
FFFFC0
01C000
01C000
01E000
01F000
00F000
08F000
0FF000
0FE000
ENDCHAR
STARTCHAR 0229
ENCODING 553
SWIDTH 500 0
DWIDTH 25 0
BBX 21 32 2 -8
BITMAP
007C00
03FF00
0FFFC0
1FFFC0
3F03E0
3E01F0
7C00F0
7800F0
F800F0
F00078
FFFFF8
FFFFF8
FFFFF8
FFFFF8
F00000
F00000
780000
780000
7C0000
3E0000
3FC0E0
1FFFE0
07FFE0
03FFE0
003800
007000
007C00
003C00
001E00
011E00
01FC00
03F800
ENDCHAR
STARTCHAR 022A
ENCODING 554
SWIDTH 500 0
DWIDTH 25 0
BBX 23 42 1 -1
BITMAP
03FF80
03FF80
000000
000000
0783C0
0783C0
0783C0
0783C0
030180
000000
003800
03FF80
07FFC0
0FFFE0
1F83F0
1E00F0
3E00F8
3C0078
7C007C
78003C
78003C
78003C
78003C
78003E
78003E
F8003E
F8003E
78003E
78003E
78003C
78003C
78003C
78003C
7C007C
3C0078
3E00F8
1E00F0
1F83F0
0FFFE0
07FFC0
03FF80
003800
ENDCHAR
STARTCHAR 022B
ENCODING 555
SWIDTH 500 0
DWIDTH 25 0
BBX 21 37 2 -1
BITMAP
07FF00
07FF00
07FF00
000000
000000
0F0780
0F0780
0F0780
0F0780
060300
000000
000000
00F800
03FE00
0FFF80
1FFFC0
3F07E0
3E03E0
7C01F0
7800F0
F800F8
F800F8
F00078
F00078
F00078
F00078
F00078
F800F8
F800F0
7800F0
7C01F0
3E03E0
3F8FE0
1FFFC0
0FFF80
03FE00
003000
ENDCHAR
STARTCHAR 022C
ENCODING 556
SWIDTH 500 0
DWIDTH 25 0
BBX 23 42 1 -1
BITMAP
03FF80
03FF80
000000
000000
01E0C0
03F9C0
07FF80
061F00
020000
000000
003800
03FF80
07FFC0
0FFFE0
1F83F0
1E00F0
3E00F8
3C0078
7C007C
78003C
78003C
78003C
78003C
78003E
78003E
F8003E
F8003E
78003E
78003E
78003C
78003C
78003C
78003C
7C007C
3C0078
3E00F8
1E00F0
1F83F0
0FFFE0
07FFC0
03FF80
003800
ENDCHAR
STARTCHAR 022D
ENCODING 557
SWIDTH 500 0
DWIDTH 25 0
BBX 21 37 2 -1
BITMAP
07FF00
07FF00
07FF00
000000
000000
03C180
07F380
0FFF80
0E3F00
040000
000000
000000
00F800
03FE00
0FFF80
1FFFC0
3F07E0
3E03E0
7C01F0
7800F0
F800F8
F800F8
F00078
F00078
F00078
F00078
F00078
F800F8
F800F0
7800F0
7C01F0
3E03E0
3F8FE0
1FFFC0
0FFF80
03FE00
003000
ENDCHAR
STARTCHAR 022E
ENCODING 558
SWIDTH 500 0
DWIDTH 25 0
BBX 23 41 1 -1
BITMAP
003800
007C00
00FC00
007C00
007C00
003800
000000
000000
003800
01FF00
07FFC0
0FFFE0
1F83F0
1E01F0
3E00F8
3C0078
7C007C
78003C
78003C
78003C
78003C
78003C
F8003E
F8003E
F8003E
F8003E
F8003E
78003C
78003C
78003C
78003C
78003C
7C007C
3C0078
3E00F8
1E01F0
1F83F0
0FFFE0
07FFC0
01FF00
007800
ENDCHAR
STARTCHAR 022F
ENCODING 559
SWIDTH 500 0
DWIDTH 25 0
BBX 21 34 2 -1
BITMAP
007000
00F800
01F800
00F800
00F800
007000
000000
000000
000000
00F800
03FE00
0FFF80
1FFFC0
3F07E0
3E03E0
7C01F0
7800F0
F800F8
F800F8
F00078
F00078
F00078
F00078
F00078
F800F8
F800F0
7800F0
7C01F0
3E03E0
3F8FE0
1FFFC0
0FFF80
03FE00
003000
ENDCHAR
STARTCHAR 0230
ENCODING 560
SWIDTH 500 0
DWIDTH 25 0
BBX 23 42 1 -1
BITMAP
03FF80
03FF80
000000
000000
003800
007C00
007C00
007C00
001000
000000
003800
03FF80
07FFC0
0FFFE0
1F83F0
1E00F0
3E00F8
3C0078
7C007C
78003C
78003C
78003C
78003C
78003E
78003E
F8003E
F8003E
78003E
78003E
78003C
78003C
78003C
78003C
7C007C
3C0078
3E00F8
1E00F0
1F83F0
0FFFE0
07FFC0
03FF80
003800
ENDCHAR
STARTCHAR 0231
ENCODING 561
SWIDTH 500 0
DWIDTH 25 0
BBX 21 37 2 -1
BITMAP
07FF00
07FF00
07FF00
000000
000000
007000
00F800
00F800
00F800
007000
000000
000000
00F800
03FE00
0FFF80
1FFFC0
3F07E0
3E03E0
7C01F0
7800F0
F800F8
F800F8
F00078
F00078
F00078
F00078
F00078
F800F8
F800F0
7800F0
7C01F0
3E03E0
3F8FE0
1FFFC0
0FFF80
03FE00
003000
ENDCHAR
STARTCHAR 0232
ENCODING 562
SWIDTH 500 0
DWIDTH 25 0
BBX 23 39 1 0
BITMAP
07FFC0
07FFC0
07FFC0
07FFC0
000000
000000
000000
000000
F0001E
F8003E
78003C
7C003C
7C007C
3C0078
3E00F8
1E00F0
1F01F0
0F01E0
0F83E0
0783C0
07C780
03C780
01EF00
01EF00
00FE00
00FE00
007C00
007C00
007C00
007C00
007C00
007C00
007C00
007C00
007C00
007C00
007C00
007C00
007C00
ENDCHAR
STARTCHAR 0233
ENCODING 563
SWIDTH 500 0
DWIDTH 25 0
BBX 21 40 2 -8
BITMAP
0FFF80
0FFF80
0FFF80
000000
000000
000000
000000
000000
000000
780078
7800F8
7C00F0
7C00F0
3C00F0
3C01F0
3E01E0
1E01E0
1E01E0
1F03C0
0F03C0
0F83C0
078780
078780
03C780
03CF00
03EF00
01EF00
01EE00
00FE00
00FE00
007C00
007C00
003800
007800
00F000
00F000
83E000
FFC000
FF8000
FF0000
ENDCHAR
STARTCHAR 0234
ENCODING 564
SWIDTH 500 0
DWIDTH 25 0
BBX 19 42 3 -8
BITMAP
FF8000
FF8000
FF8000
078000
078000
078000
078000
078000
078000
078000
078000
078000
078000
078000
078000
078000
078000
078000
078000
078000
078000
078000
078000
078000
078000
078000
078000
078000
078000
078000
07FF00
07FF80
07FFC0
07C3C0
0781E0
0F81E0
1F81E0
1F81E0
3BC3C0
7BFFC0
F1FF80
60FF00
ENDCHAR
STARTCHAR 0235
ENCODING 565
SWIDTH 500 0
DWIDTH 25 0
BBX 23 32 2 -8
BITMAP
078000
FFE000
FFF000
FFF800
F0F800
F07C00
F03C00
F03C00
F03C00
F03C00
F03C00
F03C00
F03C00
F03C00
F03C00
F03C00
F03C00
F03C00
F03C00
F03C00
F03DF8
F03FFC
F03FFC
F03E1E
003C1E
003C0E
007C0E
00FE1E
01FE1E
03DFFC
078FF8
0103F0
ENDCHAR
STARTCHAR 0236
ENCODING 566
SWIDTH 500 0
DWIDTH 25 0
BBX 19 38 3 -8
BITMAP
078000
078000
078000
078000
078000
078000
078000
FFFFE0
FFFFE0
FFFFE0
078000
078000
078000
078000
078000
078000
078000
078000
078000
078000
078000
078000
078000
078000
078000
078000
07BF00
07FF80
07FFC0
07C3C0
0781E0
0781E0
0F81E0
1FC1E0
3FC3C0
79FFC0
F1FF80
207F00
ENDCHAR
STARTCHAR 0237
ENCODING 567
SWIDTH 500 0
DWIDTH 25 0
BBX 15 32 4 -9
BITMAP
3FFE
3FFE
3FFE
001E
001E
001E
001E
001E
001E
001E
001E
001E
001E
001E
001E
001E
001E
001E
001E
001E
001E
001E
001E
001E
001E
001E
003E
F0FC
FFFC
FFF8
7FE0
0200
ENDCHAR
STARTCHAR 0238
ENCODING 568
SWIDTH 500 0
DWIDTH 25 0
BBX 23 35 1 0
BITMAP
003800
003800
003800
003800
003800
003800
003800
003800
003800
003800
0739C0
1FFBF0
1FFFF0
3FFFF8
3C7C3C
78383C
78383C
70381C
70381C
F0381E
F0381E
F0381E
F0381E
F0381E
F0381E
F0381E
70383C
78383C
78383C
78383C
3C3878
3FFFF8
1FFFF0
0FEFE0
018180
ENDCHAR
STARTCHAR 0239
ENCODING 569
SWIDTH 500 0
DWIDTH 25 0
BBX 23 32 1 -8
BITMAP
038380
0FFFE0
1FFFF0
3FFFF8
3C3878
78383C
78383C
78383C
70381C
F0381E
F0381E
F0381E
F0381E
F0381E
F0381E
F0381E
70381C
78383C
78383C
78783C
3C7C78
3FFFF8
1FFFF0
0FBBE0
023880
003800
003800
003800
003800
003800
003800
003800
ENDCHAR
STARTCHAR 023A
ENCODING 570
SWIDTH 500 0
DWIDTH 25 0
BBX 23 39 1 -5
BITMAP
000040
000070
0000F0
0000E0
007CE0
00FEE0
00FFE0
00FFC0
01EFC0
01EFC0
01CFC0
03C780
03C780
038780
0787C0
0787C0
070FC0
0F0FE0
0F0FE0
0F0FE0
1E1EF0
1E1CF0
1E1CF0
1FFC70
3FFFF8
3FFFF8
3FFFF8
78787C
78783C
78703C
78703C
F0F03E
F0E01E
F0E01E
F1E01E
01E000
01C000
01C000
03C000
ENDCHAR
STARTCHAR 023B
ENCODING 571
SWIDTH 500 0
DWIDTH 25 0
BBX 22 39 2 -5
BITMAP
000080
0000E0
0000E0
000FE0
00FFF0
03FFFC
07FFF8
0FE3F8
1F8388
1F0380
3E0780
3C0700
7C0700
780F00
780F00
780E00
F80E00
F81E00
F81C00
F81C00
F81C00
F83C00
F83800
783800
787800
787800
7C7000
7C7000
3EF000
3FE000
1FE000
0FE070
07FFF8
03FFF8
01FFE0
03DC00
038000
038000
078000
ENDCHAR
STARTCHAR 023C
ENCODING 572
SWIDTH 500 0
DWIDTH 25 0
BBX 20 31 2 -4
BITMAP
0001C0
0001C0
0001C0
003F80
01FFF0
07FFF0
1FFFF0
1F8720
3E0700
7C0E00
780E00
F80E00
F81C00
F01C00
F01C00
F03C00
F03800
F03800
F87800
F87000
7C7000
7CF000
3FE000
1FE030
0FFFF0
07FFF0
01FFF0
01DC00
038000
038000
008000
ENDCHAR
STARTCHAR 023D
ENCODING 573
SWIDTH 500 0
DWIDTH 25 0
BBX 21 31 2 0
BITMAP
1F0000
1F0000
1F0000
1F0000
1F0000
1F0000
1F0000
1F0000
1F0000
1F0000
1F0000
1F0000
1F0000
FFFE00
FFFE00
FFFE00
FFFE00
1F0000
1F0000
1F0000
1F0000
1F0000
1F0000
1F0000
1F0000
1F0000
1F0000
1FFFF8
1FFFF8
1FFFF8
1FFFF8
ENDCHAR
STARTCHAR 023E
ENCODING 574
SWIDTH 500 0
DWIDTH 25 0
BBX 24 36 1 -2
BITMAP
000004
000007
00000F
FFFFFE
FFFFFC
FFFFFC
FFFFF8
007878
0078F0
0079E0
0079E0
007BC0
007B80
007F80
007F00
007E00
007E00
007C00
007C00
007800
00F800
00F800
01F800
01F800
03F800
07F800
077800
0F7800
1E7800
1E7800
3C7800
387800
787800
F07800
600000
200000
ENDCHAR
STARTCHAR 023F
ENCODING 575
SWIDTH 500 0
DWIDTH 25 0
BBX 19 32 3 -8
BITMAP
00FC00
0FFF80
1FFF80
3FFF80
7C0080
780000
780000
780000
7C0000
7F0000
3FC000
1FF800
07FE00
01FF00
003F80
000FC0
0003C0
0003C0
0003C0
4003C0
7FFFC0
7FFF80
FFFF00
7FF800
1E0000
0F0000
078000
03E000
01F800
00FFC0
007FC0
001FE0
ENDCHAR
STARTCHAR 0240
ENCODING 576
SWIDTH 500 0
DWIDTH 25 0
BBX 19 31 4 -8
BITMAP
FFFF80
FFFF80
FFFF80
001F00
001F00
003E00
007C00
00F800
00F000
01F000
03E000
07C000
078000
0F8000
1F0000
1E0000
3C0000
7C0000
780000
F80000
FC0000
FF0000
FF8000
1FC000
03E000
01F000
00F800
007F00
003FE0
001FE0
0007E0
ENDCHAR
STARTCHAR 0241
ENCODING 577
SWIDTH 500 0
DWIDTH 25 0
BBX 19 32 3 0
BITMAP
01F000
1FFE00
FFFF80
7FFFC0
780FC0
2003E0
0001E0
0001E0
0001E0
0001E0
0001E0
0003E0
0007C0
000FC0
003F80
007E00
01FC00
01F000
03E000
03C000
03C000
07C000
07C000
07C000
07C000
07C000
07C000
07C000
07C000
07C000
07C000
07C000
ENDCHAR
STARTCHAR 0242
ENCODING 578
SWIDTH 500 0
DWIDTH 25 0
BBX 17 24 4 0
BITMAP
07F000
3FFC00
FFFF00
7FFF00
700F80
000780
000780
000780
000780
000F80
003F00
007E00
01FC00
03F800
03E000
07C000
078000
078000
078000
078000
078000
078000
078000
078000
ENDCHAR
STARTCHAR 0243
ENCODING 579
SWIDTH 500 0
DWIDTH 25 0
BBX 22 31 1 0
BITMAP
1FFE00
1FFF80
1FFFC0
1E0FE0
1E03F0
1E01F0
1E00F0
1E00F0
1E00F0
1E00F0
1E01F0
1E01E0
1E07C0
1FFF80
1FFF00
1FFFC0
1FFFE0
1E01F0
1E00F8
1E0078
1E0078
FFF07C
FFF07C
FFF078
1E0078
1E00F8
1E01F8
1E07F0
1FFFE0
1FFFC0
1FFF00
ENDCHAR
STARTCHAR 0244
ENCODING 580
SWIDTH 500 0
DWIDTH 25 0
BBX 23 32 1 -1
BITMAP
1E00F0
1E00F0
1E00F0
1E00F0
1E00F0
1E00F0
1E00F0
1E00F0
1E00F0
1E00F0
1E00F0
1E00F0
1E00F0
FFFFFE
FFFFFE
FFFFFE
1E00F0
1E00F0
1E00F0
1E00F0
1E00F0
1E00F0
1E00F0
1E00F0
1E00F0
1E00F0
1F01F0
0F83E0
0FFFE0
07FFC0
03FF80
007800
ENDCHAR
STARTCHAR 0245
ENCODING 581
SWIDTH 500 0
DWIDTH 25 0
BBX 23 31 1 0
BITMAP
007C00
00FE00
00FE00
00FE00
01EF00
01EF00
01CF00
03C780
03C780
038780
0783C0
0783C0
0703C0
0F01E0
0F01E0
0F01E0
1E00F0
1E00F0
1E00F0
1C00F0
3C0078
3C0078
3C0078
78007C
78003C
78003C
78003C
F0003E
F0001E
F0001E
F0001E
ENDCHAR
STARTCHAR 0246
ENCODING 582
SWIDTH 500 0
DWIDTH 25 0
BBX 18 39 5 -5
BITMAP
000180
0001C0
0003C0
FFFF80
FFFF80
FFFF80
FFFF00
F00700
F00F00
F00E00
F00E00
F01E00
F01C00
F01C00
F03C00
F03800
FFFF00
FFFF00
FFFF00
FFFF00
F0F000
F0F000
F0E000
F1E000
F1E000
F1C000
F3C000
F3C000
F38000
F78000
FFFFC0
FFFFC0
FFFFC0
FFFFC0
0E0000
1E0000
1E0000
1C0000
1C0000
ENDCHAR
STARTCHAR 0247
ENCODING 583
SWIDTH 500 0
DWIDTH 25 0
BBX 21 31 2 -4
BITMAP
000780
000700
000700
007F00
03FF00
0FFFC0
1FFFC0
3F1FE0
3C1DF0
783CF0
7838F0
F83878
F03878
FFFFF8
FFFFF8
FFFFF8
F0E000
F0E000
F0E000
F9C000
79C000
7DC000
3F8000
3F8060
1FFFE0
0FFFE0
07FFE0
073800
0F0000
0E0000
020000
ENDCHAR
STARTCHAR 0248
ENCODING 584
SWIDTH 500 0
DWIDTH 25 0
BBX 21 32 3 -1
BITMAP
1FFFC0
1FFFC0
1FFFC0
1FFFC0
0007C0
0007C0
0007C0
0007C0
0007C0
0007C0
0007C0
0007C0
0007C0
01FFF8
01FFF8
01FFF8
01FFF8
0007C0
0007C0
0007C0
0007C0
0007C0
000780
000780
000780
000780
400F80
703F00
FFFF00
FFFE00
3FF800
03C000
ENDCHAR
STARTCHAR 0249
ENCODING 585
SWIDTH 500 0
DWIDTH 25 0
BBX 19 43 4 -9
BITMAP
001000
007C00
00FC00
00FE00
00FE00
007C00
007800
000000
000000
000000
000000
3FFE00
3FFE00
3FFE00
001E00
001E00
001E00
001E00
001E00
001E00
3FFFE0
3FFFE0
3FFFE0
001E00
001E00
001E00
001E00
001E00
001E00
001E00
001E00
001E00
001E00
001E00
001E00
001E00
001E00
003E00
F0FC00
FFFC00
FFF800
7FE000
020000
ENDCHAR
STARTCHAR 024A
ENCODING 586
SWIDTH 500 0
DWIDTH 25 0
BBX 25 40 1 -8
BITMAP
00700000
03FE0000
07FF0000
0FFF8000
1F07C000
1E03E000
3C01E000
3C01F000
7C00F000
7800F000
7800F000
7800F800
7800F800
78007800
F8007800
F8007800
F8007800
F8007800
F8007800
78007800
7800F800
7800F800
7800F800
7800F800
7C00F800
3C01F800
3C01F800
1E03F800
1F07F800
0FFFF800
07FF7800
03FE7800
00707800
00007800
00007800
00007800
00007C00
00007F00
00003F00
00001F80
ENDCHAR
STARTCHAR 024B
ENCODING 587
SWIDTH 500 0
DWIDTH 25 0
BBX 23 32 2 -8
BITMAP
00F800
03FFC0
0FFFE0
1FFFE0
3F03E0
3E03E0
7C03E0
7803E0
F803E0
F803E0
F003E0
F003E0
F003E0
F003E0
F003E0
F803E0
F803E0
7803E0
7C03E0
7C03E0
3F0FE0
1FFFE0
0FFFE0
07FFE0
0063E0
0003E0
0001E0
0001E0
0001F0
0001FE
0000FE
00007E
ENDCHAR
STARTCHAR 024C
ENCODING 588
SWIDTH 500 0
DWIDTH 25 0
BBX 22 31 1 0
BITMAP
1FFE00
1FFF80
1FFFE0
1E0FE0
1E01F0
1E00F0
1E00F8
1E0078
1E0078
1E0078
1E0078
1E0078
1E00F8
1E00F0
1E03F0
FFFFE0
FFFFC0
FFFF00
FFFF00
1E0F00
1E0780
1E07C0
1E03C0
1E03E0
1E01E0
1E01F0
1E00F0
1E00F8
1E0078
1E007C
1E003C
ENDCHAR
STARTCHAR 024D
ENCODING 589
SWIDTH 500 0
DWIDTH 25 0
BBX 19 24 2 0
BITMAP
001F80
07FFE0
1FFFE0
1FFFE0
1F0020
1E0000
1E0000
1E0000
1E0000
1E0000
1E0000
1E0000
FFFE00
FFFE00
FFFE00
1E0000
1E0000
1E0000
1E0000
1E0000
1E0000
1E0000
1E0000
1E0000
ENDCHAR
STARTCHAR 024E
ENCODING 590
SWIDTH 500 0
DWIDTH 25 0
BBX 23 31 1 0
BITMAP
F8003E
78003C
7C007C
7C007C
3C0078
3E00F8
1E00F0
FFFFFE
FFFFFE
FFFFFE
0F83E0
0783C0
07C7C0
03C780
01EF00
01EF00
00FE00
00FE00
007C00
007C00
007C00
007C00
007C00
007C00
007C00
007C00
007C00
007C00
007C00
007C00
007C00
ENDCHAR
STARTCHAR 024F
ENCODING 591
SWIDTH 500 0
DWIDTH 25 0
BBX 22 31 2 -8
BITMAP
780078
7C0078
7C00F8
3C00F0
3C00F0
3E00F0
1E01F0
1E01E0
1F01E0
FFFFFC
FFFFFC
FFFFFC
0783C0
07C780
03C780
03C780
01E700
01EF00
00FF00
00FE00
007E00
007E00
003C00
003C00
007800
007800
00F000
03E000
7FE000
FFC000
FF0000
ENDCHAR
STARTCHAR 0292
ENCODING 658
SWIDTH 500 0
DWIDTH 25 0
BBX 20 31 2 -8
BITMAP
7FFFE0
7FFFE0
7FFFC0
0007C0
000780
000F00
001F00
003E00
007C00
007800
00F000
01F000
03E000
03F800
03FF00
03FF80
001FC0
0007E0
0003E0
0001E0
0001E0
0001F0
0001F0
0001E0
0001E0
0003E0
0007C0
7C7FC0
7FFF80
FFFE00
3FF800
ENDCHAR
STARTCHAR 02BC
ENCODING 700
SWIDTH 500 0
DWIDTH 25 0
BBX 5 10 10 25
BITMAP
78
78
78
78
78
78
70
F0
E0
20
ENDCHAR
STARTCHAR 02C6
ENCODING 710
SWIDTH 500 0
DWIDTH 25 0
BBX 11 8 7 26
BITMAP
0400
0E00
1F00
3F80
7BC0
F1E0
E0E0
4040
ENDCHAR
STARTCHAR 02C7
ENCODING 711
SWIDTH 500 0
DWIDTH 25 0
BBX 13 8 6 27
BITMAP
6030
F078
7DF0
3FE0
1FC0
0F80
0700
0200
ENDCHAR
STARTCHAR 02C9
ENCODING 713
SWIDTH 500 0
DWIDTH 25 0
BBX 13 3 6 29
BITMAP
FFF8
FFF8
FFF8
ENDCHAR
STARTCHAR 02D8
ENCODING 728
SWIDTH 500 0
DWIDTH 25 0
BBX 11 6 7 27
BITMAP
C060
E0E0
F1E0
7FC0
3F80
0E00
ENDCHAR
STARTCHAR 02D9
ENCODING 729
SWIDTH 500 0
DWIDTH 25 0
BBX 6 6 9 27
BITMAP
38
7C
FC
7C
7C
38
ENDCHAR
STARTCHAR 02DA
ENCODING 730
SWIDTH 500 0
DWIDTH 25 0
BBX 9 9 8 26
BITMAP
1C00
7F00
E780
C180
C180
C180
E380
7F00
3E00
ENDCHAR
STARTCHAR 02DB
ENCODING 731
SWIDTH 500 0
DWIDTH 25 0
BBX 7 8 9 -8
BITMAP
3E
78
F0
F0
F0
FE
FE
7E
ENDCHAR
STARTCHAR 02DC
ENCODING 732
SWIDTH 500 0
DWIDTH 25 0
BBX 13 5 6 27
BITMAP
1810
7E38
7FF8
FFF0
C3E0
ENDCHAR
STARTCHAR 02DD
ENCODING 733
SWIDTH 500 0
DWIDTH 25 0
BBX 15 9 5 26
BITMAP
0008
0C0C
0E1E
1E3C
3C7C
7878
70F0
F1E0
6040
ENDCHAR
STARTCHAR 0311
ENCODING 785
SWIDTH 500 0
DWIDTH 25 0
BBX 11 6 7 27
BITMAP
3F80
7FC0
FFE0
E0E0
C0E0
C060
ENDCHAR
STARTCHAR 0384
ENCODING 900
SWIDTH 500 0
DWIDTH 25 0
BBX 8 9 8 26
BITMAP
04
0E
0F
1E
3E
3C
78
F0
60
ENDCHAR
STARTCHAR 0385
ENCODING 901
SWIDTH 500 0
DWIDTH 25 0
BBX 18 9 3 26
BITMAP
004000
007000
20F100
78F7C0
F9E7C0
F9C7C0
73C380
038000
010000
ENDCHAR
STARTCHAR 0386
ENCODING 902
SWIDTH 500 0
DWIDTH 25 0
BBX 23 31 1 1
BITMAP
7C7C00
78FE00
78FE00
78FE00
F1EF00
F1EF00
F1CF00
E3C780
E3C780
038780
0783C0
0783C0
0703C0
0F01E0
0F01E0
0F01E0
1E00F0
1E00F0
1E00F0
1FFFF0
3FFFF8
3FFFF8
3FFFF8
78007C
78003C
78003C
78003C
F0003E
F0001E
F0001E
F0001E
ENDCHAR
STARTCHAR 0388
ENCODING 904
SWIDTH 500 0
DWIDTH 25 0
BBX 26 31 -3 1
BITMAP
7CFFFF80
78FFFF80
78FFFF80
78FFFF80
F0F00000
F0F00000
F0F00000
E0F00000
E0F00000
00F00000
00F00000
00F00000
00F00000
00FFFE00
00FFFE00
00FFFE00
00FFFE00
00F00000
00F00000
00F00000
00F00000
00F00000
00F00000
00F00000
00F00000
00F00000
00F00000
00FFFFC0
00FFFFC0
00FFFFC0
00FFFFC0
ENDCHAR
STARTCHAR 0389
ENCODING 905
SWIDTH 500 0
DWIDTH 25 0
BBX 29 32 -6 0
BITMAP
20000000
3CF00078
3CF00078
78F00078
78F00078
78F00078
70F00078
F0F00078
F0F00078
60F00078
00F00078
00F00078
00F00078
00F00078
00FFFFF8
00FFFFF8
00FFFFF8
00FFFFF8
00F00078
00F00078
00F00078
00F00078
00F00078
00F00078
00F00078
00F00078
00F00078
00F00078
00F00078
00F00078
00F00078
00F00078
ENDCHAR
STARTCHAR 038A
ENCODING 906
SWIDTH 500 0
DWIDTH 25 0
BBX 25 32 -4 0
BITMAP
20000000
3CFFFF80
3CFFFF80
3CFFFF80
78FFFF80
7803E000
7803E000
7003E000
F003E000
7003E000
0003E000
0003E000
0003E000
0003E000
0003E000
0003E000
0003E000
0003E000
0003E000
0003E000
0003E000
0003E000
0003E000
0003E000
0003E000
0003E000
0003E000
0003E000
00FFFF80
00FFFF80
00FFFF80
00FFFF80
ENDCHAR
STARTCHAR 038C
ENCODING 908
SWIDTH 500 0
DWIDTH 25 0
BBX 27 33 -3 -1
BITMAP
40038000
781FF000
787FFC00
78FFFE00
F1F83F00
F1E01F00
F3E00F80
E3C00780
E7C007C0
E78003C0
078003C0
078003C0
078003C0
078003C0
0F8003E0
0F8003E0
0F8003E0
0F8003E0
0F8003E0
078003C0
078003C0
078003C0
078003C0
078003C0
07C007C0
03C00780
03E00F80
01E01F00
01F83F00
00FFFE00
007FFC00
001FF000
00078000
ENDCHAR
STARTCHAR 038E
ENCODING 910
SWIDTH 500 0
DWIDTH 25 0
BBX 30 31 -6 1
BITMAP
7DE0003C
79F0007C
78F00078
78F80078
F0F800F8
F07800F0
E07C01F0
E03C01E0
E03E03E0
001E03C0
001F07C0
000F0780
000F8F00
00078F00
0003DE00
0003DE00
0001FC00
0001FC00
0000F800
0000F800
0000F800
0000F800
0000F800
0000F800
0000F800
0000F800
0000F800
0000F800
0000F800
0000F800
0000F800
ENDCHAR
STARTCHAR 038F
ENCODING 911
SWIDTH 500 0
DWIDTH 25 0
BBX 28 32 -4 0
BITMAP
2001C000
3C0FF800
3C3FFE00
3C7FFF00
78FC1F80
78F80F80
79F007C0
71E003C0
F3E003E0
73C001E0
03C001E0
03C001E0
03C001E0
03C001E0
03C001E0
03C001E0
03C001E0
03C001E0
03C001E0
03C001E0
03E003E0
01E003C0
01E003C0
01F003C0
00F00780
00F00780
00780F00
003C1F00
07FC1FF0
07FE3FF0
07FE3FF0
07FE3FF0
ENDCHAR
STARTCHAR 0390
ENCODING 912
SWIDTH 500 0
DWIDTH 25 0
BBX 20 36 2 -1
BITMAP
004000
006000
60F300
F1E780
F9E7C0
FBC7C0
738780
078000
030000
000000
000000
000000
7FF000
7FF000
7FF000
01F000
01F000
01F000
01F000
01F000
01F000
01F000
01F000
01F000
01F000
01F000
01F000
01F000
01F000
00F000
00F000
00F830
00FFF0
007FF0
003FF0
000200
ENDCHAR
STARTCHAR 0391
ENCODING 913
SWIDTH 500 0
DWIDTH 25 0
BBX 23 31 1 0
BITMAP
007C00
00FE00
00FE00
00FE00
01EF00
01EF00
01CF00
03C780
03C780
038780
0783C0
0783C0
0703C0
0F01E0
0F01E0
0F01E0
1E00F0
1E00F0
1E00F0
1FFFF0
3FFFF8
3FFFF8
3FFFF8
78007C
78003C
78003C
78003C
F0003E
F0001E
F0001E
F0001E
ENDCHAR
STARTCHAR 0392
ENCODING 914
SWIDTH 500 0
DWIDTH 25 0
BBX 19 31 3 0
BITMAP
FFF800
FFFE00
FFFF00
F03F80
F00F80
F007C0
F003C0
F003C0
F003C0
F003C0
F003C0
F00780
F01F00
FFFE00
FFFC00
FFFF00
FFFF80
F007C0
F003E0
F001E0
F001E0
F001E0
F001E0
F001E0
F001E0
F003E0
F007E0
F01FC0
FFFF80
FFFF00
FFF800
ENDCHAR
STARTCHAR 0393
ENCODING 915
SWIDTH 500 0
DWIDTH 25 0
BBX 20 31 3 0
BITMAP
0FFFF0
0FFFF0
0FFFF0
0FFFF0
0F0000
0F0000
0F0000
0F0000
0F0000
0F0000
0F0000
0F0000
0F0000
0F0000
0F0000
0F0000
0F0000
0F0000
0F0000
0F0000
0F0000
0F0000
0F0000
0F0000
0F0000
0F0000
0F0000
FFFE00
FFFE00
FFFE00
FFFE00
ENDCHAR
STARTCHAR 0394
ENCODING 916
SWIDTH 500 0
DWIDTH 25 0
BBX 23 31 1 0
BITMAP
007C00
007E00
00FE00
00FE00
00EF00
01EF00
01E700
03C780
03C780
03C380
0783C0
0783C0
0783C0
0F01E0
0F01E0
0F01E0
0E00E0
1E00F0
1E00F0
1E00F0
3C0078
3C0078
3C0078
78007C
78003C
78003C
78003C
FFFFFE
FFFFFE
FFFFFE
FFFFFE
ENDCHAR
STARTCHAR 0395
ENCODING 917
SWIDTH 500 0
DWIDTH 25 0
BBX 18 31 5 0
BITMAP
FFFF80
FFFF80
FFFF80
FFFF80
F00000
F00000
F00000
F00000
F00000
F00000
F00000
F00000
F00000
FFFE00
FFFE00
FFFE00
FFFE00
F00000
F00000
F00000
F00000
F00000
F00000
F00000
F00000
F00000
F00000
FFFFC0
FFFFC0
FFFFC0
FFFFC0
ENDCHAR
STARTCHAR 0396
ENCODING 918
SWIDTH 500 0
DWIDTH 25 0
BBX 20 31 3 0
BITMAP
FFFFE0
FFFFE0
FFFFE0
FFFFE0
0003E0
0007C0
000780
000F00
001F00
001E00
003E00
007C00
007800
00F800
01F000
01E000
03E000
03C000
07C000
0F8000
0F0000
1F0000
1E0000
3E0000
7C0000
780000
F80000
FFFFF0
FFFFF0
FFFFF0
FFFFF0
ENDCHAR
STARTCHAR 0397
ENCODING 919
SWIDTH 500 0
DWIDTH 25 0
BBX 21 31 2 0
BITMAP
F00078
F00078
F00078
F00078
F00078
F00078
F00078
F00078
F00078
F00078
F00078
F00078
F00078
FFFFF8
FFFFF8
FFFFF8
FFFFF8
F00078
F00078
F00078
F00078
F00078
F00078
F00078
F00078
F00078
F00078
F00078
F00078
F00078
F00078
ENDCHAR
STARTCHAR 0398
ENCODING 920
SWIDTH 500 0
DWIDTH 25 0
BBX 23 33 1 -1
BITMAP
003800
01FF00
07FFC0
0FFFE0
1F83F0
1E01F0
3E00F8
3C0078
7C007C
78003C
78003C
78003C
78003C
78003C
F8003E
F8FE3E
F8FE3E
F8FE3E
F8003E
78003C
78003C
78003C
78003C
78003C
7C007C
3C0078
3E00F8
1E01F0
1F83F0
0FFFE0
07FFC0
01FF00
007800
ENDCHAR
STARTCHAR 0399
ENCODING 921
SWIDTH 500 0
DWIDTH 25 0
BBX 17 31 4 0
BITMAP
FFFF80
FFFF80
FFFF80
FFFF80
03E000
03E000
03E000
03E000
03E000
03E000
03E000
03E000
03E000
03E000
03E000
03E000
03E000
03E000
03E000
03E000
03E000
03E000
03E000
03E000
03E000
03E000
03E000
FFFF80
FFFF80
FFFF80
FFFF80
ENDCHAR
STARTCHAR 039A
ENCODING 922
SWIDTH 500 0
DWIDTH 25 0
BBX 20 31 3 0
BITMAP
F003E0
F003C0
F007C0
F00F80
F00F00
F01F00
F03E00
F07C00
F07C00
F0F800
F1F000
F3E000
F7C000
F78000
FF8000
FF8000
F7C000
F3E000
F1F000
F0F800
F07C00
F03E00
F03E00
F01F00
F00F80
F00780
F007C0
F003E0
F003E0
F001F0
F001F0
ENDCHAR
STARTCHAR 039B
ENCODING 923
SWIDTH 500 0
DWIDTH 25 0
BBX 23 31 1 0
BITMAP
007C00
00FE00
00FE00
00FE00
01EF00
01EF00
01CF00
03C780
03C780
038780
0783C0
0783C0
0703C0
0F01E0
0F01E0
0F01E0
1E00F0
1E00F0
1E00F0
1C00F0
3C0078
3C0078
3C0078
78007C
78003C
78003C
78003C
F0003E
F0001E
F0001E
F0001E
ENDCHAR
STARTCHAR 039C
ENCODING 924
SWIDTH 500 0
DWIDTH 25 0
BBX 21 31 2 0
BITMAP
7C01F0
7C01F0
7E03F0
7E03F0
7E03F0
7F07F0
770770
770770
770770
738E70
738E70
738E70
F3DE70
F1DC78
F1DC78
F1FC78
F0F878
F0F878
F0F878
F00078
F00078
F00078
F00078
F00078
F00078
F00078
F00078
F00078
F00078
F00078
F00078
ENDCHAR
STARTCHAR 039D
ENCODING 925
SWIDTH 500 0
DWIDTH 25 0
BBX 19 31 3 0
BITMAP
F000E0
F800E0
F800E0
FC00E0
FC00E0
FE00E0
FE00E0
FF00E0
F780E0
F780E0
F3C0E0
F3C0E0
F1C0E0
F1E0E0
F0E0E0
F0F0E0
F070E0
F078E0
F078E0
F03CE0
F03CE0
F01EE0
F01EE0
F00EE0
F00FE0
F007E0
F007E0
F003E0
F003E0
F003E0
F001E0
ENDCHAR
STARTCHAR 039E
ENCODING 926
SWIDTH 500 0
DWIDTH 25 0
BBX 21 31 2 0
BITMAP
FFFFF8
FFFFF8
FFFFF8
FFFFF8
000000
000000
000000
000000
000000
000000
000000
000000
000000
3FFFE0
3FFFE0
3FFFE0
3FFFE0
000000
000000
000000
000000
000000
000000
000000
000000
000000
000000
FFFFF8
FFFFF8
FFFFF8
FFFFF8
ENDCHAR
STARTCHAR 039F
ENCODING 927
SWIDTH 500 0
DWIDTH 25 0
BBX 23 33 1 -1
BITMAP
003800
01FF00
07FFC0
0FFFE0
1F83F0
1E01F0
3E00F8
3C0078
7C007C
78003C
78003C
78003C
78003C
78003C
F8003E
F8003E
F8003E
F8003E
F8003E
78003C
78003C
78003C
78003C
78003C
7C007C
3C0078
3E00F8
1E01F0
1F83F0
0FFFE0
07FFC0
01FF00
007800
ENDCHAR
STARTCHAR 03A0
ENCODING 928
SWIDTH 500 0
DWIDTH 25 0
BBX 21 31 2 0
BITMAP
FFFFF8
FFFFF8
FFFFF8
FFFFF8
F00078
F00078
F00078
F00078
F00078
F00078
F00078
F00078
F00078
F00078
F00078
F00078
F00078
F00078
F00078
F00078
F00078
F00078
F00078
F00078
F00078
F00078
F00078
F00078
F00078
F00078
F00078
ENDCHAR
STARTCHAR 03A1
ENCODING 929
SWIDTH 500 0
DWIDTH 25 0
BBX 19 31 4 0
BITMAP
FFF800
FFFE00
FFFF00
F03F80
F00FC0
F007C0
F003C0
F003E0
F003E0
F001E0
F003E0
F003E0
F003C0
F003C0
F007C0
F01F80
FFFF80
FFFE00
FFF800
FF0000
F00000
F00000
F00000
F00000
F00000
F00000
F00000
F00000
F00000
F00000
F00000
ENDCHAR
STARTCHAR 03A3
ENCODING 931
SWIDTH 500 0
DWIDTH 25 0
BBX 20 31 2 0
BITMAP
7FFFF0
7FFFF0
7FFFF0
7FFFF0
3C0000
1E0000
1F0000
0F8000
078000
03C000
03E000
01F000
00F000
007800
007C00
007C00
00F800
00F000
01E000
03E000
07C000
0F8000
0F0000
1E0000
3E0000
7C0000
780000
FFFFF0
FFFFF0
FFFFF0
FFFFF0
ENDCHAR
STARTCHAR 03A4
ENCODING 932
SWIDTH 500 0
DWIDTH 25 0
BBX 21 31 2 0
BITMAP
FFFFF8
FFFFF8
FFFFF8
FFFFF8
00F800
00F800
00F800
00F800
00F800
00F800
00F800
00F800
00F800
00F800
00F800
00F800
00F800
00F800
00F800
00F800
00F800
00F800
00F800
00F800
00F800
00F800
00F800
00F800
00F800
00F800
00F800
ENDCHAR
STARTCHAR 03A5
ENCODING 933
SWIDTH 500 0
DWIDTH 25 0
BBX 23 31 1 0
BITMAP
F0001E
F8003E
78003C
7C003C
7C007C
3C0078
3E00F8
1E00F0
1F01F0
0F01E0
0F83E0
0783C0
07C780
03C780
01EF00
01EF00
00FE00
00FE00
007C00
007C00
007C00
007C00
007C00
007C00
007C00
007C00
007C00
007C00
007C00
007C00
007C00
ENDCHAR
STARTCHAR 03A6
ENCODING 934
SWIDTH 500 0
DWIDTH 25 0
BBX 21 33 2 0
BITMAP
007800
007800
007800
007800
03FE00
0FFF80
1FFFC0
3F7FE0
3C79F0
7C78F0
7878F8
787878
F87878
F07878
F07878
F07878
F07878
F07878
F07878
F07878
F87878
787878
7878F0
7C78F0
3E79F0
1F7FE0
1FFFC0
07FF80
01FE00
007800
007800
007800
007800
ENDCHAR
STARTCHAR 03A7
ENCODING 935
SWIDTH 500 0
DWIDTH 25 0
BBX 22 31 1 0
BITMAP
78007C
7C0078
3C00F8
3E00F0
1E01F0
0F01E0
0F03E0
0783C0
07C780
03C780
03EF00
01FF00
01FE00
00FE00
007C00
00FE00
00FE00
01FF00
03EF00
03C780
07C780
0783C0
0F83E0
0F01E0
1F01F0
1E00F0
3E00F8
3C0078
7C007C
78007C
F8003C
ENDCHAR
STARTCHAR 03A8
ENCODING 936
SWIDTH 500 0
DWIDTH 25 0
BBX 21 31 2 0
BITMAP
F00078
F00078
F00078
F00078
F00078
F00078
F00078
F07078
F07078
F07078
F07078
F07078
F07078
F07078
F07078
7870F0
7870F0
7870F0
7C71F0
3F77E0
1FFFC0
0FFF80
07FF00
007000
007000
007000
007000
007000
007000
007000
007000
ENDCHAR
STARTCHAR 03A9
ENCODING 937
SWIDTH 500 0
DWIDTH 25 0
BBX 23 32 1 0
BITMAP
003800
01FF00
07FFC0
0FFFE0
1F83F0
1F01F0
3E00F8
3C0078
7C007C
78003C
78003C
78003C
78003C
78003C
78003C
78003C
78003C
78003C
78003C
78003C
7C007C
3C0078
3C0078
3E0078
1E00F0
1E00F0
0F01E0
0783E0
FF83FE
FFC7FE
FFC7FE
FFC7FE
ENDCHAR
STARTCHAR 03AA
ENCODING 938
SWIDTH 500 0
DWIDTH 25 0
BBX 17 40 4 0
BITMAP
180C00
3C1E00
3E3E00
3E3E00
3C1E00
080000
000000
000000
000000
FFFF80
FFFF80
FFFF80
FFFF80
03E000
03E000
03E000
03E000
03E000
03E000
03E000
03E000
03E000
03E000
03E000
03E000
03E000
03E000
03E000
03E000
03E000
03E000
03E000
03E000
03E000
03E000
03E000
FFFF80
FFFF80
FFFF80
FFFF80
ENDCHAR
STARTCHAR 03AB
ENCODING 939
SWIDTH 500 0
DWIDTH 25 0
BBX 23 40 1 0
BITMAP
030180
0783C0
07C7C0
07C7C0
0783C0
010000
000000
000000
000000
F0001E
F8003E
78003C
7C003C
7C007C
3C0078
3E00F8
1E00F0
1F01F0
0F01E0
0F83E0
0783C0
07C780
03C780
01EF00
01EF00
00FE00
00FE00
007C00
007C00
007C00
007C00
007C00
007C00
007C00
007C00
007C00
007C00
007C00
007C00
007C00
ENDCHAR
STARTCHAR 03AC
ENCODING 940
SWIDTH 500 0
DWIDTH 25 0
BBX 21 36 2 -1
BITMAP
000800
000E00
001F00
003E00
003C00
007800
00F000
00F000
006000
000000
000000
007800
03FFE0
07FFE0
1FFFE0
1F81E0
3E01E0
3C01E0
7C01E0
7801E0
7801E0
7801E0
F801E0
F801E0
F801E0
7801E0
7801E0
7801E0
7C01E0
7C01E0
3E01F0
1F87F0
1FFFF8
0FFF78
03FE38
006000
ENDCHAR
STARTCHAR 03AD
ENCODING 941
SWIDTH 500 0
DWIDTH 25 0
BBX 20 36 3 -1
BITMAP
000800
001E00
001E00
003E00
007C00
007800
00F000
01E000
006000
000000
000000
00FE00
07FFE0
1FFFE0
3FFFC0
3E0040
7C0000
7C0000
7C0000
3C0000
3E0000
1FFE00
0FFE00
1FFE00
3FFE00
7C0000
780000
780000
F80000
F80000
7C0000
7E01F0
3FFFF0
1FFFF0
0FFFE0
003800
ENDCHAR
STARTCHAR 03AE
ENCODING 942
SWIDTH 500 0
DWIDTH 25 0
BBX 18 43 4 -8
BITMAP
002000
007000
007800
00F800
01F000
01E000
03C000
078000
010000
000000
000000
07E000
FFFC00
FFFE00
FFFF00
F01F00
F00F80
F00780
F00780
F007C0
F007C0
F007C0
F007C0
F007C0
F007C0
F007C0
F007C0
F007C0
F007C0
F007C0
F007C0
F007C0
F007C0
F007C0
F007C0
0007C0
0007C0
0007C0
0007C0
0007C0
0007C0
0007C0
0007C0
ENDCHAR
STARTCHAR 03AF
ENCODING 943
SWIDTH 500 0
DWIDTH 25 0
BBX 19 36 3 -1
BITMAP
002000
003800
007C00
00F800
00F000
01E000
03C000
03C000
018000
000000
000000
000000
FFE000
FFE000
FFE000
03E000
03E000
03E000
03E000
03E000
03E000
03E000
03E000
03E000
03E000
03E000
03E000
03E000
03E000
01E000
01E000
01F060
01FFE0
00FFE0
007FE0
000400
ENDCHAR
STARTCHAR 03B0
ENCODING 944
SWIDTH 500 0
DWIDTH 25 0
BBX 17 36 4 -1
BITMAP
004000
00E000
60F300
F1E780
F1CF80
F3C780
F38780
070000
030000
000000
000000
000000
F00780
F00780
F00780
F00780
F00780
F00780
F00780
F00780
F00780
F00780
F00780
F00780
F00780
F00780
F00780
F00780
F00780
F00F80
F80F00
7C1F00
7FFE00
3FFC00
0FF800
018000
ENDCHAR
STARTCHAR 03B1
ENCODING 945
SWIDTH 500 0
DWIDTH 25 0
BBX 21 25 2 -1
BITMAP
007800
03FFE0
07FFE0
1FFFE0
1F81E0
3E01E0
3C01E0
7C01E0
7801E0
7801E0
7801E0
F801E0
F801E0
F801E0
7801E0
7801E0
7801E0
7C01E0
7C01E0
3E01F0
1F87F0
1FFFF8
0FFF78
03FE38
006000
ENDCHAR
STARTCHAR 03B2
ENCODING 946
SWIDTH 500 0
DWIDTH 25 0
BBX 19 43 4 -8
BITMAP
01C000
0FF800
1FFC00
3FFE00
7C1F00
F80F00
F00F80
F00780
F00780
F00780
F00F80
F00F00
F00F00
F01E00
F1FC00
F1F800
F1FC00
F1FF00
F01F80
F00780
F007C0
F003C0
F003E0
F001E0
F001E0
F001E0
F001E0
F003E0
F003E0
F007C0
F00FC0
FC3F80
FFFF00
FFFE00
F7F800
F00000
F00000
F00000
F00000
F00000
F00000
F00000
F00000
ENDCHAR
STARTCHAR 03B3
ENCODING 947
SWIDTH 500 0
DWIDTH 25 0
BBX 21 31 2 -8
BITMAP
F00078
F80078
780078
7800F0
7C00F0
3C00F0
3E01F0
1E01E0
1E01E0
1F03C0
0F03C0
0F03C0
0F8780
078780
078F00
078F00
03DE00
03DE00
03FC00
03FC00
01F800
01F800
01F000
01E000
00F000
00F000
00F000
00F000
00F000
00F000
00F000
ENDCHAR
STARTCHAR 03B4
ENCODING 948
SWIDTH 500 0
DWIDTH 25 0
BBX 21 36 2 -1
BITMAP
001C00
01FFC0
07FFE0
0FFFE0
0F8040
0F0000
0F0000
0F0000
0F8000
07C000
07F000
03F800
01FE00
07FF00
0FFF80
1F8FC0
3E07E0
7C01E0
7801F0
7800F0
F800F8
F00078
F00078
F00078
F00078
F00078
F00078
F800F8
7800F0
7C01F0
7C01F0
3F07E0
1FFFC0
0FFF80
07FF00
006000
ENDCHAR
STARTCHAR 03B5
ENCODING 949
SWIDTH 500 0
DWIDTH 25 0
BBX 20 25 3 -1
BITMAP
00FE00
07FFE0
1FFFE0
3FFFC0
3E0040
7C0000
7C0000
7C0000
3C0000
3E0000
1FFE00
0FFE00
1FFE00
3FFE00
7C0000
780000
780000
F80000
F80000
7C0000
7E01F0
3FFFF0
1FFFF0
0FFFE0
003800
ENDCHAR
STARTCHAR 03B6
ENCODING 950
SWIDTH 500 0
DWIDTH 25 0
BBX 19 42 3 -8
BITMAP
7FFFE0
7FFFE0
7FFFE0
0007C0
000F80
001F00
007C00
00F800
00F000
01E000
03E000
07C000
0F8000
0F0000
1E0000
3E0000
3C0000
7C0000
780000
780000
F80000
F80000
F00000
F00000
F00000
F80000
F80000
7C0000
7E0000
3F8000
3FF800
0FFF00
07FFC0
007FE0
0007E0
0001E0
0001E0
0001E0
0001E0
0001E0
0003C0
0003C0
ENDCHAR
STARTCHAR 03B7
ENCODING 951
SWIDTH 500 0
DWIDTH 25 0
BBX 18 32 4 -8
BITMAP
07E000
FFFC00
FFFE00
FFFF00
F01F00
F00F80
F00780
F00780
F007C0
F007C0
F007C0
F007C0
F007C0
F007C0
F007C0
F007C0
F007C0
F007C0
F007C0
F007C0
F007C0
F007C0
F007C0
F007C0
0007C0
0007C0
0007C0
0007C0
0007C0
0007C0
0007C0
0007C0
ENDCHAR
STARTCHAR 03B8
ENCODING 952
SWIDTH 500 0
DWIDTH 25 0
BBX 21 36 2 -1
BITMAP
007000
03FE00
07FF00
0FFF80
1F07C0
1E03C0
3C03E0
3C01E0
3C01E0
7800F0
7800F0
7800F0
7800F0
7800F0
7800F0
F800F0
FFFFF8
FFFFF8
FFFFF8
F800F8
F800F0
7800F0
7800F0
7800F0
7800F0
7800F0
7800F0
3C01E0
3C01E0
3C03E0
1E03C0
1F07C0
0FFF80
07FF00
03FE00
00F800
ENDCHAR
STARTCHAR 03B9
ENCODING 953
SWIDTH 500 0
DWIDTH 25 0
BBX 19 24 3 -1
BITMAP
FFE000
FFE000
FFE000
03E000
03E000
03E000
03E000
03E000
03E000
03E000
03E000
03E000
03E000
03E000
03E000
03E000
03E000
01E000
01E000
01F060
01FFE0
00FFE0
007FE0
000400
ENDCHAR
STARTCHAR 03BA
ENCODING 954
SWIDTH 500 0
DWIDTH 25 0
BBX 20 23 4 0
BITMAP
F003E0
F007C0
F00F80
F01E00
F07C00
F0F800
F1F000
F3E000
F7C000
FF8000
FF0000
FF8000
F7E000
F3F000
F1F800
F0FC00
F07E00
F03F00
F01F80
F00F80
F007C0
F003E0
F001F0
ENDCHAR
STARTCHAR 03BB
ENCODING 955
SWIDTH 500 0
DWIDTH 25 0
BBX 21 35 2 0
BITMAP
380000
7F0000
7F8000
7FC000
07C000
03E000
01E000
01F000
00F000
00F000
007800
007800
00FC00
00FC00
01FC00
01FE00
03FE00
03DF00
03CF00
078F00
078780
0F0780
0F0780
1E03C0
1E03C0
1E03C0
3C03E0
3C01E0
7C01E0
7801F0
7800F0
F800F0
F000F8
F000F8
F00078
ENDCHAR
STARTCHAR 03BC
ENCODING 956
SWIDTH 500 0
DWIDTH 25 0
BBX 17 31 4 -8
BITMAP
F00780
F00780
F00780
F00780
F00780
F00780
F00780
F00780
F00780
F00780
F00780
F00780
F00780
F00780
F00780
F00780
F00780
F80780
F80780
FE0780
FFFF80
FFFF80
FFFF80
F0A000
F00000
F00000
F00000
F00000
F00000
F00000
F00000
ENDCHAR
STARTCHAR 03BD
ENCODING 957
SWIDTH 500 0
DWIDTH 25 0
BBX 21 23 2 0
BITMAP
F00078
F00078
F800F8
7800F0
7800F0
7C01F0
3C01E0
3C01E0
3E03E0
1E03C0
1E03C0
1F0780
0F0780
0F8F80
078F00
078F00
07DE00
03DE00
03FC00
01FC00
01F800
00F800
00F800
ENDCHAR
STARTCHAR 03BE
ENCODING 958
SWIDTH 500 0
DWIDTH 25 0
BBX 20 43 3 -8
BITMAP
003C00
01FFC0
07FFC0
0FFFC0
1F8040
1E0000
3E0000
3C0000
3C0000
3C0000
3C0000
3C0000
1E0000
1F0000
0FE000
07FF80
01FF80
07FF80
1FF000
3F0000
3E0000
7C0000
780000
F80000
F80000
F00000
F80000
F80000
780000
7E0000
3F8000
1FFC00
0FFF80
03FFC0
003FE0
0003E0
0001E0
0001F0
0001E0
0001E0
0001E0
0003E0
0003C0
ENDCHAR
STARTCHAR 03BF
ENCODING 959
SWIDTH 500 0
DWIDTH 25 0
BBX 21 25 2 -1
BITMAP
00F800
03FE00
0FFF80
1FFFC0
3F07E0
3E03E0
7C01F0
7800F0
F800F8
F800F8
F00078
F00078
F00078
F00078
F00078
F800F8
F800F0
7800F0
7C01F0
3E03E0
3F8FE0
1FFFC0
0FFF80
03FE00
003000
ENDCHAR
STARTCHAR 03C0
ENCODING 960
SWIDTH 500 0
DWIDTH 25 0
BBX 17 23 4 0
BITMAP
FFFF80
FFFF80
FFFF80
F00780
F00780
F00780
F00780
F00780
F00780
F00780
F00780
F00780
F00780
F00780
F00780
F00780
F00780
F00780
F00780
F00780
F00780
F00780
F00780
ENDCHAR
STARTCHAR 03C1
ENCODING 961
SWIDTH 500 0
DWIDTH 25 0
BBX 19 32 4 -8
BITMAP
01E000
0FFC00
3FFE00
3FFF00
7C0F80
F807C0
F803C0
F003C0
F003E0
F001E0
F001E0
F001E0
F001E0
F001E0
F001E0
F003E0
F003E0
F003C0
F007C0
F00F80
FC1F80
FFFF00
FFFE00
F7FC00
F04000
F00000
F00000
F00000
F00000
F00000
F00000
F00000
ENDCHAR
STARTCHAR 03C2
ENCODING 962
SWIDTH 500 0
DWIDTH 25 0
BBX 19 32 3 -8
BITMAP
003F00
03FFE0
07FFE0
0FFFE0
1F8000
3E0000
7C0000
7C0000
780000
F80000
F00000
F00000
F00000
F00000
F00000
F80000
780000
7C0000
7E0000
3F8000
1FF800
0FFF00
03FFC0
007FE0
0003E0
0001E0
0001E0
0001E0
0001E0
0001E0
0003C0
0003C0
ENDCHAR
STARTCHAR 03C3
ENCODING 963
SWIDTH 500 0
DWIDTH 25 0
BBX 22 24 2 -1
BITMAP
01FFFC
07FFFC
0FFFFC
1FC780
3E03C0
7C03E0
7C01E0
7801E0
F800F0
F000F0
F000F0
F000F0
F000F0
F000F0
F000F0
F800F0
7801F0
7C01E0
3E03E0
3F0FC0
1FFF80
0FFF00
03FE00
006000
ENDCHAR
STARTCHAR 03C4
ENCODING 964
SWIDTH 500 0
DWIDTH 25 0
BBX 19 24 3 -1
BITMAP
FFFFE0
FFFFE0
FFFFE0
078000
078000
078000
078000
078000
078000
078000
078000
078000
078000
078000
078000
078000
078000
07C000
07C000
03F060
03FFE0
01FFE0
00FFE0
000400
ENDCHAR
STARTCHAR 03C5
ENCODING 965
SWIDTH 500 0
DWIDTH 25 0
BBX 17 24 4 -1
BITMAP
F00780
F00780
F00780
F00780
F00780
F00780
F00780
F00780
F00780
F00780
F00780
F00780
F00780
F00780
F00780
F00780
F00780
F00F80
F80F00
7C1F00
7FFE00
3FFC00
0FF800
018000
ENDCHAR
STARTCHAR 03C6
ENCODING 966
SWIDTH 500 0
DWIDTH 25 0
BBX 23 32 1 -8
BITMAP
003800
03FF80
07FFC0
1FFFF0
1F39F0
3E38F8
7C387C
78383C
78383C
78383C
F8383E
F0381E
F0381E
F0381E
F8383E
78383C
78383C
78383C
3C3878
3E38F8
1FBBF0
0FFFE0
07FFC0
03FF00
003800
003800
003800
003800
003800
003800
003800
003800
ENDCHAR
STARTCHAR 03C7
ENCODING 967
SWIDTH 500 0
DWIDTH 25 0
BBX 21 23 2 0
BITMAP
F800F0
7C01F0
3E01E0
1E03C0
1F07C0
0F8F80
07CF00
03DE00
03FE00
01FC00
00F800
00FC00
01FE00
03FE00
07DF00
0F8F80
0F07C0
1E03C0
3E03E0
3C01F0
7800F0
F800F8
F00078
ENDCHAR
STARTCHAR 03C8
ENCODING 968
SWIDTH 500 0
DWIDTH 25 0
BBX 21 31 2 -8
BITMAP
F00078
F00078
F00078
F00078
F00078
F07078
F07078
F07078
F07078
F07078
F07078
F07078
F07078
F07078
F07078
F07078
F870F8
7870F0
7C71F0
3E73E0
3FFFE0
1FFFC0
07FF00
00F800
007000
007000
007000
007000
007000
007000
007000
ENDCHAR
STARTCHAR 03C9
ENCODING 969
SWIDTH 500 0
DWIDTH 25 0
BBX 21 24 2 0
BITMAP
080080
1F07C0
1E03C0
3E03E0
3C01E0
7C01F0
7800F0
7800F0
7800F8
F80078
F07078
F07078
F07078
F07078
F07078
F07078
F07078
F0F878
F0F878
F0F878
79FCF0
7FDFF0
3FDFE0
1F8FC0
ENDCHAR
STARTCHAR 03CA
ENCODING 970
SWIDTH 500 0
DWIDTH 25 0
BBX 19 34 3 -1
BITMAP
381800
7C3C00
7C7E00
7C7E00
7C3C00
100000
000000
000000
000000
000000
FFE000
FFE000
FFE000
03E000
03E000
03E000
03E000
03E000
03E000
03E000
03E000
03E000
03E000
03E000
03E000
03E000
03E000
01E000
01E000
01F060
01FFE0
00FFE0
007FE0
000400
ENDCHAR
STARTCHAR 03CB
ENCODING 971
SWIDTH 500 0
DWIDTH 25 0
BBX 17 34 4 -1
BITMAP
180C00
3C3E00
3E3E00
3E3E00
3C1E00
080800
000000
000000
000000
000000
F00780
F00780
F00780
F00780
F00780
F00780
F00780
F00780
F00780
F00780
F00780
F00780
F00780
F00780
F00780
F00780
F00780
F00F80
F80F00
7C1F00
7FFE00
3FFC00
0FF800
018000
ENDCHAR
STARTCHAR 03CC
ENCODING 972
SWIDTH 500 0
DWIDTH 25 0
BBX 21 36 2 -1
BITMAP
000800
001C00
001E00
003E00
007C00
007800
00F000
01E000
004000
000000
000000
00F800
03FE00
0FFF80
1FFFC0
3F07E0
3E03E0
7C01F0
7800F0
F800F8
F800F8
F00078
F00078
F00078
F00078
F00078
F800F8
F800F0
7800F0
7C01F0
3E03E0
3F8FE0
1FFFC0
0FFF80
03FE00
003000
ENDCHAR
STARTCHAR 03CD
ENCODING 973
SWIDTH 500 0
DWIDTH 25 0
BBX 17 36 4 -1
BITMAP
002000
007000
007800
00F800
01F000
01E000
03C000
078000
010000
000000
000000
000000
F00780
F00780
F00780
F00780
F00780
F00780
F00780
F00780
F00780
F00780
F00780
F00780
F00780
F00780
F00780
F00780
F00780
F00F80
F80F00
7C1F00
7FFE00
3FFC00
0FF800
018000
ENDCHAR
STARTCHAR 03CE
ENCODING 974
SWIDTH 500 0
DWIDTH 25 0
BBX 21 35 2 0
BITMAP
000800
000E00
001F00
003E00
003C00
007800
00F000
00E000
006000
000000
000000
080080
1F07C0
1E03C0
3E03E0
3C01E0
7C01F0
7800F0
7800F0
7800F8
F80078
F07078
F07078
F07078
F07078
F07078
F07078
F07078
F0F878
F0F878
F0F878
79FCF0
7FDFF0
3FDFE0
1F8FC0
ENDCHAR
STARTCHAR 0400
ENCODING 1024
SWIDTH 500 0
DWIDTH 25 0
BBX 18 42 5 0
BITMAP
020000
060000
070000
0F8000
07C000
03E000
01E000
00F000
006000
000000
000000
FFFF80
FFFF80
FFFF80
FFFF80
F00000
F00000
F00000
F00000
F00000
F00000
F00000
F00000
F00000
FFFE00
FFFE00
FFFE00
FFFE00
F00000
F00000
F00000
F00000
F00000
F00000
F00000
F00000
F00000
F00000
FFFFC0
FFFFC0
FFFFC0
FFFFC0
ENDCHAR
STARTCHAR 0401
ENCODING 1025
SWIDTH 500 0
DWIDTH 25 0
BBX 18 40 5 0
BITMAP
180C00
3C3E00
3E3E00
3E3E00
3C1E00
000800
000000
000000
000000
FFFF80
FFFF80
FFFF80
FFFF80
F00000
F00000
F00000
F00000
F00000
F00000
F00000
F00000
F00000
FFFE00
FFFE00
FFFE00
FFFE00
F00000
F00000
F00000
F00000
F00000
F00000
F00000
F00000
F00000
F00000
FFFFC0
FFFFC0
FFFFC0
FFFFC0
ENDCHAR
STARTCHAR 0402
ENCODING 1026
SWIDTH 500 0
DWIDTH 25 0
BBX 22 31 1 0
BITMAP
FFFFC0
FFFFC0
FFFFC0
FFFFC0
0F0000
0F0000
0F0000
0F0000
0F0000
0F0000
0F0000
0F0000
0FFF80
0FFFE0
0FFFF0
0F81F0
0F00F8
0F0078
0F007C
0F003C
0F003C
0F003C
0F003C
0F003C
0F007C
0F0078
0F00F8
0F03F0
0F1FF0
0F1FE0
0F1F80
ENDCHAR
STARTCHAR 0403
ENCODING 1027
SWIDTH 500 0
DWIDTH 25 0
BBX 20 41 3 1
BITMAP
000300
000780
000F80
001F00
001E00
003C00
007800
003000
000000
000000
0FFFF0
0FFFF0
0FFFF0
0FFFF0
0F0000
0F0000
0F0000
0F0000
0F0000
0F0000
0F0000
0F0000
0F0000
0F0000
0F0000
0F0000
0F0000
0F0000
0F0000
0F0000
0F0000
0F0000
0F0000
0F0000
0F0000
0F0000
0F0000
FFFE00
FFFE00
FFFE00
FFFE00
ENDCHAR
STARTCHAR 0404
ENCODING 1028
SWIDTH 500 0
DWIDTH 25 0
BBX 21 33 2 -1
BITMAP
001E00
01FFE0
03FFF8
0FFFF8
1FC070
1F0000
3E0000
3C0000
7C0000
780000
780000
F00000
F00000
F00000
FFFE00
FFFE00
FFFE00
FFFE00
F00000
F00000
F00000
F00000
780000
780000
7C0000
3C0000
3E0000
1F0000
0FC070
0FFFF8
03FFF8
01FFE0
001F00
ENDCHAR
STARTCHAR 0405
ENCODING 1029
SWIDTH 500 0
DWIDTH 25 0
BBX 19 33 3 -1
BITMAP
00F000
07FF80
1FFFC0
3FFFC0
3E0380
7C0080
780000
780000
F80000
780000
780000
7C0000
7E0000
3F8000
1FE000
0FF800
03FE00
00FF00
003F80
000FC0
0007E0
0003E0
0001E0
0001E0
0001E0
0001E0
0001E0
4003E0
F00FC0
FFFFC0
FFFF80
3FFE00
03E000
ENDCHAR
STARTCHAR 0406
ENCODING 1030
SWIDTH 500 0
DWIDTH 25 0
BBX 17 31 4 0
BITMAP
FFFF80
FFFF80
FFFF80
FFFF80
03E000
03E000
03E000
03E000
03E000
03E000
03E000
03E000
03E000
03E000
03E000
03E000
03E000
03E000
03E000
03E000
03E000
03E000
03E000
03E000
03E000
03E000
03E000
FFFF80
FFFF80
FFFF80
FFFF80
ENDCHAR
STARTCHAR 0407
ENCODING 1031
SWIDTH 500 0
DWIDTH 25 0
BBX 17 40 4 0
BITMAP
180C00
3C1E00
3E3E00
3E3E00
3C1E00
080000
000000
000000
000000
FFFF80
FFFF80
FFFF80
FFFF80
03E000
03E000
03E000
03E000
03E000
03E000
03E000
03E000
03E000
03E000
03E000
03E000
03E000
03E000
03E000
03E000
03E000
03E000
03E000
03E000
03E000
03E000
03E000
FFFF80
FFFF80
FFFF80
FFFF80
ENDCHAR
STARTCHAR 0408
ENCODING 1032
SWIDTH 500 0
DWIDTH 25 0
BBX 18 32 3 -1
BITMAP
1FFFC0
1FFFC0
1FFFC0
1FFFC0
0003C0
0003C0
0003C0
0003C0
0003C0
0003C0
0003C0
0003C0
0003C0
0003C0
0003C0
0003C0
0003C0
0003C0
0003C0
0003C0
0003C0
0003C0
0003C0
0003C0
0007C0
000780
400F80
701F80
FFFF00
FFFE00
3FF800
03C000
ENDCHAR
STARTCHAR 0409
ENCODING 1033
SWIDTH 500 0
DWIDTH 25 0
BBX 23 31 1 0
BITMAP
1FFC00
1FFC00
1FFC00
1FFC00
1E1C00
1E1C00
1E1C00
1E1C00
1E1C00
1E1C00
1E1C00
1E1FC0
1E1FF0
1E1FF8
1E1FFC
1E1C7C
1E1C3C
1E1C1E
1E1C1E
1E1C1E
1E1C1E
1E1C1E
1E1C1E
1C1C1E
3C1C1E
3C1C1C
7C1C3C
F81C7C
F81FF8
F01FF0
C01FE0
ENDCHAR
STARTCHAR 040A
ENCODING 1034
SWIDTH 500 0
DWIDTH 25 0
BBX 22 31 2 0
BITMAP
F03800
F03800
F03800
F03800
F03800
F03800
F03800
F03800
F03800
F03800
F03800
F03A00
FFFFE0
FFFFF0
FFFFF8
FFF8F8
F03878
F0383C
F0383C
F0383C
F0383C
F0383C
F0383C
F0383C
F0383C
F03838
F03878
F038F8
F03FF0
F03FE0
F03FC0
ENDCHAR
STARTCHAR 040B
ENCODING 1035
SWIDTH 500 0
DWIDTH 25 0
BBX 21 31 1 0
BITMAP
FFFFC0
FFFFC0
FFFFC0
FFFFC0
0F0000
0F0000
0F0000
0F0000
0F0000
0F0000
0F0000
0F0000
0FFFC0
0FFFE0
0FFFF0
0F81F0
0F00F8
0F0078
0F0078
0F0078
0F0078
0F0078
0F0078
0F0078
0F0078
0F0078
0F0078
0F0078
0F0078
0F0078
0F0078
ENDCHAR
STARTCHAR 040C
ENCODING 1036
SWIDTH 500 0
DWIDTH 25 0
BBX 21 41 3 1
BITMAP
003000
007800
007C00
00F000
01E000
03C000
038000
010000
000000
000000
F001F0
F001E0
F003E0
F007C0
F00F80
F00F80
F01F00
F03E00
F07C00
F0F800
F1F000
F3F000
F3E000
F7C000
FF8000
FFC000
F7E000
F3F000
F1F800
F0FC00
F07E00
F03F00
F01F00
F00F80
F007C0
F003E0
F003E0
F001F0
F001F0
F000F8
F00078
ENDCHAR
STARTCHAR 040D
ENCODING 1037
SWIDTH 500 0
DWIDTH 25 0
BBX 19 41 3 1
BITMAP
018000
03C000
03C000
01E000
00F000
007800
003C00
001000
000000
000000
F001E0
F003E0
F003E0
F007E0
F007E0
F00FE0
F00FE0
F01FE0
F03DE0
F03DE0
F079E0
F079E0
F0F1E0
F0F1E0
F1E1E0
F1E1E0
F1C1E0
F3C1E0
F381E0
F781E0
F701E0
FF01E0
FF01E0
FE01E0
FE01E0
FC01E0
FC01E0
F801E0
F801E0
F801E0
F001E0
ENDCHAR
STARTCHAR 040E
ENCODING 1038
SWIDTH 500 0
DWIDTH 25 0
BBX 24 40 1 0
BITMAP
030180
0783C0
07C7C0
03FF80
01FF00
00FE00
000000
000000
000000
F0001F
F8001E
F8001E
78003E
7C003C
3C003C
3E007C
1E0078
1F0078
0F00F0
0F80F0
0780F0
07C1E0
03C1E0
03E1C0
01E3C0
01F3C0
00F780
007F80
007F00
003F00
003E00
001E00
001E00
003C00
007C00
007800
01F000
7FE000
7FC000
7F8000
ENDCHAR
STARTCHAR 040F
ENCODING 1039
SWIDTH 500 0
DWIDTH 25 0
BBX 21 39 2 -8
BITMAP
F80078
F80078
F80078
F80078
F80078
F80078
F80078
F80078
F80078
F80078
F80078
F80078
F80078
F80078
F80078
F80078
F80078
F80078
F80078
F80078
F80078
F80078
F80078
F80078
F80078
F80078
F80078
FFFFF8
FFFFF8
FFFFF8
FFFFF8
007800
007800
007800
007800
007800
007800
007800
007800
ENDCHAR
STARTCHAR 0410
ENCODING 1040
SWIDTH 500 0
DWIDTH 25 0
BBX 23 31 1 0
BITMAP
007C00
00FE00
00FE00
00FE00
01EF00
01EF00
01CF00
03C780
03C780
038780
0783C0
0783C0
0703C0
0F01E0
0F01E0
0F01E0
1E00F0
1E00F0
1E00F0
1FFFF0
3FFFF8
3FFFF8
3FFFF8
78007C
78003C
78003C
78003C
F0003E
F0001E
F0001E
F0001E
ENDCHAR
STARTCHAR 0411
ENCODING 1041
SWIDTH 500 0
DWIDTH 25 0
BBX 20 31 3 0
BITMAP
FFFF80
FFFF80
FFFF80
FFFF80
F00000
F00000
F00000
F00000
F00000
F00000
F00000
F00000
FFF800
FFFF00
FFFF80
F03FC0
F007E0
F003E0
F001E0
F001E0
F001F0
F001F0
F001F0
F001E0
F001E0
F003E0
F007C0
F03FC0
FFFF80
FFFE00
FFF800
ENDCHAR
STARTCHAR 0412
ENCODING 1042
SWIDTH 500 0
DWIDTH 25 0
BBX 20 31 3 0
BITMAP
FFF800
FFFE00
FFFF00
F03F80
F00F80
F007C0
F003C0
F003C0
F003C0
F003C0
F007C0
F00780
F01F00
FFFE00
FFFC00
FFFF00
FFFF80
F007C0
F003E0
F001E0
F001E0
F001F0
F001F0
F001E0
F001E0
F003E0
F007E0
F01FC0
FFFF80
FFFF00
FFF800
ENDCHAR
STARTCHAR 0413
ENCODING 1043
SWIDTH 500 0
DWIDTH 25 0
BBX 20 31 3 0
BITMAP
0FFFF0
0FFFF0
0FFFF0
0FFFF0
0F0000
0F0000
0F0000
0F0000
0F0000
0F0000
0F0000
0F0000
0F0000
0F0000
0F0000
0F0000
0F0000
0F0000
0F0000
0F0000
0F0000
0F0000
0F0000
0F0000
0F0000
0F0000
0F0000
FFFE00
FFFE00
FFFE00
FFFE00
ENDCHAR
STARTCHAR 0414
ENCODING 1044
SWIDTH 500 0
DWIDTH 25 0
BBX 23 39 1 -8
BITMAP
01FFF8
01FFF8
01FFF8
03FFF8
03E078
03E078
03C078
03C078
03C078
03C078
03C078
03C078
03C078
03C078
03C078
03C078
03C078
03C078
07C078
078078
078078
078078
0F8078
0F0078
1F0078
1E0078
3E0078
FFFFFE
FFFFFE
FFFFFE
FFFFFE
F0001E
F0001E
F0001E
F0001E
F0001E
F0001E
F0001E
F0001E
ENDCHAR
STARTCHAR 0415
ENCODING 1045
SWIDTH 500 0
DWIDTH 25 0
BBX 18 31 5 0
BITMAP
FFFF80
FFFF80
FFFF80
FFFF80
F00000
F00000
F00000
F00000
F00000
F00000
F00000
F00000
F00000
FFFE00
FFFE00
FFFE00
FFFE00
F00000
F00000
F00000
F00000
F00000
F00000
F00000
F00000
F00000
F00000
FFFFC0
FFFFC0
FFFFC0
FFFFC0
ENDCHAR
STARTCHAR 0416
ENCODING 1046
SWIDTH 500 0
DWIDTH 25 0
BBX 25 31 0 0
BITMAP
781C0F00
781C0F00
3C1C1E00
3C1C1E00
1E1C3C00
1E1C3C00
0E1C3800
0F1C7800
071C7000
079CF000
039CE000
03DDE000
01DDC000
01FFC000
00FF8000
01FFC000
03DDE000
03DDE000
079CF000
079CF000
0F1C7800
0F1C7800
1E1C3C00
1E1C3C00
3C1C1E00
3C1C1E00
3C1C1E00
781C0F00
781C0F00
781C0F00
F01C0780
ENDCHAR
STARTCHAR 0417
ENCODING 1047
SWIDTH 500 0
DWIDTH 25 0
BBX 21 32 2 0
BITMAP
1FFE00
7FFF80
7FFFC0
3807E0
2003E0
0001F0
0000F0
0000F0
0000F0
0001F0
0001E0
0007E0
001FC0
07FF00
07FE00
07FF80
007FE0
0003F0
0000F0
0000F8
000078
000078
000078
000078
000078
0000F8
4001F0
7807F0
FFFFE0
FFFFC0
1FFF00
00F000
ENDCHAR
ENDFONT
